<svg version="1.0" xmlns="http://www.w3.org/2000/svg" width="400" height="400" viewBox="0 0 300 300"><path d="M188.2 1c.2.8 1.4 1.6 2.6 1.8 1.2.2 2 .7 1.7 1.2-.3.4.4.6 1.5.3 1.6-.4 2 0 2.1 1.8 0 2.2.1 2.3.9.4.5-1.1.9-1.5.9-1 .1.6 2.1 2.1 4.6 3.5 3.1 1.7 4.1 2.7 3.2 3.3-.7.5-.4.6 1 .2 2.4-.6 6.2 2.6 6.4 5.4 0 1 .3 1.1.5.4.3-.7 1.2-.9 2-.6 1.3.5 1.3.7.2 1.4s-1 1 .1 2.1c1 1 1.2 1 .7 0-.4-.7-.1-1.2.8-1.2.8 0 1.7.6 1.9 1.2.4.9.6.8.6-.3.1-2-9-9.9-14-12.1-2.2-.9-3.9-2.2-3.9-2.8 0-1.4-8.7-5.3-10.1-4.5-.5.4-1.7.1-2.6-.7-1.4-1.1-1.6-1.1-1.1.2zM165.4 2.6c.2 1 .8 2 1.5 2.2.8.3 1.2-.3.9-1.4-.4-2.3-2.7-3.1-2.4-.8zM172.7 1.8c-.5.7-1.3 1-1.8.7-1.4-.9-1.1.9.5 3.1 1.3 1.7 1.5 1.8 2.1.2.9-2.4.2-5.7-.8-4zM152.1 3.6c-5.4 1.3-12.6 5.5-14.2 8.4-.5.8-3.1 5.3-5.7 10-10.6 18.4-12.2 22-13.3 31.3-.6 4.8-.9 9.2-.7 9.9.2.6 1.4-.4 2.6-2.3 1.2-1.9 2.2-3 2.2-2.4 0 .5.7-.1 1.6-1.3 1.3-1.9 1.4-2.6.2-4-.7-.9-1.9-2.1-2.5-2.5-.7-.4-1.3-1.3-1.3-1.8 0-.6 1.5-.1 3.4 1.1 2.1 1.2 3.7 1.7 4.1 1.1.3-.6-.8-1.7-2.4-2.6-2.7-1.4-2.9-1.8-2.1-4.1.6-1.4.8-3 .4-3.5-.7-1.1 1.8-3.7 3.1-3.2.6.2 1.1-.9 1.1-2.3.1-1.4.9-3.3 1.7-4.2.9-.9 1.9-2.9 2.2-4.5.4-1.5 1.5-3.2 2.5-3.7 1.2-.6 1.6-1.7 1.3-3-.4-1.4 0-2 1.1-2 .9 0 1.6-.4 1.6-.9s.3-1.7.7-2.7c.5-1.3.3-1.5-.8-.9-1.1.7-1.1.5.1-.9 1.3-1.6 7.6-5 12-6.4.8-.3 3.2-.5 5.3-.4 4 0 4.4-.3 2.5-2.2-1-.9-2.5-.9-6.7 0zM123 55.5c-.7.8-1.7 1.2-2.2.9-.6-.4-.5-1 .3-1.5 2.2-1.4 3.3-1 1.9.6zM183.5 3c.3.5.8 1 1.1 1 .2 0 .4-.5.4-1 0-.6-.5-1-1.1-1-.5 0-.7.4-.4 1zM177.4 5.1c-.3.6-.2 1.4.3 1.8.6.3 1.3 1.3 1.6 2.1.3.8.4 0 .4-1.7-.2-3.4-1-4.2-2.3-2.2zM163 9c2 2.9 4 3.9 4 2.2 0-1-4.3-5.2-5.4-5.2-.4 0 .2 1.3 1.4 3z"/><path d="M148.6 9.9c-1.5.6-1.6 1-.7 1.5.7.5 1.7.4 2.3-.2.8-.8 1.6-.4 2.9 1.1 1 1.2 1.8 1.7 1.9 1 0-1.3-2.7-4.3-3.8-4.2-.4 0-1.6.4-2.6.8zM169.3 11.5c0 .8.4 1.5.9 1.5.4 0 .8-.7.8-1.5s-.4-1.5-.8-1.5c-.5 0-.9.7-.9 1.5zM187.7 11.7c.5 1.2.7 1.2 1.4.1.7-1.1 1.1-1 2 .2.9 1.3 1 1.3.6 0-.2-.8-1.3-1.5-2.4-1.6-1.5-.1-2 .3-1.6 1.3zM145.3 12.5c0 .8.4 1.2.9.9.5-.3.6-1 .3-1.5-.9-1.3-1.2-1.1-1.2.6zM188 15.1c0 .5.5.7 1 .4.6-.3 1-.8 1-1.1 0-.2-.4-.4-1-.4-.5 0-1 .5-1 1.1zM155 15.4c0 .9 3 1.4 3.5.6.4-.6-.3-1-1.4-1-1.2 0-2.1.2-2.1.4zM190.5 16c-.3.5-.2 1 .4 1 .5 0 1.3-.5 1.6-1 .3-.6.2-1-.4-1-.5 0-1.3.4-1.6 1zM194 16c0 .5.4 1 .9 1 .6 0 1.3-.5 1.6-1 .3-.6-.1-1-.9-1-.9 0-1.6.4-1.6 1zM171 18.9c0 .6.4 1.3 1 1.6.6.3.7-.1.4-.9-.7-1.8-1.4-2.1-1.4-.7zM138.7 21.1c.7.7 1.5 1 1.8.7.3-.3-.2-.9-1.2-1.2-1.4-.6-1.5-.5-.6.5zM193 20.7c.1 1.8 1.8 3.5 2.4 2.4.4-.6.4-1.6.1-2.1-.7-1.2-2.5-1.3-2.5-.3zM200.5 21c.3.5.8 1 1.1 1 .2 0 .4-.5.4-1 0-.6-.5-1-1.1-1-.5 0-.7.4-.4 1zM206.5 21c.3.5 1.1 1 1.6 1 .6 0 .7-.5.4-1-.3-.6-1.1-1-1.6-1-.6 0-.7.4-.4 1zM197.3 24c-.3 1.1-1 2-1.5 2s-.3.7.6 1.5c2 2.1 2.4 1.9 2-1.1-.2-2 .1-2.4 1.3-2 1.3.5 1.4.4.3-.9-1.6-2-2.1-1.9-2.7.5zM213.3 23.4c.9.7 1.7 1.8 1.7 2.5 0 .6.7 1.1 1.5 1.1s1.5.4 1.5.9.8.7 1.9.4c2.1-.5 6.5 4.3 5.7 6.3-.3.8.1 1.1 1 .7.9-.3 1.4-1.3 1.1-2.4-.3-1.1-.1-1.7.4-1.3.5.3.9 1.2.9 2s.4 1.3.8 1c1-.6 4.9 6.7 5.4 10.1.2 1.2-.1 2.3-.7 2.5-.5.1-1.7-2.4-2.6-5.7-.9-3.5-1.8-5.4-2.3-4.7-.4.7-.2 2.8.4 4.8.7 1.9 1.3 4.2 1.4 4.9.1.8.5 1.7.8 2.1.4.3.5 1.1.4 1.7-.2.7-.1.9.1.4 1.2-2 2-.2 2.1 4.5 0 4.7-.1 4.9-.8 2-1.2-5.2-2.3-5.2-1.5 0 .4 2.6.4 5.2 0 5.8-.4.7-.9 3.3-1.1 5.8-.4 4.9-1.4 7-1.4 3.1-.1-2.2-.2-2.1-1.5.8-.8 1.8-1.9 3.3-2.5 3.3-.6 0-.9.4-.6.8.3.5-.1 2-.9 3.5-.7 1.4-1 2.9-.7 3.3.4.4.1.4-.6 0-.9-.5-1.1-1.7-.7-3.3.5-2.1.4-2.3-.7-1.2-.8.8-1.4 2.5-1.6 3.9-.2 2.9-4.2 10.9-7.8 15.7-1.3 1.7-2.4 3.7-2.4 4.4 0 1.6 4.4-3.3 10.6-11.9 3.3-4.5 5.1-6.1 6.2-5.7.9.3 1.3.3.9-.1-.3-.4-.1-1.9.7-3.3 3.6-7.1 4.6-10 5.3-15.1.5-4.3.8-5 1.3-3 .6 2.3.7 2.3 1.2-1 .3-1.9.4-6.9.3-11-.2-4.1-.4-9.2-.4-11.3-.1-2.1-.5-3.6-.9-3.3-.4.3-1.7-1.2-2.7-3.2-2.1-4-5.5-7.5-6.4-6.7-.3.4.1 1 .9 1.5 1.3.8 1.2 1-.2 1-1.1 0-1.8-.8-1.8-1.9 0-1.6-2.1-2.9-4.7-2.9-.3 0-1-.6-1.4-1.4-.6-.9-.9-.9-.9-.1 0 .7.8 1.7 1.8 2.2.9.6 1.2 1.1.7 1.1-.6 0-2.2-1.1-3.7-2.5s-3.3-2.5-4-2.5c-.8.1-.7.5.5 1.4zm14.4 55c-.7 1.4-1.3 2.3-1.5 2.1-.7-.6.9-4.5 1.8-4.5.4 0 .3 1.1-.3 2.4zM144.5 24c-1.3.6-1.5.9-.5.9.8 0 2.2-.4 3-.9 1.8-1.2.2-1.2-2.5 0zM134.1 25.6c0 1.1.3 1.4.6.6.3-.7.2-1.6-.1-1.9-.3-.4-.6.2-.5 1.3zM203 24.9c0 .6.4 1.3 1 1.6.6.3.7-.1.4-.9-.7-1.8-1.4-2.1-1.4-.7z"/><path d="M210.9 25.7c-.1.5-.1 1.1 0 1.5 0 .5-.6.8-1.4.8-.8 0-1.5.5-1.5 1 0 .7.6.7 2 0 1.1-.6 2-1.7 2-2.5 0-1.5-.9-2.1-1.1-.8zM204.4 30c.3 1.4 1 3.8 1.5 5.5.9 2.6 1 2.5.5-1.5-.3-2.5-1-5-1.6-5.5-.6-.6-.7-.1-.4 1.5zM214.7 31c-2.1 2.4-2.1 3-.3 3 .7 0 1.6-1 1.9-2.2.8-3 .4-3.1-1.6-.8zM130.9 32.7c-1.3 1.6-1.2 1.7.4.4.9-.7 1.7-1.5 1.7-1.7 0-.8-.8-.3-2.1 1.3zM184.5 32c.4.6 1.1.8 1.6.5 1.4-.9 1.1-1.5-.7-1.5-.8 0-1.2.5-.9 1zM220.5 32c.3.5.8 1 1.1 1 .2 0 .4-.5.4-1 0-.6-.5-1-1.1-1-.5 0-.7.4-.4 1zM212 36.9c0 1 .7 2.4 1.5 3.1.9.8 1.5.9 1.5.2 0-.6-.5-1.4-1.1-1.8-.8-.5-.8-.9.1-1.4.8-.5.7-.9-.4-1.3s-1.6-.1-1.6 1.2zM192 37.4c0 .2.8 1 1.8 1.7 1.5 1.3 1.6 1.2.3-.4s-2.1-2.1-2.1-1.3zM196 40.3c0 1.2 4.3 5.7 5.5 5.7.3 0 .5-.6.5-1.4 0-.8-1.2-1.7-2.6-2-1.7-.5-2.4-1.2-2-2.1.3-.8.1-1.5-.4-1.5-.6 0-1 .6-1 1.3zM224.3 41.7c-1.1 2.3-.9 2.9 1.2 5.4 1.3 1.6 2.6 2.5 2.9 2.1.3-.5-.5-1.7-1.7-2.7-1.4-1.2-1.7-2-.9-2.3 1.3-.4 1.7-3.8.4-4.6-.4-.2-1.3.7-1.9 2.1zM139.3 40.7c-1.7.6-1.7 2.3 0 2.3.8 0 1.4-.7 1.4-1.5s-.1-1.5-.1-1.4c-.1 0-.7.3-1.3.6zM217.3 40.7c.4.3.1 1.3-.6 2.1-.9 1.3-.9 1.4.1.8.7-.4 1.2-.2 1.2.4 0 .6.5.8 1 .5 1.7-1 1.2-4.5-.7-4.5-.9 0-1.3.3-1 .7zM210 42c0 .5-.3.9-.7.7-.5-.1-.9.1-1 .5-.4 1-.1 1.1 2 .3 1.8-.8 2.4-2.5.7-2.5-.5 0-1 .4-1 1zM132.4 44.5c-2.7 2.5-2.7 2.5-.4 1.3 1.4-.7 2.8-1.2 3.3-1.3.4 0 .7-.4.8-.8.2-1.9-1-1.7-3.7.8zM106.2 49.2c-6.5 14-9.1 33.1-5.2 38.1 1.1 1.4 2 2.7 2 3 0 .3-1.7.8-3.7 1.2-2.1.4-5.9 1.6-8.5 2.7l-4.7 2-4.7-4c-5.7-5.1-11.1-6.2-19.2-3.9l-5.6 1.6-7.2-4c-8.3-4.5-8.9-4.6-7.4-1.9.6 1.1 1.6 1.7 2.2 1.4.6-.4.8-.3.5.3-.9 1.5 1.4 3.1 4 2.8 1.2-.1 2.1.1 1.9.4-.2.3 1.6 1.6 4 2.8 2.7 1.3 4.3 1.7 4.1 1-.1-.7.6-1.1 1.5-1.1 1 .1 1.5-.2 1.2-.7-.3-.5.6-.9 2-.9s2.8-.5 3.1-1c.5-.8 1.1-.8 1.9-.1.7.6 2.3.8 3.7.5l2.4-.6-2.5 1.4c-1.4.8-2.7 1.1-3 .7-.3-.4-1.4-.1-2.4.7-1.8 1.3-1.7 1.4 1.7 1.4 2.3 0 3.7-.5 3.7-1.3 0-.6.5-.4 1.1.6.6 1 .9 2.4.6 3.1-.3.6.2 2.1 1 3.1 1.3 1.8 1.4 1.7.8-2-.4-2.2-.8-4.4-.9-4.9-.2-1.9 2.3-1.6 2.9.3.3 1.1 1.9 2.8 3.5 3.8 1.6.9 2.7 2 2.5 2.3-.6.9 4.1 3 4.9 2.3 1.2-1.3.5-2.2-1.1-1.7-1.6.5-1.6.4 0-.6 1-.7 2.1-1 2.4-.7.2.3 1.3-.3 2.4-1.4 2-2 4.5-1.7 3.3.4-.4.7.3.2 1.5-1.1 1.2-1.2 2.6-2 3.2-1.7.5.4.9.1.9-.4 0-.6.5-1.1 1.2-1.1s.5.7-.5 1.7c-.8 1-1.9 3-2.2 4.6-.4 1.5-1.1 3-1.6 3.3-.5.3-.9 1.4-.9 2.5s-1.1 3.8-2.6 6c-1.4 2.2-2.4 4.8-2.3 5.7.3 2.9-.1 4.2-1.1 4.2-.5 0-.7-.8-.4-1.8.4-1.3.3-1.3-.7.2-.9 1.5-.9 2.1-.1 2.4.7.2 1.2 1.5 1.2 2.8 0 1.8-.6 2.4-2.2 2.5-1.7.1-1.9.2-.5.6.9.2 1.7 1.3 1.7 2.4 0 1.8-.6 2.1-8 3.5-1.4.3-3.3.7-4.4 1.1-1.1.3-1.6.1-1.2-.5.3-.5-.3-1.2-1.4-1.5-1.5-.4-2-.1-1.8 1.1.2 1.3-.6 1.6-4.2 1.5l-4.5-.2 4 1c2.1.5 4.6.7 5.5.3 1.6-.7 2.7-.9 11-1.8l5.5-.6-4.5 1.5c-4.3 1.4-4.3 1.4-.8.9 3.7-.5 6.2 1.1 3.4 2.2-1.2.4-1.3 1.1-.6 2.4.5.9.7 1.9.5 2.2-.3.2-.5 3.2-.6 6.6-.2 6-.3 6.2-2.8 6.3-2 .1-2.2.2-.6.6 3 .7 4.3 2.3 1.9 2.4-1.6 0-1.5.2.6 1 1.6.7 2.1 1.2 1.3 1.7-.9.6-.9 1.4.2 3.5.8 1.5 1 2.5.6 2.3-.5-.3-1.1 1.6-1.4 4.2-.4 2.6-.9 5.7-1.3 6.9-.4 1.4-.2 2.3.5 2.3.6 0 1.1-.8 1.1-1.8 0-.9.9-3.2 2-5 1.7-2.7 1.7-3.2.4-3.2-.8 0-1.2-.5-.9-1 .5-.8 1.2-.7 2.2.1 2.7 2.3-.6 18.9-4.2 20.2-.7.3-2.9.2-4.9-.3-2.1-.4-3.6-.4-3.6.1s1.1.9 2.4.9c1.4 0 2.8.5 3.1 1.1 1 1.6-.4 2.4-1.7 1.1-1.5-1.5-3.8-1.6-3.8-.2 0 .5.9 1 2 1s2 .5 2 1.1c0 .8-1.3.9-3.7.5-2.1-.3-5.5-.9-7.5-1.2-2.4-.4-3.8-.3-3.8.4 0 .6.8 1.1 1.8 1 2 0 10.1 1.1 11.9 1.7.8.3.7 1.7-.6 5.2-3.5 9.2-3.5 9-1.2 6.3 1.1-1.4 2.6-4.4 3.2-6.7.7-2.3 2.5-5.9 4.1-8 7.1-9.7 9.1-18.5 5.9-25.6-2.6-5.6-2.6-5.7-.1-5.7 1.2 0 2.2.9 2.6 2.4.3 1.5 1.8 2.9 3.7 3.6 1.8.7 4.6 1.9 6.4 2.6 1.7.8 3.8 1.4 4.6 1.4.8 0 2 .6 2.6 1.4 1.4 1.7-.7 4.2-4.8 5.8-1.6.6-2.1 1.2-1.3 1.5.7.3 2.2-.3 3.2-1.2 1.4-1.3 2.3-1.4 3.9-.6 1.9 1.1 2.6 5.1.8 5.1-.5 0-.4.7.3 1.5 1.1 1.3 1.5 1.3 2.1.3.7-1 .9-1 .9-.1 0 .7.4 1.3 1 1.3 2.4 0-3.6-15.6-6.3-16.5-.7-.2-4-1.1-7.5-2.1-5.5-1.6-6.5-2.3-7.7-5-1.1-2.6-2-3.3-4.6-3.6-3.3-.3-3.3-.3-3.1-5.3.3-6 1.8-18.3 3.8-31.8 1.5-9.6 3-14.7 4.4-14.7.4 0 1.1-1.5 1.4-3.3.5-2.7 1.9-5.9 7.4-17 .2-.4-.7-.6-2-.5-1.7.2-2.3-.2-2.2-1.5.1-.9-.1-1.7-.5-1.7s-.6-3.7-.5-8.3c.2-8.7 1.9-16.3 5.3-22.8 1.2-2.2 2.1-4.8 2.1-5.9 0-2.8.8-2.5 4.3 1.5 3.7 4.4 5.6 4.6 2.6.2-2.3-3.4-4.8-5.7-6-5.7-.4 0-2.1 2.8-3.7 6.2zM210 46.1c0 .5.5.7 1 .4.6-.3 1-.8 1-1.1 0-.2-.4-.4-1-.4-.5 0-1 .5-1 1.1zM126 46.4c0 .2.7.7 1.6 1 .8.3 1.2.2.9-.4-.6-1-2.5-1.4-2.5-.6zM213 48.1c0 .5.5.9 1.1.9.5 0 .7.4.4 1-.3.5-.1 1 .4 1 .6 0 1.1-.7 1.1-1.5 0-.9.6-1.2 1.8-.8.9.3 1.4.3 1-.1-.9-1.1-5.8-1.5-5.8-.5zM210 49c0 .5.5 1 1.1 1 .5 0 .7-.5.4-1-.3-.6-.8-1-1.1-1-.2 0-.4.4-.4 1zM227.3 54c0 1.6.4 2.7.9 2.4 1.1-.7 1.1-5.4 0-5.4-.5 0-.9 1.3-.9 3zM239.3 55c.2.8 1.6 1.6 3.3 1.7 2.5.1 2.6 0 .4-.4-1.4-.3-2.9-1-3.3-1.7-.6-.7-.7-.6-.4.4zM133.4 60.6c.5 1.8 0 3.7-1.5 6.2-1.2 2.1-2.8 5.5-3.5 7.6-1.3 3.7-1.3 4.2 1.1 8.2 2.8 4.8 10.2 10.8 18 14.6 8.7 4.3 10.3 4.3 18.4-.8 7.4-4.6 9.9-5.2 11.9-3.2 1.7 1.7 1.5 4.7-.3 5.4-.8.4-1.5 1.7-1.5 2.9 0 1.3-.5 3.6-1 5-2.4 6.4 3.2 14.5 13.5 19.1 9 4 12.3 3.6 18.8-2.4 2.9-2.7 6-5.2 7.1-5.5 1.1-.5 1.6-1.3 1.2-2.3-.3-.9-.6-2.2-.6-3 0-3.4-18.5-18.4-22.6-18.4-.7 0-1.6-.5-1.9-1-.3-.6-1.7-1-3.1-1-1.4 0-2.3-.4-1.9-.9.3-.5.1-1.3-.5-1.6-.7-.4-.7-1.2-.2-1.8 1.6-2.3 3.1-6.7 2.3-6.7-1 0-4.8 9-4.3 10.2.9 3-5-1.9-9.1-7.5-8.3-11.1-24.9-22.8-35-24.8-2.7-.5-5.2-.9-5.4-.9-.3 0-.2 1.2.1 2.6zm14.5 3.5c9.1 5.1 21.3 15.7 24 20.8 1.6 2.9.3 5.1-3 5.1-2 0-4.2 1.3-7.6 4.5-2.5 2.5-5.2 4.5-5.8 4.5-3.5 0-17.7-9.1-22.7-14.5-4.3-4.6-4.5-7.1-1.3-13.3 6-11.4 7.6-12 16.4-7.1zM170 91.4c0 .8-8.2 5.7-8.8 5.2-.3-.3-.1-.6.4-.6s2.2-1.1 3.8-2.5c2.6-2.2 4.6-3.2 4.6-2.1zm13 2.7c0 .7.9.9 2.2.5 3.3-.8 15.9 5.8 22.5 11.7 6.5 6 6.5 7.8.1 14.4-6 6.2-8.9 7.1-15.2 4.9-6.3-2.3-11.7-6.1-14.6-10.3-2.1-3.1-2.2-3.6-1-8.1.7-2.6 2.1-6.3 3.1-8.3 1.3-2.7 1.5-3.9.6-4.8-.8-.8-.7-1.1.6-1.1.9 0 1.7.5 1.7 1.1z"/><path d="M148 69.7c.1.8 7.7 6.5 9.5 7.1.6.2.3-.1-.5-.7s-1.5-1.4-1.5-1.8c-.1-.4-.7-1.9-1.4-3.2-1-1.9-1.5-2.1-2.2-1-.6 1-.9 1.1-.9.1 0-.6-.7-1.2-1.5-1.2s-1.5.3-1.5.7zM143.5 75.5c2.8 1.9 5.9 4.2 7.1 5 2 1.5 5.4 1.2 5.4-.5 0-.9-14.3-8-16.1-8-.8 0 .9 1.6 3.6 3.5zM160 77.4c0 .2 1.4 1.8 3 3.4 2.3 2.4 3 2.7 3 1.3 0-.9-1.3-2.5-3-3.4-1.6-1-3-1.6-3-1.3zM155.5 82.1c-.7 1 2.1 3.8 3.8 3.9 1 0 .9-.8-.3-3.1-1.2-2.1-2.5-2.5-3.5-.8zM142 83.9c0 .6.5 1.3 1 1.6.6.3 1-.1 1-.9 0-.9-.4-1.6-1-1.6-.5 0-1 .4-1 .9zM145.1 86.3c.2.1 1.3.9 2.4 1.7 1.9 1.4 1.9 1.4.6-.3-.7-.9-1.8-1.7-2.4-1.7-.6 0-.8.1-.6.3zM160.5 87c-.3.5-.1 1 .4 1 .6 0 1.1-.5 1.1-1 0-.6-.2-1-.4-1-.3 0-.8.4-1.1 1zM156 91c0 .5.4 1 .9 1 .6 0 1.3-.5 1.6-1 .3-.6-.1-1-.9-1-.9 0-1.6.4-1.6 1zM187 98.5c0 .8.4 1.5 1 1.5.5 0 .7-.7.4-1.5-.4-.8-.8-1.5-1-1.5-.2 0-.4.7-.4 1.5z"/><path d="M192 98.9c0 .5 1.4 1.4 3 2.1 1.7.7 3 1.7 3 2.2 0 .5.4.7.8.4.5-.3 1.8.4 3 1.4 1.2 1.1 2.5 2 2.9 2 .5 0 .9.9 1 2 .3 3.3-3.2 1.8-9.8-4.3-4-3.7-5.9-5-5.6-3.7.3 1.1.1 2.3-.4 2.6-.5.3-.9.1-.9-.4s-1.4-.9-3.1-1l-3.1-.1 3.7 2c2.3 1.3 4.7 1.8 6.1 1.5 2.5-.7 3.4.8 1.2 1.7-.7.3.2.8 2 1.2 3.1.7 3.6 1.5 3.3 4.3-.2.9.6.8 2.6-.5l2.8-1.8-2.5 3.1c-1.4 1.7-2.8 3-3.2 2.8-.3-.2-.4.6 0 1.8.4 1.6.2 1.9-.8 1.3-.8-.5-1.1-.4-.7.2.4.6 0 1.6-.8 2.3-1.6 1.4-2 3-.6 3 .4 0 2.5-2.7 4.5-6 4.2-6.9 6.7-8.7 8.6-6.5.7.8 1.8 1.5 2.4 1.5.6 0-.4-1.4-2.2-3-1.7-1.7-3.3-3.3-3.4-3.7-.7-2.3-13.8-10.3-13.8-8.4zm1 5.1c0 .5-.4 1-1 1-.5 0-1-.5-1-1 0-.6.5-1 1-1 .6 0 1 .4 1 1zM179 107c0 .5.5 1 1.1 1 .5 0 .8.4.5.9-.3.5.1 1.1.9 1.4 1.2.5 1.2.2.3-1.8-1.1-2.5-2.8-3.4-2.8-1.5z"/><path d="M185.5 107c.3.5 1.1 1 1.6 1 .6 0 .7-.5.4-1-.3-.6-1.1-1-1.6-1-.6 0-.7.4-.4 1zM197 59.1c0 .5.5.7 1 .4.6-.3 1-.8 1-1.1 0-.2-.4-.4-1-.4-.5 0-1 .5-1 1.1zM226 59c-1.3.8-1.3 1 .2 1 .9 0 2-.5 2.3-1 .8-1.3-.5-1.3-2.5 0zM111.3 63.5c0 1.5.5 2.5 1.4 2.5 1 0 1.3-.6.9-1.6-.3-.9-.6-2-.6-2.5s-.4-.9-.9-.9-.8 1.1-.8 2.5zM229.2 63c0 1.4.2 1.9.5 1.2.2-.6.2-1.8 0-2.5-.3-.6-.5-.1-.5 1.3zM103.7 66.7c-1.3 1.2-.7 6.3.6 6.3.9 0 1.3-1.1 1.2-3-.2-3.3-.8-4.4-1.8-3.3zM221 73.2c0 1.6.5 2.8 1 2.8 1.3 0 1.3-2 0-4-.8-1.2-1-.9-1 1.2zM225 72.5c0 .8.5 1.5 1 1.5.6 0 1-.7 1-1.5s-.4-1.5-1-1.5c-.5 0-1 .7-1 1.5zM6.8 76.3c-1.5.7-3.6 2.2-4.7 3.4-1.9 2.1-1.9 2.1.7 1.9 1.5-.1 3.2-.5 3.9-.9.7-.4 2.2-.2 3.5.5 3.5 2 14.2 12.7 13.5 13.5-.4.3-3.6-2.1-7.1-5.5-3.5-3.4-6.8-6.2-7.3-6.2-.4 0 1.9 2.5 5.2 5.5 5 4.6 5.8 5.6 4.5 6.6-1.3.9-1.2 1 .3.5C21.2 95 24 97 24 98.9c0 .6.6 1.1 1.4 1.1.7 0 1.9.7 2.6 1.5.7.9 1.5 1.3 1.8 1 .3-.3-1-1.9-2.8-3.5-1.8-1.6-3.1-3.3-2.8-3.6.4-.3 4 2.4 8.2 6 4.1 3.7 7.3 6.1 7 5.4-.3-.7-2.3-2.7-4.4-4.3-3.8-2.9-4.9-4.5-3.2-4.5.5 0 2.9 2 5.5 4.5 2.6 2.4 4.7 4.1 4.7 3.6 0-1.5-10.4-10.4-10.8-9.2-.2.6-.8 1.1-1.4 1.1-.5 0-.7-.8-.3-1.9.4-1.3-.2-2.3-1.9-3.5-2.4-1.5-2.5-1.5-1.9.1.5 1.6.4 1.6-1.3-.1-1.5-1.4-1.6-2-.6-2.3 1-.4-.2-2.1-3.4-5.4-2.7-2.7-5.2-4.9-5.7-4.9s.1.9 1.4 1.9c1.3 1.1 2.1 2.2 1.8 2.5-.3.3-1.6-.3-2.9-1.4-1.2-1-3.5-2.5-5.1-3.2-3.9-1.7-3.6-2.3 1.2-2.4 3.8-.1 4.7.4 9.7 5.3 3.1 3.1 5.8 5.1 6.3 4.6s1-2.4 1.2-4.3c.1-1.9.6-3.4 1-3.3.4.2 1.2.3 1.8.3.5 0 .7.4.4 1-.3.6.1.7 1 .4.8-.4 2.2-.1 3 .6 1.4 1.1 1 1.6-2.5 3.7-2.2 1.3-4 2.6-4 2.8 0 .8 4-.8 5.1-2.1 1.6-2 3.1-1.7 5.8 1.1 1.3 1.4 2.6 2.3 3 2 .3-.3.1-.9-.5-1.3-1.6-1.2-4.4-6-3.6-6.5.4-.2.1-.2-.5-.1-.7.2-1.3-.1-1.3-.6s-2.6-1.8-5.7-3c-7-2.6-20.6-3.6-24.5-1.7zm13.8.7c.9 0 1.3.4.9.9-.3.5-.1 1.2.5 1.6.5.3 1 .1 1-.4 0-.6.5-1.1 1.1-1.1.5 0 .7.4.4 1-.3.5 0 1 .9 1 .8 0 1.7-.6 2-1.3.3-.6.2.1-.1 1.8-.4 1.6-.6 3.8-.5 4.7 0 1 0 1.8-.2 1.8-.1 0-2.7-2.5-5.6-5.7-2.9-3.1-4.5-5.3-3.6-5 1 .4 2.4.7 3.2.7zm.9 10c2.5 2.7 1.2 3.7-1.4 1.1-1.2-1.2-2.1-2.3-2.1-2.6 0-1.1 1.8-.4 3.5 1.5zm7.5 8c0 .5-.4 1-1 1-.5 0-1-.5-1-1 0-.6.5-1 1-1 .6 0 1 .4 1 1zM106.7 76.9c.3 1.2.9 2.1 1.4 2.1 1.4 0 1.1-1.6-.5-2.9-1.2-1-1.3-.8-.9.8zM179.4 79.7c-3.1 4.3-3.6 5.3-2.5 5.3 1.3 0 5.3-5.8 4.9-7.1-.2-.5-1.3.2-2.4 1.8zM231 85.5c0 .8.4 1.5 1 1.5.5 0 .7-.7.4-1.5-.4-.8-.8-1.5-1-1.5-.2 0-.4.7-.4 1.5z"/><path d="M33.5 91.5c-2.6 2.2-2.7 2.4-.8 2.2 1.2 0 1.9-.5 1.7-.9-.3-.4.6-1.2 2-1.8 2.8-1 3.4-2 1.4-2-.7.1-2.6 1.2-4.3 2.5zM37 94.8c-2.3 2.2-2.3 2.4-.3 1.3 1.2-.6 2.5-1.6 2.8-2.2 1.3-2 0-1.5-2.5.9zM1.5 94c.3.5.8 1 1.1 1 .2 0 .4-.5.4-1 0-.6-.5-1-1.1-1-.5 0-.7.4-.4 1zM10.7 95.1c.6 2.2 2.3 2.6 2.3.5 0-.8-.6-1.6-1.4-1.9-1-.4-1.2 0-.9 1.4zM66.5 94.9c-.3.2-.5 1.4-.5 2.6 0 1.3-.7 2.8-1.5 3.5-.8.7-1.2 1.6-.9 2.1.6 1 4.4-3.2 4.4-4.9 0-.5.7-1.2 1.5-1.6.8-.3 1.5-.9 1.5-1.4 0-.8-3.8-1.1-4.5-.3zM43.5 96c.3.5.8 1 1.1 1 .2 0 .4-.5.4-1 0-.6-.5-1-1.1-1-.5 0-.7.4-.4 1zM51.5 96c-.3.5-.1 1 .4 1 .6 0 1.1-.5 1.1-1 0-.6-.2-1-.4-1-.3 0-.8.4-1.1 1zM47 97c0 .5.5 1 1.1 1 .5 0 .7-.5.4-1-.3-.6-.8-1-1.1-1-.2 0-.4.4-.4 1zM57.6 97.7c-.6 1.4-.5 1.5.5.6.7-.7 1-1.5.7-1.8-.3-.3-.9.2-1.2 1.2zM15 98.9c-.6 1.2-.7 2.1-.1 2.1 1 0 2.4-3 1.7-3.7-.2-.3-.9.5-1.6 1.6zM40.8 97.7c.7.3 1.6.2 1.9-.1.4-.3-.2-.6-1.3-.5-1.1 0-1.4.3-.6.6zM7.6 99.2c.3.4.9.8 1.5.8.5 0 .9-.4.9-.8 0-.5-.7-.9-1.5-.9s-1.2.4-.9.9zM92.1 98.9c-.8.5-.9 1.1-.3 1.5.5.3 1.2-.1 1.6-.9.6-1.7.6-1.8-1.3-.6zM46.8 99.7c.7.3 1.6.2 1.9-.1.4-.3-.2-.6-1.3-.5-1.1 0-1.4.3-.6.6zM79.4 100.2c.2.7-.4 2.1-1.2 3.1-1.4 1.6-1.4 1.9-.2 2.7 2.1 1.4 2.7 1.2 3.4-.6.5-1.4.4-1.5-.9-.4-.8.7-1.5.8-1.5.2 0-.5.7-1.5 1.5-2.2.8-.7 1.5-2 1.5-2.9 0-1.3-.2-1.3-.9-.2-.6.9-1 1-1.4.2-.3-.7-.4-.7-.3.1zM61.5 101.1c-.4.6-.5 1.2-.2 1.5.2.3.7-.2 1-1.1.7-1.7.1-2-.8-.4zM23.5 102c-.3.5 0 1 .7 1s2.6 1.1 4.1 2.5c1.5 1.4 2.7 2 2.7 1.4 0-2.2-6.5-6.5-7.5-4.9zM43.6 102.5c-.4 1.3-.2 1.4 1.4.5 2.3-1.3 2.6-2 .6-2-.8 0-1.6.7-2 1.5zM15 106.2c-2.2 2.4-4 4.7-4 5.3.1.5 1.1-.2 2.3-1.8 1.8-2.1 2.5-2.5 3.5-1.5s1.2.7 1-1.2c-.2-2 .1-2.5 1.7-2.3 1.1.1 1.4 0 .7-.3-.6-.3-1-1-.6-1.5 1.3-2.2-.9-.6-4.6 3.3zM51.8 103.8c-1.1 1.3-1 1.4.9.4 1.6-.9 2.2-.9 2.5 0 .4 1.2 2.8.3 2.8-1 0-1.4-5-.9-6.2.6z"/><path d="M32.9 105.8c1.1 1.6 4.1 4.7 6.6 6.9 2.5 2.3 4.5 4.4 4.5 4.7 0 1.4-1.9.3-5.3-3.1-2-2-4-3.3-4.3-3-.4.4.4 1.6 1.7 2.7 1.5 1.2 2 2.2 1.4 2.7-1.5 1.1-7.5 9-7.5 9.8 0 .3.5.3 1 0 .6-.3 1-.1 1 .4 0 .6-.7 1.1-1.6 1.1-.8 0-1.2.5-.9 1 1 1.7 3.6-1 3-3-.8-2.4 5.6-9.3 7.8-8.4 1.9.7 2.2 2 .7 2.9-.5.3-1.9 2-3.1 3.8-2.1 2.9-2.1 3-.3 1.4 1.1-.9 2.6-1.7 3.3-1.7.7 0 1-.4.7-.8-.2-.4-.1-1.4.4-2.2.7-1.2 1.6-.8 4.7 2 2 1.9 3.1 2.6 2.3 1.5-.8-1.1-2.4-2.8-3.4-3.8-1.1-.9-1.6-2-1.3-2.4.4-.3 1.8.4 3.1 1.6 1.6 1.5 2.6 1.9 3.1 1.1.4-.6.4-1.4.1-1.7-.3-.4-.6 0-.6.7s-1.5-.2-3.3-2.1c-1.8-1.9-4.4-4.3-5.8-5.4-1.4-1.1-3.9-3.7-5.5-5.7-3.4-4.4-5.5-5.2-2.5-1zM46.1 105.2c-1.4 2.3-1.4 2.3.8.4 2.2-2 2.5-2.6 1.3-2.6-.4 0-1.3 1-2.1 2.2zM71 104.4c0 .8-.6 1.6-1.2 1.9-.7.3-.3.4 1 .4 1.4-.1 2.2-.8 2.2-1.9 0-1-.4-1.8-1-1.8-.5 0-1 .6-1 1.4zM83.5 104c.3.5.8 1 1.1 1 .2 0 .4-.5.4-1 0-.6-.5-1-1.1-1-.5 0-.7.4-.4 1zM140.6 103.9c-.4.5-3.1 1.7-6.1 2.6-3 1-6 2.3-6.5 3.1-.9 1-.2 1 3.3-.1 2.5-.7 5.9-2.1 7.5-2.9 1.7-.9 3.8-1.6 4.7-1.6.9 0 1.3-.5 1-1-.8-1.2-3.2-1.3-3.9-.1zM162 104c0 .5.7.7 1.5.4.8-.4 1.5-.8 1.5-1 0-.2-.7-.4-1.5-.4s-1.5.4-1.5 1zM58.5 105c-.3.5-.1 1 .4 1 .6 0 1.1-.5 1.1-1 0-.6-.2-1-.4-1-.3 0-.8.4-1.1 1zM1.4 106.9c1.8 2 1.3 4.7-.6 3.5-.5-.4-.4.4.3 1.7l1.4 2.4.3-2.3c.2-1.2.5-2.2.8-2.2.2 0 3.6 3.3 7.5 7.2 3.9 4 6.9 6.8 6.7 6.2C17.4 121.9 1.5 105 .5 105c-.5 0 0 .9.9 1.9zM21.6 106.9c-1.6 1.7-1.5 1.8.6 1.6 1.3-.1 2.9-.3 3.6-.4.6 0 1.2-.6 1.2-1.3 0-.6-.3-.8-.7-.5-.3.4-1.2.2-1.8-.3-.8-.7-1.7-.4-2.9.9z"/><path d="M48.8 105.7c-.2.5-1.6 1.9-3.2 3.3l-2.8 2.5.7-2.5c.7-2.3.7-2.3-1-.6-1.5 1.5-1.6 1.9-.4 2.7.8.5 2 .7 2.8.4.8-.3 1.1 0 .8.9-.4 1-.1 1.3.9.9 1.6-.6 1.9-2.3.4-2.3-.5 0-1-.5-1-1.1 0-.6.8-.9 1.8-.7 1.2.4 1.7-.2 1.8-1.9.2-2.3-.1-3-.8-1.6zM8 106.5c0 .7 3 1.3 3.4.7.3-.4-.4-.9-1.5-.9-1-.1-1.9 0-1.9.2zM85.8 107.7c.7.3 1.6.2 1.9-.1.4-.3-.2-.6-1.3-.5-1.1 0-1.4.3-.6.6zM145.5 109.1c-1 3-.2 3.2 1.2.3.6-1.3.7-2.4.3-2.4-.5 0-1.2.9-1.5 2.1zM62 109.1c0 .5-.3.8-.7.6-.5-.3-.9 1-1 2.9-.2 1.9.2 3.4.8 3.4.6 0 .8-.9.4-2.1-.5-1.5-.4-1.9.4-1.5.6.4 1.1.3 1.1-.3 0-.5.3-1.6.6-2.5.3-.9.1-1.6-.5-1.6s-1.1.5-1.1 1.1zM26 109.4c0 .2.7.6 1.5 1 .8.3 1.5.1 1.5-.4 0-.6-.7-1-1.5-1s-1.5.2-1.5.4zM73.5 110c-.3.5-.1 1 .4 1 .6 0 1.1-.5 1.1-1 0-.6-.2-1-.4-1-.3 0-.8.4-1.1 1zM79 110.9c-1.6 3.1.3 6.1 3.2 5.3 2.1-.6 2.2-.6.3-1-3.1-.6-4-1.9-2.5-3.7.7-.8 1-1.8.7-2.1-.3-.3-1 .4-1.7 1.5zM50.9 111.7c-1.3 1.6-1.2 1.7.4.4.9-.7 1.7-1.5 1.7-1.7 0-.8-.8-.3-2.1 1.3zM53.7 112c-.9 1.1-1.2 2-.7 2 .6 0 .8 2.1.5 5-.6 5.3-.2 5.9 2.1 3.5.9-.8 1.1-1.5.5-1.5-.7 0-.9-1.9-.6-5.5.2-3 .3-5.5.2-5.5-.1 0-1 .9-2 2zM14.6 112.3c.3 1 .9 1.5 1.2 1.2.3-.3 0-1.1-.7-1.8-1-.9-1.1-.8-.5.6zM21.8 111.7c.7.3 1.6.2 1.9-.1.4-.3-.2-.6-1.3-.5-1.1 0-1.4.3-.6.6zM67.4 112.5c-.4.8-1.2 1.5-2 1.5s-1.4.7-1.4 1.5c0 1.3.4 1.4 2 .5 2.4-1.3 4.6-5 3-5-.6 0-1.3.7-1.6 1.5zM82.5 112c.3.5 1.3 1 2.1 1s1.2-.5.9-1c-.3-.6-1.3-1-2.1-1s-1.2.4-.9 1zM29.3 112.7c-1.8.7-1.6 2.3.2 2.3.8 0 1.5-.7 1.5-1.5s-.1-1.5-.2-1.4c-.2 0-.9.3-1.5.6zM71.5 113.1c-.4.6-.5 1.2-.2 1.5.2.3.7-.2 1-1.1.7-1.7.1-2-.8-.4zM74.6 112.9c-.3.5.1 1.1.9 1.4.9.4 1.2.1.8-.9-.6-1.6-1-1.7-1.7-.5zM147.6 112.7c-1.2 1.2-.6 2.3 1.3 2.3 1 0 2.4.7 3.1 1.5 1.5 1.8 3.1 2 2.4.2-.6-1.7-5.9-4.8-6.8-4zM4 113.8c0 .4 3.1 4.1 7 8.2 3.8 4.1 7 7.8 7 8.2 0 .5.6.8 1.4.8.8 0 1.7.6 1.9 1.2.4 1 .6 1 .6 0 .1-.7-.6-1.5-1.4-1.8-.8-.4-1.5-.9-1.5-1.3s-3.4-4.2-7.5-8.4-7.5-7.3-7.5-6.9zM20.2 116.7c-2.1 7.2-2.2 8.7-.5 10.5.9 1 2.3 1.8 3.1 1.8 1 0 .7-.6-.8-1.8-2-1.6-2.2-2.2-1.2-5.3 1.8-6 2.3-8.9 1.4-8.9-.5 0-1.4 1.7-2 3.7zM47 114.9c0 .5.5 1.3 1 1.6.6.3 1 .2 1-.4 0-.5-.4-1.3-1-1.6-.5-.3-1-.2-1 .4zM172.4 120.1c-.5 3.5-.6 8-.3 9.9l.6 3.5.3-3.5c.4-5.3.7-7.5 1.3-10.1.3-1.3.2-3.3-.2-4.3-.5-1.3-1 .1-1.7 4.5zM.8 116.6c.6 1.2 2.4 2.9 3.9 3.9s3.7 3 4.8 4.4c1.1 1.4 3.2 3.9 4.7 5.4 3 3 3.3 3.7 1.9 3.7-.8 0-5.1-4.2-9.1-8.9-1.1-1.3-2-2-2-1.4 0 1.1 10.8 13.4 13 14.7.8.5 4.3 3.7 7.8 7s6 5.2 5.6 4.3c-.8-2.3.2-2.1 2.8.3 1.2 1.1 2.7 2 3.2 2 .6 0-.8-1.7-3.2-3.8-2.3-2-4.2-4.1-4.2-4.6 0-.6-1.9-2.7-4.2-4.8-3.6-3.2-4.3-3.5-5.3-2.2-1 1.4-1.2 1.4-2.4 0-1.1-1.4-1.1-1.6.3-1.6.9 0 1.6-.2 1.6-.4 0-.6-16.1-17-18.4-18.7-1.8-1.3-1.8-1.3-.8.7zm25.8 25c4.3 4.5 5.4 6.4 3.4 6.4-.5 0-1-.4-1-.8 0-.5-1.8-2.6-4-4.8-3.7-3.7-4.8-5.4-3.4-5.4.4 0 2.6 2.1 5 4.6zM13 115.4c0 .2.8 1 1.8 1.7 1.5 1.3 1.6 1.2.3-.4s-2.1-2.1-2.1-1.3z"/><path d="M70.6 118.2c-1.4 1.8-2.8 2.9-3.2 2.5-.4-.4.1-1.7 1.2-2.9l1.9-2.3-2.5 2c-1.4 1.1-2.9 2.6-3.3 3.3-1.2 1.9-2.6.5-1.9-2 .3-1.2.1-1.9-.4-1.5-.6.3-1.1 2.2-1.2 4.2-.2 2.5.1 3.4.8 3 .7-.4 2 .2 3.1 1.4l2 2.2 1.9-2.3c1.5-1.9 2-2 3.4-.9.9.7 1.6 2.1 1.6 3 0 1.3.2 1.4.9.2.6-1 .3-2-1.2-3.2l-2.2-1.7 2.3-3.2c1.3-1.7 2.1-3.4 1.8-3.7-.3-.4-.6-.1-.6.5 0 .7-.5 1.2-1.1 1.2-.6 0-.9-.7-.5-1.5.9-2.3 0-1.8-2.8 1.7zm2.4.7c0 .6-1.3 2.5-3 4.3-2.8 3-3.1 3.1-4.6 1.6-1.6-1.6-1.2-3.8.8-3.8.5 0 .7.8.4 1.7-.3 1 .6.4 2.1-1.4 2.9-3.2 4.3-4 4.3-2.4zM26.6 117.5c-1.6 1.2-1.7 1.8-.8 2.7.9.9 1.2.8 1.2-.5 0-.9.7-1.7 1.5-1.7s1.5-.5 1.5-1c0-1.4-1.1-1.2-3.4.5zM33 117.5c-.7.9-1 1.8-.7 2.1.3.3 1-.4 1.7-1.5 1.3-2.5.8-2.7-1-.6zM85 117c-1.3.8-1.2 1 .3 1 .9 0 1.7-.5 1.7-1 0-1.2-.1-1.2-2 0zM101 117.7c0 3.4 1.7 4.6 1.8 1.4 0-1.7-.4-3.1-.9-3.1s-.9.8-.9 1.7zM95.6 123.5c-.7 6.4.4 14.4 3.8 26.7 2.9 10.5 5.3 15.6 7.4 16.2 5.2 1.5 9.5 1.6 16.1.2 4.2-.9 9.2-1.3 11.7-.9 4.8.6 6.3-1.1 1.7-2-3.8-.7-6.4-1.4-8.8-2.3-1.8-.7-1.9-.6-.6.9.8 1 1.1 2 .8 2.3-.3.4-5 .7-10.4.8l-9.7.1-2.2-4.2c-5-9.3-8.8-26.3-8.6-37.6.1-3.1 0-5.7-.2-5.7s-.6 2.5-1 5.5zM35 123.2c-1.2 2.2-1.2 2.2.6.6 1-1 1.5-2 1.2-2.4-.4-.3-1.2.5-1.8 1.8zM126 121.8c0 1.6 3.7 4.3 7.3 5.3 1.9.5 5.4 2.8 7.8 5 2.4 2.2 6.4 5.1 8.9 6.4 2.5 1.3 5.6 3.2 6.9 4.4 2.4 2.1 5.1 2.8 5.1 1.3 0-1-9.2-7.2-10.8-7.2-.6 0-1.2-.5-1.2-1 0-.6-.6-1-1.3-1-1.8 0-8.8-6-8.2-7 .3-.5-1.9-1.6-4.9-2.4-2.9-.9-5.9-2.3-6.6-3.1-1.4-1.6-3-2-3-.7zM25 124c0 .5.5 1 1 1 .6 0 1-.5 1-1 0-.6-.4-1-1-1-.5 0-1 .4-1 1zM81.5 125.2c-1.1 1.5-1.9 1.9-2.2 1-.6-1.6-2.3-1.5-2.3.2s2.6 2.4 6.5 1.6l3-.6-2.5-.7c-2-.6-2.2-.9-1-1.6.8-.6 1.2-1.3.8-1.6-.3-.4-1.4.4-2.3 1.7zM43.5 125c-.3.5-.1 1 .4 1 .6 0 1.1-.5 1.1-1 0-.6-.2-1-.4-1-.3 0-.8.4-1.1 1zM164 125.4c0 .9.8 1.2 2.5.8 1.4-.2 2.5-.8 2.5-1.3s-1.1-.9-2.5-.9-2.5.6-2.5 1.4zM39.5 126.1c-.4.6-.5 1.2-.2 1.5.2.3.7-.2 1-1.1.7-1.7.1-2-.8-.4zM52.6 127.6c-.3.9-.2 2.3.4 3.2.8 1.4.9 1.2 1-1 0-1.7.6-2.8 1.8-3.1 1.3-.4 1.2-.5-.4-.6-1.2 0-2.5.6-2.8 1.5zM60.4 127.7c.3 1.8-.1 2.3-1.7 2.4-1.5 0-1.7.2-.7.6.8.4 2 1.3 2.7 2.2.6.9 1.5 1.3 1.9.8.4-.4.2-.7-.4-.7-1.8 0-1.4-2.8.6-3.9 1.5-.9 1.5-1 0-1.1-.9 0-1.9-.6-2.2-1.3-.4-.6-.4-.2-.2 1zM157.8 126.7c.7.3 1.6.2 1.9-.1.4-.3-.2-.6-1.3-.5-1.1 0-1.4.3-.6.6zM49.1 129.6c0 1.1.3 1.4.6.6.3-.7.2-1.6-.1-1.9-.3-.4-.6.2-.5 1.3z"/><path d="M67 129c-1.1.7-.6 1 2 1s3.1-.3 2-1c-.8-.5-1.7-1-2-1-.3 0-1.2.5-2 1zM153 129.1c0 .5.5.7 1 .4.6-.3 1-.8 1-1.1 0-.2-.4-.4-1-.4-.5 0-1 .5-1 1.1zM191 129.1c0 .5-.6.7-1.2.3-.7-.4-1-.4-.7 0 .4.4-.5 1.9-2 3.5-1.4 1.5-3.7 4.2-5.1 6-3.5 4.7-6.9 7.9-11.3 10.8-4.5 2.8-4.4 4.2.1 1.9 2.7-1.4 21.2-20.5 22-22.7.2-.5-.1-.9-.7-.9s-1.1.5-1.1 1.1zM43 129.9c0 .5.5 1.3 1 1.6.6.3 1 .2 1-.4 0-.5-.4-1.3-1-1.6-.5-.3-1-.2-1 .4zM81.8 129.7c-1 .2-1.8.9-1.8 1.4 0 .6.5.7 1.2.3.7-.4 2.8-1.1 4.8-1.5 3.3-.6 3.3-.7.5-.7-1.6 0-3.8.2-4.7.5zM32.2 131.2c-1.9 1.9-1.4 2.8 1.6 2.8 1.5 0 2.2-.4 1.6-.8-.6-.4-1.3-1.3-1.5-2-.3-1-.7-1-1.7 0zM7 131.7c0 .9 4 3.6 4.5 3.1.2-.2-.8-1.1-2.1-2.1s-2.4-1.4-2.4-1zM27 133.5c.7.9 1.5 1.3 1.7 1.1.7-.7-.7-2.6-1.9-2.6-.6 0-.6.6.2 1.5zM40.7 132.6c-.6 1 .9 4.2 1.6 3.4.3-.3.1-1.4-.3-2.4-.3-1.1-.9-1.5-1.3-1zM52.4 133.5c2.2 1.7 4 2 3.2.6-.3-.5-1.6-1.1-2.8-1.4-2.2-.6-2.2-.5-.4.8zM68.8 132.7c.6.2 1.8.2 2.5 0 .6-.3.1-.5-1.3-.5-1.4 0-1.9.2-1.2.5zM23 134c0 .5.5 1 1 1 .6 0 2 1.1 3.1 2.4 1.9 2.2 5.7 2.6 4.4.5-.3-.4-1.2-.6-1.9-.3s-1.6-.2-1.9-1c-.7-1.9-4.7-4.1-4.7-2.6zM48 134.5c-.8.9-.8 1.5-.2 1.5 1.2 0 2.6-1.9 1.9-2.6-.2-.2-1 .2-1.7 1.1zM6.5 136c-.3.5-.2 1 .4 1 .5 0 1.1 1 1.4 2.2.3 2 .5 2.1 1.1.6.9-2-1.8-5.5-2.9-3.8zM38 135.9c0 .6.4 1.3 1 1.6.6.3.7-.1.4-.9-.7-1.8-1.4-2.1-1.4-.7zM79 136c-1.3.8-1.2 1 .3 1 .9 0 1.7-.5 1.7-1 0-1.2-.1-1.2-2 0zM50.9 136.7c-.1.5-.1 1.2 0 1.7s-1.5 2.7-3.6 4.9c-3.4 3.7-3.5 3.8-.6 1.5 1.8-1.4 3.7-2.8 4.3-3 1.3-.4 2.1-5.8.9-5.8-.5 0-1 .3-1 .7zM63.5 137c1.1.5 2.9.9 4 .9 2 0 2 0 0-.9-1.1-.5-2.9-.9-4-.9-2 0-2 0 0 .9zM74 137l-2.5.8 2.8.1c1.5.1 2.7-.4 2.7-.9 0-.6-.1-1-.2-.9-.2.1-1.4.5-2.8.9zM122.5 137c-.3.5-.1 1 .4 1 .6 0 1.1-.5 1.1-1 0-.6-.2-1-.4-1-.3 0-.8.4-1.1 1zM10.8 141.4c-1.7 2.5-3.5 4.6-4 4.6-.4 0-.8.6-.8 1.2.1.7 2.1-1 4.6-3.7 4.2-4.7 4.4-4.8 2.8-1.5-2.1 4.1-2.4 9.2-.7 9.7.9.3 1.1-.4.7-2.4-.4-2 .1-4 1.5-6.5 1.9-3.1 1.9-3.7.7-4.8-1.3-1-2.1-.4-4.8 3.4zM43 138c0 .5.7 1 1.5 1s1.5-.5 1.5-1c0-.6-.7-1-1.5-1s-1.5.4-1.5 1zM59.3 138.4c.1 1.1.9 2.1 1.7 2.3 1 .3 1.1.2.4-.4-.6-.4-1.4-1.5-1.7-2.3-.5-1.1-.6-.9-.4.4zM82.1 139.6c0 1.1.3 1.4.6.6.3-.7.2-1.6-.1-1.9-.3-.4-.6.2-.5 1.3zM171.1 139.6c0 1.1.3 1.4.6.6.3-.7.2-1.6-.1-1.9-.3-.4-.6.2-.5 1.3zM1.6 140.3c.3 1 .9 1.5 1.2 1.2.3-.3 0-1.1-.7-1.8-1-.9-1.1-.8-.5.6zM54.8 139.6c-.7.7.2 4.4 1.1 4.4.3 0 .7-1.1.7-2.5.2-2.4-.6-3.2-1.8-1.9zM78.3 142.5c0 2.2.2 3 .4 1.7.2-1.2.2-3 0-4-.3-.9-.5.1-.4 2.3zM42 141.1c0 .5-.4.7-1 .4-.5-.3-1-.2-1 .4 0 .5.5 1.3 1 1.6.6.3 1 .1 1-.5 0-.7.7-.9 1.6-.6 1.4.5 1.5.4.4-.9-1.5-1.8-2-1.9-2-.4zM71 141.2c0 .9-.6 1.9-1.2 2.1-.8.3-.6.6.5.6 1.9.1 2.4 2.1.5 2.1-.6 0-.9.2-.6.5.8.9 3.8-.6 3.8-1.9 0-.7-.7-2.1-1.5-3.2-1.2-1.6-1.4-1.7-1.5-.2zM5.1 141.9c-.7.5-.9 1.1-.4 1.4.5.3 1.5.2 2.2-.2.7-.5.9-1.1.4-1.4-.5-.3-1.5-.2-2.2.2zM34.5 143.4c0 1.3 1.7 4 3.9 6.2 2.8 2.8 3.5 3.2 2.6 1.5-.7-1.3-2.4-3.4-3.9-4.7-1.9-1.7-2.2-2.3-1-2.4 1.7 0 5.9 4 5.9 5.6 0 1.8 5.9 6.7 9.7 8 5 1.7 5.4 1.1.6-.9-4.8-2.1-7.3-4.2-10.2-9-1.2-2.1-3.5-4.4-5-5.1-2.5-1.4-2.7-1.3-2.6.8zM139 142c.8.5 2.2 1 3 1 1.3 0 1.3-.1 0-1-.8-.5-2.2-1-3-1-1.3 0-1.3.1 0 1zM59.7 144.3c-1 1-1.7 2-1.5 2.3.8.7 4.1-2.2 3.7-3.2-.2-.6-1.2-.1-2.2.9zM.1 144.6c0 1.1.3 1.4.6.6.3-.7.2-1.6-.1-1.9-.3-.4-.6.2-.5 1.3zM17.5 147.2c-1 2.4-2.1 5.6-2.6 7.3l-.9 3 2-2.5c1.1-1.4 2-3.4 2-4.5s.7-3.2 1.4-4.8c.8-1.5 1.1-2.7.6-2.7-.4 0-1.6 1.9-2.5 4.2zM133.6 144.1c.8 1.4 4.4 1.7 4.4.4 0-.7-1-1.2-2.4-1.1-1.3 0-2.2.4-2 .7zM48.5 145c-.8 1.3.5 1.3 2.5 0 1.3-.8 1.3-1-.2-1-.9 0-2 .4-2.3 1zM82 144.9c0 .6.4 1.3 1 1.6.6.3.7-.1.4-.9-.7-1.8-1.4-2.1-1.4-.7zM109.7 144.6c-.3.4 0 1.8.8 3.3 1.7 3.3 8.3 9.7 9.1 8.8.9-.8-.5-2.7-2.1-2.7-1.1 0-5.8-6.4-5.9-8.2-.1-1.1-1.2-1.8-1.9-1.2zM140.5 145c-.3.5-.2 1 .4 1 .5 0 1.3-.5 1.6-1 .3-.6.2-1-.4-1-.5 0-1.3.4-1.6 1zM169.5 146c-.3.5-.1 1 .4 1 .6 0 1.1-.5 1.1-1 0-.6-.2-1-.4-1-.3 0-.8.4-1.1 1zM2.5 147.1c-.4.6-.5 1.2-.2 1.5.2.3.7-.2 1-1.1.7-1.7.1-2-.8-.4z"/><path d="M8.4 148.7c-1 1.5-2.3 3.1-2.9 3.5-.7.5-.7.8.1.8 1.2 0 5.8-5.9 5.1-6.7-.3-.2-1.4.8-2.3 2.4zM21.9 149.7c-1.3 2.1-2.7 4.4-3.2 5-.4.7-.6 1.3-.4 1.3.8 0 6.9-9.1 6.4-9.6-.2-.3-1.5 1.2-2.8 3.3zM0 148.4c0 .8.4 1.7.9 2 .5.4.7-.3.4-1.4-.6-2.3-1.3-2.6-1.3-.6zM48.4 149.2c-1 1.3-1.5 2-1.1 1.6.5-.3 2.2-.2 3.8.2 1.8.5 2.7.5 2.4-.1-.4-.5-1.4-.9-2.3-.9-1.2 0-1.3-.3-.4-1.2.9-.9 1.5-.9 2.4 0 .7.7 1.7 1.2 2.3 1.2 1.4-.1-2.6-3-4-3-.7 0-2 1-3.1 2.2zM67.6 148.5c2.5 1.9 3.9 1.9 5.5-.2 1.3-1.5 1.2-1.5-1-.4-1.7.9-2.6 1-3.4.2-.6-.6-1.5-1.1-2.1-1.1-.5 0-.1.7 1 1.5zM75.3 150.5c0 2.2.2 3 .4 1.7.2-1.2.2-3 0-4-.3-.9-.5.1-.4 2.3zM77.1 150.7c.2 3.1.3 3.3.6 1 .2-1.5.9-2.5 1.4-2.2.5.4.9-.1.9-.9 0-.9-.7-1.6-1.5-1.6-1.1 0-1.5 1-1.4 3.7zM58.4 149.5c2.4 1.8 3.9 2 3.4.2-.3-.6-1.5-1.3-2.9-1.5-2.3-.2-2.3-.2-.5 1.3zM27 152.1c.7 1.1 1.4 1.9 1.6 1.6.7-.7-.7-3.7-1.7-3.7-.6 0-.5.9.1 2.1zM81.3 151.5c-.3.9-.3 1.9.1 2.2.3.4.6-.1.6-1.1 0-.9.5-1.4 1-1.1.6.3 1 .1 1-.4 0-1.7-2-1.3-2.7.4zM71.2 153c-.8 1.3-.8 2-.2 2 .6 0 1.3-.7 1.7-1.5.9-2.4-.1-2.7-1.5-.5zM33 153c0 .5.5 1 1.1 1 .7 0 2.2 1.2 3.5 2.7 1.3 1.6 2.4 2.3 2.4 1.7 0-.5-.5-1.5-1.2-2.2-.6-.6-.8-1.5-.4-1.9.4-.4 1.2-.1 1.7.7.9 1.3 1 1.3.6 0-.2-.8-1.2-1.4-2.3-1.3-1 .1-2.6-.3-3.6-.8-1.2-.6-1.8-.6-1.8.1zM49 153.1c0 .5.8.9 1.8.9s3.6 1.3 5.8 3c2.1 1.6 4.3 3 4.7 3 .5 0-1.1-1.5-3.5-3.3-4.5-3.5-8.8-5.2-8.8-3.6zM9.7 153.8c1 .7 1 1.2-.1 2.7-1.4 1.9-1.5 1.9-3.3.2-2.5-2.2-3.3-2.2-3.2 0 0 1 .3 1.3.6.6.3-.9 1.1-.7 2.6.7 2.8 2.6 3.4 2.5 5.1-.9 1.4-2.6 1.4-3 0-3.5-2.2-.8-3.1-.7-1.7.2zM155.6 154.5c.4.8 1 1.5 1.5 1.5.4 0 .6-.7.3-1.5-.4-.8-1-1.5-1.5-1.5-.4 0-.6.7-.3 1.5zM30.1 154.9c-.7.5-1 1.4-.6 2 .4.7.1 1.8-.5 2.6-1 1.2-.9 1.5.4 1.5.9 0 1.6-.7 1.6-1.5 0-.7.8-1.9 1.8-2.4 1.6-1 1.6-1-.1-1.1-1 0-1.5-.5-1.2-1 .8-1.2.4-1.2-1.4-.1zM43.8 157c.9 1.6 2.3 3 3 3 .9 0 .6-1-1-2.9-3-3.9-4.2-3.9-2-.1zM163.5 156.6c-1.6 1.3-4.3 2.9-5.8 3.5-2.8 1.2-2.9 1.4-2.2 6.3.3 2.8 1.2 5.7 1.8 6.5.8 1 .9 1.5.1 1.8-1.3.4-.2 9.9 1.4 11.5 1.4 1.4 1.9 1 2.4-1.7.2-1.2-.2-1.9-.9-1.8-1.7.4-1.8-10.4-.1-10.9.6-.2.8-1 .4-1.6-1-1.7-2.6-1.5-2 .3.4.8.1 1.5-.6 1.5-.6 0-1-1.1-.8-2.8.2-1.9.8-2.7 2.1-2.6 2.5.2 2.1-1.4-.5-1.9l-2.3-.4 2.3-.8c1.2-.4 2.2-1.4 2.2-2.1 0-.8.9-1.4 2.1-1.4 1.1 0 1.8-.3 1.6-.8-.3-.4.1-1.2.8-1.9 1-1 1.4-.9 1.9.2.3.8.1 1.5-.3 1.5-1.5 0-2.2 3.3-1.1 4.4.8.8.9.6.5-.5-.4-1-.1-2 .6-2.5.7-.4 1-.3.5.4-.3.6-.2 1.3.4 1.7.6.3 1-.4 1-1.7.1-2.1.2-2.2 1.4-.6.7 1 1.9 1.8 2.7 1.8 1.1 0 1.1.2.2.8-1 .6-.9 1.3.3 3 1.3 1.8 1.9 2.1 3 1.1 1.1-.9 1.4-.8 1.4.5 0 .9-.4 1.6-1 1.6-.5 0-.6.8-.3 1.7.4 1.1.8 1.2 1.1.5.4-1.4 3.2-1.6 3.2-.2 0 .5.9 1 2.1 1 1.1 0 2.7.7 3.5 1.5 1.4 1.3 1.2 1.5-1.8 1.6-2.6.1-2.8.3-.8.6 1.4.2 3.6.6 4.9.9 2.3.5 2.3.6.5 2-1.8 1.5-1.8 1.5.3 1.1 1.3-.3 2.4.1 2.7.9.3.8 1.2 1.1 2.3.7 1.5-.5 1.6-.3.6.8-.7.7-1.3 1.7-1.3 2.2 0 .5.6.5 1.3-.1 1.9-1.6 5.2 1.7 5.5 5.7.4 5.1-.6 7.1-3.6 7.2-2.4.1-2.3.3.8.9l3.5.7-4 .3c-3.3.3-3.5.4-1.2.7 2 .3 2.7.9 2.5 2.1-.3 1.4-2 1.8-9.8 2.3l-9.5.5 9.3.2c5 .1 9.2.4 9.2.7 0 1.6-3.4 8.5-4.2 8.5-.5 0-.6.5-.3 1.1.4.5 0 1.8-.8 2.7-.8.9-1.8 2.8-2.2 4-.5 1.7-1.2 2.2-2.6 1.9-2.3-.6-2.6.8-.3 1.7 2.6 1 3.2.7 3.8-2 .4-1.5 1-2.4 1.3-2.1.3.3.2 1.8-.1 3.2-.5 1.9-1.3 2.6-2.9 2.5-3.5-.3-4.4-.1-4.4 1.2 0 .7-.4 2.1-.8 3.1-.7 1.7-.6 1.8 1.4.6 1.2-.8 1.9-2 1.6-2.6-.3-.9.7-1.3 3-1.3 4.6 0 4.7 2.5.3 4.6-3.2 1.5-1.1 1.4 2.5-.1.9-.4 1.7-.3 1.7.3 0 .5-2.4 1.9-5.2 3-2.9 1.1-4.5 2.1-3.5 2.1 1 .1 3.6-.8 5.8-2 2.8-1.4 4-1.6 3.7-.7-.5 1.5-7.9 4.5-15.2 6.3-2.8.6-5.1 1.6-5.3 2.2-.4 1.2 6.2-.6 15-4.2 5.9-2.4 7.4-2 3.5.9l-2.3 1.7 2.3-.5c1.2-.2 2.2.1 2.3.7 0 .7.5-.1.9-1.6 1-3.2.9-3.6-2.9-13-.6-1.5-.7-2.7-.1-2.7.5 0 .6-1.6.3-3.6-.4-2.4-.2-3.9.7-4.4.8-.5 1.5-1.5 1.6-2.4.3-2.3 3.6-10.9 4.7-12.4.6-.8.5-1.2-.3-1.2-.9 0-.9-.4-.2-1.3 1.2-1.4 1.2-1.5 1.2-6.2 0-4.4 1.4-4.5 2.9-.3.9 2.4.8 3.4-.1 4-.8.5-.9.8-.2.8 1.8 0 1.1 3.8-1.1 5.4-2 1.5-2 1.5.2.9 2.1-.5 2.2-.4 1.2 2.6-.6 1.7-1.6 2.9-2.2 2.8-.7-.1-1.2.6-1.2 1.6s-.7 2.2-1.5 2.7-1.2 1-.7 1c.4 0 0 1.1-.9 2.5s-1.9 2.3-2.3 2.1c-.4-.3-.8.4-.8 1.5-.3 3.6 1 2.4 7-6.6 4.2-6.3 6.2-13.2 5.3-18.7-.7-4.4-4.1-10.8-5.7-10.8-.5 0-5.3-4.3-10.6-9.5-5.4-5.2-10.1-9.5-10.6-9.5-.4 0-2.9-1.9-5.5-4.3-9.1-8.2-8.3-7.8-11.7-5.1zm19 12.4c.3.6-.1.7-.9.4-1.8-.7-2.1-1.4-.7-1.4.6 0 1.3.4 1.6 1zM26.6 156.5c.4.8.8 1.5 1 1.5.2 0 .4-.7.4-1.5s-.4-1.5-1-1.5c-.5 0-.7.7-.4 1.5zM76.5 156c-2.8.7-2.7.8 1.3.9 2.3 0 4.2-.4 4.2-.9 0-1.1-1.1-1.1-5.5 0zM66 156.4c0 .8 6.1 1.2 6.6.4.3-.4-1.1-.8-3-.8-2 0-3.6.2-3.6.4zM41.9 158.7c.5 1 2.1 3 3.4 4.6 2.2 2.4 2.5 2.5 3.1 1 .4-1 .4-1.5.1-1.1-.9.9-5.5-3.2-5.5-4.9 0-.7-.5-1.3-1-1.3-.7 0-.7.6-.1 1.7zM61 157.4c0 .2.7.7 1.6 1 .8.3 1.2.2.9-.4-.6-1-2.5-1.4-2.5-.6zM16.5 159c.3.5.1 1-.4 1-.6 0-1.1.5-1.1 1 0 .6.8.5 1.9-.2 1.9-1.2 1.9-2.8 0-2.8-.6 0-.7.4-.4 1zM33.4 160.2l-1.9 2.3 2.3-1.9c2.1-1.8 2.7-2.6 1.9-2.6-.2 0-1.2 1-2.3 2.2zM71.5 159.1c-4.9.6-4.9.6 1.8.7 6.5.2 8.5-.2 5-.9-1-.3-4-.1-6.8.2zM81.1 160.2c-.1 2.2.2 2.5 2.2 2 1.7-.5 1.8-.7.5-1-.9-.2-1.9-1.1-2.1-2-.3-1-.5-.6-.6 1zM3.2 160.3c-.7.8-.5 1.7.5 2.6 1.3 1.2 1.4 1.1.8-.7-.5-1.7-.3-2.1.9-1.6.9.3 1.6.4 1.6.1 0-1.2-2.9-1.5-3.8-.4zM49 159.9c0 .6.4 1.3 1 1.6.6.3.7-.1.4-.9-.7-1.8-1.4-2.1-1.4-.7zM123 160c0 .5.5 1 1 1 .6 0 1-.5 1-1 0-.6-.4-1-1-1-.5 0-1 .4-1 1zM36 160.8c0 1.2-6.2 7.3-6.8 6.7-.3-.3.3-1.5 1.4-2.7l1.8-2.3-2.4 2.2c-2 1.8-2.2 2.5-1.2 3.5 1.1 1.1 1.9.6 4.5-2.3 2-2.2 4.1-3.5 5.4-3.4 2 .1 6.4 4.4 7.6 7.5.5 1.3.5 1.3.6 0 .1-2.3-6.6-10.3-7.3-8.8-.5 1-.7 1-1.2 0-.6-1.3-2.4-1.7-2.4-.4zM8 162.1c0 .5.5.7 1 .4.6-.3 1-.8 1-1.1 0-.2-.4-.4-1-.4-.5 0-1 .5-1 1.1zM11.5 162c-.3.5-.1 1 .4 1 .6 0 1.1-.5 1.1-1 0-.6-.2-1-.4-1-.3 0-.8.4-1.1 1zM26 161.7c0 .6-.9.9-2 .6-1.2-.3-2 0-2 .6 0 .7.5.9 1 .6.6-.4 1.8-.1 2.6.6 1.9 1.6 2.9.5 1.5-1.8-.6-1-1.1-1.3-1.1-.6zM59 161.5c0 .6 6.2 3.5 7.4 3.5.6 0 0-.6-1.4-1.3-3.3-1.7-6-2.7-6-2.2zM65.7 162.2c.2.5 3.2.8 6.5.8 3.4 0 5.9-.3 5.5-.6-.8-.9-12.6-1-12-.2zM98.6 162.4c.3.9 1.1 1.6 1.6 1.6 1.3 0 .5-2.3-1-2.8-.7-.2-1 .2-.6 1.2zM.6 163.3c.3 1 .9 1.5 1.2 1.2.3-.3 0-1.1-.7-1.8-1-.9-1.1-.8-.5.6zM13.2 164.5c-1.1 1.2-1 1.5.3 1.5.8 0 1.5-.7 1.5-1.5 0-1.8-.2-1.8-1.8 0zM55.6 164.6c-.8 2.1-.8 4.9.1 4.1.7-.7 1.4-5.7.8-5.7-.1 0-.6.7-.9 1.6zM7.3 164.7c.9.2 2.3.2 3 0 .6-.3-.1-.5-1.8-.5-1.6 0-2.2.2-1.2.5zM78 165c0 .5.7.7 1.5.4 1.2-.5 1.4 0 .8 2.6-.4 2.4-.3 3.1.6 2.6.6-.4.9-1.1.6-1.6-.8-1.4.7-4.2 2-3.6.6.2 1.8 0 2.6-.5.9-.6-.2-.9-3.3-.9-2.7 0-4.8.4-4.8 1z"/><path d="M164 164.7c0 .6.8 1.7 1.8 2.4 1.6 1.3 1.6 1.3.2-.6-.8-1.1-1.6-2.2-1.7-2.4-.2-.2-.3 0-.3.6zM3 165.6c0 .9 4 2.3 4.4 1.5.3-.5-.5-1.1-1.9-1.3-1.4-.3-2.5-.4-2.5-.2zM24.4 166.5c.8.8 1.8 1.5 2.2 1.5.3 0 .1-.7-.6-1.5s-1.7-1.5-2.2-1.5c-.5 0-.3.7.6 1.5zM70.3 165.7c.9.2 2.5.2 3.5 0 .9-.3.1-.5-1.8-.5-1.9 0-2.7.2-1.7.5zM147.6 165.9c-.3.5.2 1.5 1.2 2.2.9.7 1.4.9 1 .5-.4-.5-.3-1.5.3-2.3.9-1 .8-1.3-.4-1.3-.9 0-1.8.4-2.1.9zM0 167c0 .5.5 1 1.1 1 .5 0 .7-.5.4-1-.3-.6-.8-1-1.1-1-.2 0-.4.4-.4 1zM16.8 167.5c1.2 2.3 5 6 5.6 5.4.3-.2.7-1.8 1-3.4.6-2.8.6-2.9-.5-.7l-1.2 2.3-3-2.8c-2.2-2.1-2.7-2.3-1.9-.8zM131.2 175.8c-7.9 8.1-9.3 10.1-9 12.3.3 1.8-.2 3.2-1.4 4-1 .8-1.8 1.9-1.8 2.5 0 .7-.6 1.9-1.3 2.6-2.2 2.2-5 6.8-4.5 7.4.3.3 1.9-1.4 3.6-3.8 1.7-2.4 3.5-4.8 4-5.3.5-.6 2.1-3.1 3.5-5.6 1.5-2.5 3.7-5.5 4.8-6.5 2.1-1.9 2.1-1.9 4.5 1.1 1.3 1.6 2.5 2.7 2.8 2.4.3-.3-.6-1.7-2-3.2-1.7-1.9-2.3-3.4-1.9-4.7.4-1.1 1.1-1.8 1.6-1.5.5.3.6 0 .3-.8-.9-2.3 2-3.9 5-2.7 1.5.5 2.9 1 3 1 .6 0 0-3.6-.8-4.9-.5-.7-.3-1.8.4-2.4 1-.9 1.1-.9.5.2-.5.9-.4 1.2.3.7 1.8-1.1 1.4-2.6-.5-2.6-1 0-6 4.4-11.1 9.8zm9.8-4.3c0 .8-.4 1.5-.9 1.5-1.3 0-2.2-1.6-1.4-2.4 1.1-1.1 2.3-.6 2.3.9zM11 168c0 .5.5 1 1 1 .6 0 1-.5 1-1 0-.6-.4-1-1-1-.5 0-1 .4-1 1zM78.3 170.5c0 2.2.2 3 .4 1.7.2-1.2.2-3 0-4-.3-.9-.5.1-.4 2.3zM73.3 172c0 2.5.2 3.5.4 2.2.2-1.2.2-3.2 0-4.5-.2-1.2-.4-.2-.4 2.3zM75.3 176c0 4.7.2 6.6.4 4.2.2-2.3.2-6.1 0-8.5-.2-2.3-.4-.4-.4 4.3zM8.1 171.2c.4 4-.1 5.9-1.1 5.3-.6-.3-.7.1-.4 1 .4 1 .2 1.5-.7 1.3-.8-.2-1.3.3-1.1 1 .1.7-1 3-2.4 5-2.3 3.2-2.3 3.3-.3 1.1 4-4.4 5.7-6.6 7.3-9.6 1.1-2 1.5-2.3 1.6-1.1 0 1 .4 1.8.9 1.8s.4-1.3-.2-2.9c-.6-1.7-1.5-2.7-2.1-2.4-.5.4-.7-.1-.3-1 .3-1 .2-1.7-.4-1.7-.5 0-.9 1-.8 2.2zM31.6 170.7c-.6 1.4-.5 1.5.5.6.7-.7 1-1.5.7-1.8-.3-.3-.9.2-1.2 1.2zM144.4 169.9c.7 1.1 4.6 3.5 4.6 2.8 0-.3-1.2-1.2-2.6-2.2-1.5-.9-2.3-1.2-2-.6zM27.6 171.7c-.6 1.4-.5 1.5.5.6.7-.7 1-1.5.7-1.8-.3-.3-.9.2-1.2 1.2zM35 171c0 .5.5 1 1.1 1 .5 0 .7-.5.4-1-.3-.6-.8-1-1.1-1-.2 0-.4.4-.4 1zM51 171.1c0 .5.5.7 1 .4.6-.3 1-.8 1-1.1 0-.2-.4-.4-1-.4-.5 0-1 .5-1 1.1zM52.8 175.3c-1.8 5.8-1.9 5.5.8 6 3.8.7 7.9 2 8.9 2.7.6.4 2.8 1 5 1.4 4.3.7 2.9-.9-1.6-1.8-1.3-.2-4.9-1.3-7.9-2.3-5.3-1.7-5.5-1.9-4.5-4 .7-1.3 1.5-2 1.9-1.5.6.5-.2-4.6-.8-5.5-.1 0-.8 2.2-1.8 5z"/><path d="M69.9 170.7c-.1.5-.2 1.7-.3 2.8-.1 1.2-1.1 2.1-2.6 2.5l-2.5.6 2.4.6c2 .6 2.2 1.1 1.7 3.4-.6 2.3-.5 2.6.7 1.6 1.3-1.1 2.4-12.2 1.2-12.2-.3 0-.6.3-.6.7zM166 171c0 .5.5 1 1.1 1 .5 0 .7-.5.4-1-.3-.6-.8-1-1.1-1-.2 0-.4.4-.4 1zM39.6 172.5c.4.8.8 1.5 1 1.5.2 0 .4-.7.4-1.5s-.4-1.5-1-1.5c-.5 0-.7.7-.4 1.5zM82.1 172.6c0 1.1.3 1.4.6.6.3-.7.2-1.6-.1-1.9-.3-.4-.6.2-.5 1.3zM172.1 172.6c0 1.1.3 1.4.6.6.3-.7.2-1.6-.1-1.9-.3-.4-.6.2-.5 1.3zM13 172.7c0 1.3 9.2 9.4 9.9 8.8.2-.3-.9-1.7-2.5-3.1-1.6-1.5-3.9-3.6-5.1-4.7-1.3-1.1-2.3-1.6-2.3-1zM17.2 173.2c.5 1.5 2.8 2.3 2.8 1 0-.5-.7-1.3-1.6-1.6-1-.4-1.4-.1-1.2.6zM46.3 173c-1.3.5-2.3 1.1-2.3 1.3 0 .8 5-.5 5.6-1.4.6-1.1-.4-1.1-3.3.1zM58.5 173c-.3.5-.1 1 .4 1 .6 0 1.1-.5 1.1-1 0-.6-.2-1-.4-1-.3 0-.8.4-1.1 1zM80.3 178.5c0 3.3.2 4.5.4 2.7.2-1.8.2-4.5 0-6s-.4 0-.4 3.3zM25.2 176c.7 1.1 1.7 2 2.1 2 1 0 2.7 1.7 5 5 .9 1.3 1.7 2 1.7 1.4 0-.6-.9-2.3-2-3.7-2.4-3-2.6-4.1-.6-3.4 1 .4 1.3.1.9-.9-.4-1.1-.9-1.2-1.9-.3-1.1.9-2 .7-3.9-.5-2.5-1.7-2.5-1.6-1.3.4zM162 175.5c0 .8.4 1.5 1 1.5.5 0 .7-.7.4-1.5-.4-.8-.8-1.5-1-1.5-.2 0-.4.7-.4 1.5zM299.1 175.1c0 .9-1.8 3.3-3.9 5.5-2.1 2.1-5.3 6-7.1 8.7-1.8 2.7-3.7 4.5-4.3 4.1-.7-.5-.8-.2-.3.6.4.7.2 1.6-.6 2.1-1 .6-1.1.9-.1.9.6 0 1.9-.8 2.7-1.8.9-.9 3.3-3.6 5.4-5.9 6.9-7.5 9.3-11.1 8.8-13.5-.2-1.3-.5-1.6-.6-.7zM168.2 175.9c-1 .6-.8 1 .9 1.4 1.3.4 2.5.4 2.8.2.2-.3-.1-.5-.8-.5-.7 0-.9-.5-.6-1 .8-1.2-.5-1.3-2.3-.1zM57 177c0 .5.7 1 1.5 1s1.5-.5 1.5-1c0-.6-.7-1-1.5-1s-1.5.4-1.5 1zM77.7 176.7c-.4.3-.7 1.1-.7 1.7 0 .6.5.5 1.2-.2.6-.6.9-1.4.7-1.7-.3-.3-.9-.2-1.2.2zM82 176.4c0 .2.7.6 1.5 1 .8.3 1.5.1 1.5-.4 0-.6-.7-1-1.5-1s-1.5.2-1.5.4zM145.4 177.6c1.8 1.7 2.6 1.8 2.6.1 0-.7-.9-1.3-2-1.4-1.8-.2-1.8 0-.6 1.3zM43 178.1c0 .4.8.9 1.8 1.2 1.4.3 1.3.6-.7 1.4-2.4 1-2.4 1 1 1.8 1.9.4 3.9.9 4.4 1.1.6.1 2.6.5 4.5.8l3.5.6-3-1.4c-1.6-.9-4.2-1.5-5.7-1.6-3 0-3.5-.9-1.7-2.7.7-.7.3-1.2-1.5-1.5-1.4-.3-2.6-.2-2.6.3zM182.8 177.7c.7.3 1.6.2 1.9-.1.4-.3-.2-.6-1.3-.5-1.1 0-1.4.3-.6.6zM14 178.9c0 .5 1.2 1.7 2.8 2.6l2.7 1.8-2.4-2.7c-2.6-2.8-3.1-3.1-3.1-1.7zM136 178.4c0 .4.7 1.4 1.5 2.2.8.9 1.5 1.1 1.5.6 0-.5-.7-1.5-1.5-2.2-.8-.7-1.5-.9-1.5-.6zM150.2 181c0 1.9.2 2.7.5 1.7.2-.9.2-2.5 0-3.5-.3-.9-.5-.1-.5 1.8zM154.3 182.5c0 2.7.2 3.8.4 2.2.2-1.5.2-3.7 0-5-.2-1.2-.4 0-.4 2.8zM163.5 178.9c-.3.5-.1 1.2.5 1.6.5.3 1-.1 1-.9 0-1.8-.6-2.1-1.5-.7zM166.8 179.7c1 .4 1 .8.1 1.9-1.6 2-.6 1.7 2-.5l2.1-1.9-2.7.1c-1.6 0-2.2.2-1.5.4zM181.8 179.7c1.2.2 3 .2 4 0 .9-.3-.1-.5-2.3-.4-2.2 0-3 .2-1.7.4zM72.2 182c0 1.4.2 1.9.5 1.2.2-.6.2-1.8 0-2.5-.3-.6-.5-.1-.5 1.3zM136 183c1.2 1.6 2.4 3 2.6 3 .3 0-.4-1.4-1.6-3-1.2-1.7-2.4-3-2.6-3-.3 0 .4 1.3 1.6 3zM144.6 181.5c.4.8 1.1 1.5 1.6 1.5.6 0 .5-.6-.2-1.5-.7-.8-1.4-1.5-1.6-1.5-.2 0-.1.7.2 1.5zM177 181c-1.3.8-1.2 1 .3 1 .9 0 1.7-.5 1.7-1 0-1.2-.1-1.2-2 0zM180.8 181.7c.6.2 1.8.2 2.5 0 .6-.3.1-.5-1.3-.5-1.4 0-1.9.2-1.2.5zM185.8 181.7c.7.3 1.6.2 1.9-.1.4-.3-.2-.6-1.3-.5-1.1 0-1.4.3-.6.6zM30.4 185.3c1.5 1.9 2.6 3.8 2.6 4.4 0 .5.7 1.8 1.5 2.9 1.4 1.7 1.4 1.6.2-1.1-2.3-5.5-4.7-9.5-5.8-9.5-.5 0 .1 1.5 1.5 3.3zM152.2 184.5c0 1.6.2 2.2.5 1.2.2-.9.2-2.3 0-3-.3-.6-.5.1-.5 1.8zM8 184.5c0 1.6 1.6 2 2.4.6.3-.5-.1-1.1-.9-1.5-.9-.3-1.5 0-1.5.9zM24.1 183.3c.2.1 1.4 1.1 2.7 2.1 1.2 1.1 2.2 1.6 2.2 1.3 0-1-3.1-3.7-4.2-3.7-.6 0-.9.1-.7.3zM36 184c0 .5.7.7 1.5.4.8-.4 1.5-.8 1.5-1 0-.2-.7-.4-1.5-.4s-1.5.4-1.5 1zM85.4 184.8c.7 1.9.5 2-2.5 1.2-3.1-.9-5.7-.5-2.8.4 5.4 1.7 6.9 1.6 6.9-.3 0-1.1-.5-2.3-1.1-2.7-.7-.4-.9 0-.5 1.4zM98.9 184.6c-1.5 1.8-2.1 4.4-1 4.4.3 0 1.2-1.4 1.8-3 1.3-3.4 1.1-3.7-.8-1.4zM40 184.9c0 .6 1.5 1.1 3.3 1.2 1.7 0 4.2.2 5.5.5 1.2.2 2.2 0 2.2-.4 0-.5-.6-.9-1.2-1-.7 0-3.2-.4-5.5-.8-2.9-.4-4.3-.3-4.3.5zM58 185c0 .4.9 1 2 1.3 1.1.3 2 .2 2-.3 0-.4-.9-1-2-1.3-1.1-.3-2-.2-2 .3zM169 185.1c0 .5.5.7 1 .4.6-.3 1-.8 1-1.1 0-.2-.4-.4-1-.4-.5 0-1 .5-1 1.1zM176.7 186c.9 1.1 1.9 1.7 2.1 1.5.6-.6-1.8-3.5-2.9-3.5-.5 0-.1.9.8 2zM12.7 185.7c-.3.5.6.9 2 1 1.9.1 2.2-.1 1.2-.8-1.7-1.1-2.6-1.1-3.2-.2zM22 185.3c0 .1 1.6 1.7 3.5 3.6 1.9 1.8 3.5 2.8 3.5 2.2 0-1.1-5.1-6.1-6.2-6.1-.5 0-.8.1-.8.3zM74.5 186c.3.5.8 1 1.1 1 .2 0 .4-.5.4-1 0-.6-.5-1-1.1-1-.5 0-.7.4-.4 1zM34.6 187.3c.3 1 .9 1.5 1.2 1.2.3-.3 0-1.1-.7-1.8-1-.9-1.1-.8-.5.6zM52 187c0 .6.6 1 1.3 1.1 1.6.1 4.1.6 9.6 1.9 10.4 2.4 15.1 3.1 15.1 2.2 0-.4-3.7-1.3-8.2-2-4.5-.8-8.9-1.7-9.7-2.1-2.8-1.4-8.1-2.1-8.1-1.1zM64.7 187.1c1.2.9 11.3 2.7 11.3 1.9 0-.3-2.7-1.1-6-1.6-3.3-.6-5.7-.7-5.3-.3zM187 187c0 .5.5 1 1.1 1 .5 0 .7-.5.4-1-.3-.6-.8-1-1.1-1-.2 0-.4.4-.4 1zM195.2 187.2c.2.6 1 1.4 1.6 1.6.7.2 1-.2.6-1.2-.7-1.8-2.8-2.2-2.2-.4zM42 188c0 .6 8 3 10 3 .6 0 1-.4 1-.8 0-.5-2.5-1.3-5.5-1.9-3-.5-5.5-.7-5.5-.3zM104 187.4c0 .2.7.9 1.5 1.6.9.7 1.5.8 1.5.2 0-.5-.7-1.2-1.5-1.6-.8-.3-1.5-.4-1.5-.2zM169.6 187.8c-.2.4-.1 1.4.4 2.1.9 1.5 3 .6 3-1.2 0-.7-.4-.6-1 .3-.9 1.3-1.4.7-1.1-1.3.1-.9-.7-.9-1.3.1zM30.6 190c.3 1.4 1 2.9 1.5 3.4 1.4 1.6 1-.6-.7-3.4l-1.5-2.5.7 2.5zM119 189c0 .5.5 1 1.1 1 .5 0 .7-.5.4-1-.3-.6-.8-1-1.1-1-.2 0-.4.4-.4 1zM134 188.7c0 .6.9 2.1 2.1 3.4l2 2.4-1.7-3c-2.4-3.9-2.4-4-2.4-2.8zM137 188.5c0 .5.5 1.7 1 2.5s1 1 1 .5c0-.6-.5-1.7-1-2.5s-1-1.1-1-.5zM143.2 190c0 1.4.2 1.9.5 1.2.2-.6.2-1.8 0-2.5-.3-.6-.5-.1-.5 1.3zM149 188.9c0 .6.5 1.3 1 1.6.6.3 1-.1 1-.9 0-.9-.4-1.6-1-1.6-.5 0-1 .4-1 .9zM12 190c-.9.6-1 1-.3 1 .6 0 1.5-.5 1.8-1 .8-1.2.4-1.2-1.5 0zM94.8 190.2c.6.9.7 3.2.1 6.7-1 6.5-1 16.6.1 15.4.4-.4 1-5.6 1.4-11.4.6-9.4.4-10.8-1-11.3-1.3-.5-1.4-.3-.6.6zM163.6 190.7c-.4.9-.2 2.1.4 2.7.7.7 1 .2 1-1.7 0-3.1-.5-3.4-1.4-1zM297 192.1c-5 6.2-6.2 7.4-7.1 7.1-1.2-.3-1.1 2.3.5 14.2l1.3 9.9-3.1 2.8c-1.7 1.6-4.2 3.8-5.5 4.9-1.3 1.1-2.2 2.3-1.8 2.6.5.6 1.9-.5 8.9-6.9 2.9-2.6 3-3.1 2.4-8-2.1-17-2.1-17.7.7-20.2 1.5-1.2 2.7-2.6 2.7-3.1 0-.4 1-1.8 2.2-3.1 1.2-1.3 1.9-2.5 1.7-2.8-.3-.2-1.6.9-2.9 2.6zM18.2 192c0 1.4.2 1.9.5 1.2.2-.6.2-1.8 0-2.5-.3-.6-.5-.1-.5 1.3zM52.7 195.6c-2 6.5-2.1 9.1-.2 4.9 1.1-2.3 1.4-2.6 1.5-1 0 1.6.2 1.7 1 .5.6-.9.5-1.7-.2-2.1-.6-.4-.8-1.8-.4-3.4.7-2.6.9-2.7 5.3-2 2.5.4 5.3.9 6.2 1.1.9.2.3-.2-1.4-.9-1.6-.8-4.6-1.7-6.6-2l-3.5-.5-1.7 5.4zM130.3 192c-.7 1-.9 2.1-.5 2.4.4.2 1.2-.7 1.9-2 1.3-2.9.3-3.2-1.4-.4zM154 192c-.6 1.1-.8 2-.6 2 .3 0 1-.9 1.6-2 .6-1.1.8-2 .6-2-.3 0-1 .9-1.6 2zM167.4 193.4c-.3 1.9-.2 4.2.3 5.1.7 1.2 1 .2 1.1-3.4.1-5.9-.4-6.6-1.4-1.7zM5.5 192c-.3.6.1.7.9.4 1.8-.7 2.1-1.4.7-1.4-.6 0-1.3.4-1.6 1zM37 191.6c0 .7.7 1.7 1.5 2.4.9.7 1.4 1.9 1.1 2.7-.3.7.1 1.3.9 1.3 2.2 0 1.8-1.7-1-4.8-1.4-1.5-2.5-2.2-2.5-1.6zM6.5 194.5C4.9 195.9 4 197 4.6 197c.6 0 1.7-.7 2.4-1.5s1.7-1.5 2.2-1.5c.6 0 .5.7-.2 1.5-1.1 1.3-1 1.4.3.9.9-.3 1.5-1.4 1.4-2.5-.2-2.4-.5-2.4-4.2.6zM44.1 196.1c-.7 2.2-1.1 4.3-.8 4.5.2.2.9-1.4 1.6-3.7.7-2.2 1.1-4.3.8-4.5-.2-.2-.9 1.4-1.6 3.7zM47.2 195c-1.4 3.7.2 4 1.7.2 1-2.5 1.1-2.4.6 1.3-.4 3.2-.3 3.6.5 2.2 1.3-2.1.9-5.9-.6-6.4-.7-.2-1.7 1-2.2 2.7zM146 193c0 .5 1.1 1.7 2.5 2.6 2 1.3 2.3 2 1.4 3-.7.9-1.7 1.1-2.8.5-.9-.5-2.2-.6-2.9-.4-.7.3-2.5-.5-3.8-1.8-1.6-1.5-2.3-1.8-1.9-.8.8 2.2 5 4.3 6.6 3.4.8-.6 1.1-.4.7.6-.5 1.2.1 1.4 2.3 1.1 1.6-.2 2.7-.8 2.4-1.2-.3-.5-.1-1.1.4-1.5 1.5-.9.2-3.2-2.2-3.9-1.8-.5-2-.8-.7-1.6s1.2-1-.2-1c-1 0-1.8.4-1.8 1zM187.8 193.2c.9.9 1.5.9 2.4 0 .9-.9.7-1.2-1.2-1.2s-2.1.3-1.2 1.2zM25 194.1c0 .5.5.7 1 .4.6-.3 1-.8 1-1.1 0-.2-.4-.4-1-.4-.5 0-1 .5-1 1.1z"/><path d="M141 195.5c1.3 1.4 2.6 2.5 2.8 2.5.3 0-.5-1.1-1.8-2.5s-2.6-2.5-2.8-2.5c-.3 0 .5 1.1 1.8 2.5zM116.1 195.6c0 1.1.3 1.4.6.6.3-.7.2-1.6-.1-1.9-.3-.4-.6.2-.5 1.3zM144 195c0 .5.5 1 1.1 1 .5 0 .7-.5.4-1-.3-.6-.8-1-1.1-1-.2 0-.4.4-.4 1zM15 196c0 .5.5 1 1.1 1 .5 0 .7-.5.4-1-.3-.6-.8-1-1.1-1-.2 0-.4.4-.4 1zM31 197c.6 1.1 1.3 2 1.6 2 .2 0 0-.9-.6-2s-1.3-2-1.6-2c-.2 0 0 .9.6 2zM33 195.3c0 .5.9 2 2 3.4s2 2.2 2 1.7c-.1-1.2-3.9-6.1-4-5.1zM58 196.1c0 .5.5.7 1 .4.6-.3 1-.8 1-1.1 0-.2-.4-.4-1-.4-.5 0-1 .5-1 1.1zM126.5 196.9c-.3 1.2-1.2 2.1-1.8 2.1-.7 0-.6.4.3 1 1.2.7 1.7.3 2.2-1.7.9-3.2.3-4.4-.7-1.4zM0 196.8c0 1.2 1.9 2.6 2.6 1.9.2-.2-.2-1-1.1-1.7-.9-.8-1.5-.8-1.5-.2zM159.2 199c-.1 1.6.2 3 .6 3 .5 0 .9-1.4 1-3 0-1.7-.3-3-.7-3-.4 0-.8 1.3-.9 3zM178.3 196.7c.9.2 1.7 1.1 1.7 1.9 0 .8.5 1.2 1 .9 2.1-1.3 1-3.5-1.7-3.4-1.7.1-2.1.3-1 .6zM62.3 198.8c.1 1.5.8 2.2 2.2 2.2 1.5 0 1.7-.2.6-.9-.7-.5-1.7-1.5-2.2-2.2-.6-1-.8-.7-.6.9zM73.6 198.2c-2.1 7.3-2.7 10.1-2.2 10.5.4.4 1.3-2.4 2.9-9.5.5-2.3-.1-3.2-.7-1zM113 198.5c0 .9-.6 1.2-1.5.9-1.1-.5-1.3-.2-.9 1 .8 2.1 2.1 2 3.4-.3 1.3-2.5 1.3-3.1 0-3.1-.5 0-1 .7-1 1.5zM9.6 198.7c-1.1 1.1-.6 2.1.9 1.9 2.2-.3 2.8-1.3 1.1-1.9-.8-.3-1.7-.3-2 0zM78.1 199.6c0 1.1.3 1.4.6.6.3-.7.2-1.6-.1-1.9-.3-.4-.6.2-.5 1.3zM132.5 199c-.3.5-.1 1 .4 1 .6 0 1.1-.5 1.1-1 0-.6-.2-1-.4-1-.3 0-.8.4-1.1 1zM275.8 199.2c-3.4.9-9.8 6.6-9.8 8.7 0 .6-.8 1.4-1.7 2-1 .5-1.4 1.3-1 1.8.5.4 1.6-.1 2.5-1.3 1-1.1 3-3.7 4.6-5.7 2.3-2.8 3.8-3.8 7.2-4.3 2.4-.3 4.4-1 4.4-1.5 0-1.1-1.3-1-6.2.3zM26.5 200c.3.5.8 1 1.1 1 .2 0 .4-.5.4-1 0-.6-.5-1-1.1-1-.5 0-.7.4-.4 1zM59.5 200c-.3.5-.1 1 .4 1 .6 0 1.1-.5 1.1-1 0-.6-.2-1-.4-1-.3 0-.8.4-1.1 1zM130 200.8c.6 1.3 1.4 2.1 1.8 1.8.3-.4-.2-1.4-1.2-2.4-1.8-1.6-1.8-1.6-.6.6zM186.8 199.7c.7.3 1.6.2 1.9-.1.4-.3-.2-.6-1.3-.5-1.1 0-1.4.3-.6.6zM0 200.9c0 .6.4 1.3 1 1.6.6.3.7-.1.4-.9-.7-1.8-1.4-2.1-1.4-.7zM4 200.7c0 .6 1.2 1.9 2.7 2.8 1.4 1 4.6 3.6 7.1 5.9 2.9 2.6 4.1 3.3 3.4 1.9-1-1.8-2.6-3.2-7.7-7-.6-.5-2.1-1.7-3.3-2.7-1.2-1.1-2.2-1.4-2.2-.9zM34.3 203.2c2.5 3.4 4.7 4.2 5.5 2 .2-.7-.2-1-1.1-.6-.9.3-2.3-.5-3.5-2-1.1-1.4-2.3-2.6-2.7-2.6-.4 0 .4 1.5 1.8 3.2zM67 201.6c0 .8.5 1.2 1 .9.6-.3 1-1 1-1.6 0-.5-.4-.9-1-.9-.5 0-1 .7-1 1.6zM69.7 203.3c-.5 2.1-1 4.6-1.3 5.5-.2.9.3.2 1.1-1.7.9-1.8 1.5-4.3 1.3-5.5-.3-1.5-.6-.9-1.1 1.7zM122.8 204.1c2.3 2.2 4.2 4.5 4.2 5 0 1.3-.6 1.1-2.6-.8-1.6-1.6-1.6-1.6-1 .5.6 1.8.4 2.1-1.1 1.6-2.4-.8 3.4 4.9 6.7 6.6 1.6.8 1.2.1-1.3-2-2-1.7-3.4-3.6-3.1-4.2.3-.5 1.2 0 2.1 1.1.8 1.2 2 2.1 2.6 2.1.7 0 .4-.7-.6-1.4-.9-.7-1.5-2-1.2-2.9.4-.8-.5-2.7-1.9-4.3-1.4-1.6-3-3.5-3.6-4.2-.6-.6-1.6-1.2-2.3-1.2-.7 0 .7 1.9 3.1 4.1zM38 202.1c0 .5.5.7 1 .4.6-.3 1-.8 1-1.1 0-.2-.4-.4-1-.4-.5 0-1 .5-1 1.1zM48.1 202.6c0 1.1.3 1.4.6.6.3-.7.2-1.6-.1-1.9-.3-.4-.6.2-.5 1.3zM107.7 204c-.6 1.6-1.5 3-1.9 3-.4 0-.8 1-.8 2.3 0 1.3-.3 2.7-.7 3.1-.5.4-.8 2.2-.8 3.9-.1 2.4-.5 3.1-1.7 2.9-.9-.1-1.9.2-2.3.8-.3.5.3 1 1.4 1 1.8 0 2 .4 1.4 3.2-.4 1.8-1.3 3.9-2.1 4.7-1.3 1.3-1.2 1.7.8 3.3 2.5 2 4.7 2.3 5.2.7.2-.5 1.1-.7 2.1-.3 1.2.4 1.6 1.3 1.2 2.8-.5 1.9-.5 1.9.5.3.9-1.4 1.5-1.6 2.6-.6 1 .8 1.4.8 1.4 0 0-.6-.4-1.1-1-1.1-.5 0-1-.5-1-1.1 0-.6.7-.9 1.5-.5.8.3 1.5.1 1.5-.5s-.9-1.3-2-1.6c-1.5-.4-1.9-1.1-1.5-2.7.5-1.9.5-1.9-.5-.3-.9 1.3-.9 2.2 0 3.2 1.8 2.2-.5 2.6-2.8.5-1.2-1.1-2.8-2-3.7-2-.8 0-1.5-.7-1.5-1.5s.4-1.5.9-1.5 1.4.7 2.1 1.5c1.4 1.7 3 2 3 .6 0-.5-1.3-1.4-2.9-2-2.2-1-2.7-1.7-2.3-3.7.2-1.4 1.1-2.4 2.1-2.4 1.3 0 1.3-.2.2-.9-1-.6-1.2-1.9-.7-4.2.9-4.4 4-11.1 4.8-10.3.4.3.4-.3.1-1.5-.7-2.8-1.3-2.6-2.6.9zm-3.1 26.5c1.8 1.5 1.8 1.5-.5 1.3-1.4-.2-2.6-.9-2.9-1.6-.5-1.7 1-1.5 3.4.3zM155 202.5c-.7.8-.9 1.5-.6 1.5.4 0 1.4-.7 2.2-1.5.9-.8 1.1-1.5.6-1.5-.5 0-1.5.7-2.2 1.5zM162.8 201.7c.6.2 1.2 1.1 1.2 1.9 0 .8.9 1.4 2.3 1.3 2.1 0 2.1-.1.2-.9-1.1-.5-1.4-.9-.7-.9 2.4-.2 1.1-1.7-1.5-1.8-1.6-.1-2.2.1-1.5.4zM169.8 201.7c.7.3 1.6.2 1.9-.1.4-.3-.2-.6-1.3-.5-1.1 0-1.4.3-.6.6zM173.1 201.4c.8.8 8.8 1 9.5.3.4-.4-1.7-.7-4.6-.7-2.9 0-5.1.2-4.9.4zM186 201.8c0 .5.7.9 1.5.9s1.5-.4 1.5-.9c0-.4-.7-.8-1.5-.8s-1.5.4-1.5.8zM191.8 201.7c1.2.2 3.2.2 4.5 0 1.2-.2.2-.4-2.3-.4s-3.5.2-2.2.4zM283 204.4c0 6.2 1.1 9.6 3.1 9.6 2.1 0 2.6-3.5.8-6-.9-1.2-1-1.2-.5.3.4 1.2.2 1.7-.6 1.5-.8-.3-1.1-2-.9-4.6.1-2.5-.2-4.2-.8-4.2-.6 0-1.1 1.5-1.1 3.4zM41.3 206c-.5 2.2-.7 3.7-.2 3.5.9-.6 2.3-6.4 1.7-7-.2-.3-.9 1.3-1.5 3.5zM44.2 205.5c-1.5 5.2-1.5 5 .8 5.2 1.3.1 2-.4 1.9-1.5 0-1.1-.2-1.2-.6-.4-.2.6-.9 1-1.4.6-.5-.3-.5-1.3.2-2.5.5-1.1.9-2.8.6-3.7-.2-1-.8-.1-1.5 2.3zM56.5 203c.3.5.8 1 1.1 1 .2 0 .4-.5.4-1 0-.6-.5-1-1.1-1-.5 0-.7.4-.4 1zM76.9 203.7c-.1 2-.3 3.4-1.4 7.4-.4 1.6-.2 3 .4 3.3.7.5 1.1-.3 1.1-2.1.1-1.5.3-4.5.6-6.6.3-2 .3-3.7 0-3.7s-.6.8-.7 1.7z"/><path d="M119.1 204.4c1.3 1.4 2.6 2.3 2.8 2 .6-.6-3-4.4-4.2-4.4-.5 0 .1 1.1 1.4 2.4zM279.6 203.5c-.3.9 0 1.5.9 1.5 1.6 0 2-1.6.6-2.4-.5-.3-1.1.1-1.5.9zM128 204.5c0 .8.2 1.5.4 1.5s.6-.7 1-1.5c.3-.8.1-1.5-.4-1.5-.6 0-1 .7-1 1.5zM158.3 203.7c.9.2 2.5.2 3.5 0 .9-.3.1-.5-1.8-.5-1.9 0-2.7.2-1.7.5zM170.5 204c-1.4.5-.5.8 3 .7 3.3 0 4.3-.3 3-.8-2.5-1-3.5-1-6 .1zM0 204.9c0 1 1.9 2.5 2.5 2 .1-.2-.3-1-1.1-1.7s-1.4-.8-1.4-.3zM14 204.9c0 1 1.9 2.5 2.5 2 .1-.2-.3-1-1.1-1.7s-1.4-.8-1.4-.3zM28.8 204.7c.7.3 1.6.2 1.9-.1.4-.3-.2-.6-1.3-.5-1.1 0-1.4.3-.6.6zM49.6 206.4c-.3 1.3-.9 3.2-1.2 4.3-.5 1.2-.4 1.5.3.8 1.1-1 2.8-7.5 2-7.5-.3 0-.8 1.1-1.1 2.4zM66 205.1c0 .8-1.3 1-3.7.6-3.4-.6-3.5-.5-1.6.8 2.7 1.9 6.3 1.5 6.3-.7 0-1-.2-1.8-.5-1.8s-.5.5-.5 1.1zM116 204.7c0 1.2 3.8 4.8 4.5 4.1.3-.2-.6-1.5-2-2.8-1.4-1.3-2.5-1.9-2.5-1.3zM145.6 204.8c-.2.4-.1 1.4.3 2.1.6 1 1 .9 1.4-.3.6-1.6-.8-3.2-1.7-1.8zM141.8 205.7c.7.3 1.6.2 1.9-.1.4-.3-.2-.6-1.3-.5-1.1 0-1.4.3-.6.6zM10.5 210.7c2.8 2.8 5.2 4.9 5.4 4.7.5-.5-5.1-6-8.4-8.3-1.1-.8.3.8 3 3.6zM51.6 207.6c-.4.9-.4 1.9-.1 2.2.2.3.7-.3 1.1-1.2.4-.9.4-1.9.1-2.2-.2-.3-.7.3-1.1 1.2zM110.4 207.2c-2.4 3.3-4.5 8-4 8.5.3.4.7.4.9.2.1-.2 1.7-2.5 3.5-5.2 2.3-3.2 2.9-4.7 1.9-4.7-.8 0-1.9.6-2.3 1.2zM165.7 211.5c.3 3.3.7 6.2.9 6.4.7.8.2-7.4-.6-9.9-.5-1.6-.6-.2-.3 3.5zM170 208c0 1.1.2 2 .4 2s.6-.9.9-2c.3-1.1.1-2-.4-2s-.9.9-.9 2zM191 208.4c0 1.4.4 2.7.8 3 .5.3.6-.8.4-2.5-.5-3.5-1.2-3.8-1.2-.5zM20 208.1c0 .5.5.7 1 .4.6-.3 1-.8 1-1.1 0-.2-.4-.4-1-.4-.5 0-1 .5-1 1.1zM130.5 208c-.3.5.3 1 1.5 1s1.8-.5 1.5-1c-.3-.6-1-1-1.5-1s-1.2.4-1.5 1zM155.3 208.2c-1.1 1.8-4.3 8.2-4.3 8.6 0 1 3.5-1.9 3.6-3 0-.7.2-2.1.2-3.1.1-1 .6-1.6 1.1-1.3.5.3 1.1-.1 1.5-.9.7-1.8-1-2-2.1-.3zM162.6 208.3c.3 1 .9 1.5 1.2 1.2.3-.3 0-1.1-.7-1.8-1-.9-1.1-.8-.5.6zM185 208.5c0 .8.2 1.5.4 1.5s.6-.7 1-1.5c.3-.8.1-1.5-.4-1.5-.6 0-1 .7-1 1.5zM8 213c3 2.7 5.6 4.7 5.8 4.5.6-.6-9.1-9.4-10.3-9.5-.5 0 1.5 2.2 4.5 5zM25 208.4c0 .2.7.7 1.6 1 .8.3 1.2.2.9-.4-.6-1-2.5-1.4-2.5-.6zM57.4 209.2c-.4.6-.3.8.4.4.5-.3 1.3 0 1.5.6.3.8.6.6.6-.5.1-1.9-1.4-2.3-2.5-.5zM119.2 212.5c2.3 2.4 4.4 4.2 4.7 4 .6-.6-7-8.5-8.1-8.5-.5 0 1.1 2 3.4 4.5zM138.7 209.4c-.4 1-.1 1.3.8.9.8-.3 1.2-.9.9-1.4-.7-1.2-1.1-1.1-1.7.5zM143.2 209.5c-1.1 1.2-1 1.5.3 1.5.8 0 1.5-.7 1.5-1.5 0-1.8-.2-1.8-1.8 0zM182 210.1c.7 1.1 1.4 1.9 1.6 1.6.7-.7-.7-3.7-1.7-3.7-.6 0-.5.9.1 2.1zM0 209.9c0 .6.3 1.1.8 1.1 2 0 11.4 10.5 14 15.6 3.2 6.2 6.1 10.5 6.2 9.1 0-.5-.8-2.1-1.9-3.5-1-1.5-3-5-4.4-7.7-3-6-14.7-17.6-14.7-14.6zM65.1 209.9c-.7.5-1.1 1.5-.9 2.2.3 1 .8.7 1.7-.9 1.3-2.4 1.2-2.6-.8-1.3zM214 212.1c0 1.5.7 3.2 1.5 3.9 1.4 1.1 1.4 1 .5-1.4-1.2-3.1-.5-5 1.6-4.2.8.3 1.4.1 1.4-.4s-1.1-.9-2.5-.8c-2 .2-2.5.8-2.5 2.9zM221 210.9c0 1.1.5 2.3 1 2.6.6.3 1-.1 1-.9 0-.9 0-1.9.1-2.3 0-.4-.4-.9-1-1.1-.6-.2-1.1.5-1.1 1.7zM233 212.5c-.1 2.2-.3 4.7-.5 5.6-.1.8-.6 7.8-1 15.5-.3 7.6-.8 16.7-1.1 20.1-.2 3.8 0 6.3.6 6.3 1 0 1.1-.8 1.5-13 .1-4.1.6-11.6 1.1-16.5.8-8.7.8-8.8 1.5-4l.6 5 .1-6.3c.1-3.6-.2-6.1-.7-5.8-.5.4-.7-.2-.5-1.1.3-1 .1-3.6-.5-5.8l-.9-4-.2 4zM34.5 211c.3.5 1.6 1 2.8.9 2.1 0 2.1-.1.2-.9-2.8-1.2-3.7-1.2-3 0zM70.1 211.2c0 .9-.4 2.5-.7 3.5-.5 1.7-.5 1.7.6 0 .6-1 .9-2.5.7-3.5-.4-1.5-.5-1.5-.6 0zM133.5 211c.6.9.1 1-1.6.5-2.2-.6-2.2-.5.6 1.9 1.7 1.4 3.5 2.5 4 2.5.6 0 .2-.6-.9-1.4-1-.7-1.5-1.8-1.2-2.4.4-.5.1-1.3-.5-1.7-.8-.5-.9-.3-.4.6zM148.3 212.6c-1.3 2.8-.8 3.1 1.4.8.9-.9 1.2-1.9.7-2.4s-1.4.1-2.1 1.6zM160.7 210.7c-.2.5-.7 2.1-1.1 3.7-.6 2.4-.5 2.7.6 1.8.8-.6 1.4-2.2 1.6-3.6.2-2.6-.3-3.3-1.1-1.9zM171.7 210.7c-.4.3-.6 3.1-.6 6.2.1 3.1.3 4.8.6 3.8.2-.9.9-1.7 1.4-1.7.5 0 .9-.5.9-1.1 0-.5-.5-.7-1.1-.4-.7.5-.9-.7-.6-3.4.4-4.4.4-4.5-.6-3.4zM236.6 211.3c.3 1 .9 1.5 1.2 1.2.3-.3 0-1.1-.7-1.8-1-.9-1.1-.8-.5.6zM242.7 212c.3 1.1 1 2.3 1.6 2.7.6.4.8-.2.4-1.6-.5-2-.2-2.2 1.8-1.9 1.3.3 3 .1 3.7-.3.8-.6-.5-.9-3.4-.9-4.1 0-4.6.2-4.1 2zM253.3 210.7c.9.2 2.5.2 3.5 0 .9-.3.1-.5-1.8-.5-1.9 0-2.7.2-1.7.5zM40 211.9c0 .6.5 1.2 1 1.2.6.1 1.3.2 1.8.4.4.1 2.5.5 4.7.9s5.8 1.1 8 1.7c2.2.5 5.6 1.1 7.5 1.3 5.1.5 5 .5 5 1.6 0 .5-.7.7-1.5.4-1-.4-1.5 0-1.5 1.1 0 .9.5 1.3 1 1 1.5-.9 7.1.5 6.4 1.6-.3.5-2.3.6-4.5.3-2.1-.4-3.9-.3-3.9.2s2 1 4.4 1.1c3.7.2 4.5-.1 5.5-2.3.8-1.9.8-2.5-.2-2.3-3.3.4-4.9-.2-4.3-1.6.3-.8.4-1.5.3-1.5-.4 0-22.3-3.9-25.1-4.5-1.6-.3-3.3-.8-3.8-1.1-.4-.3-.8 0-.8.5zM164.2 213.5c0 1.6.2 2.2.5 1.2.2-.9.2-2.3 0-3-.3-.6-.5.1-.5 1.8zM56.8 212.7c.7.3 1.6.2 1.9-.1.4-.3-.2-.6-1.3-.5-1.1 0-1.4.3-.6.6zM114.3 214.5c0 1.3.3 2.2.8 2 .9-.6.8-4.5-.2-4.5-.4 0-.6 1.1-.6 2.5zM142.5 213c-.3.5-.2 1 .4 1 .5 0 1.3-.5 1.6-1 .3-.6.2-1-.4-1-.5 0-1.3.4-1.6 1zM174.5 213c.3.5.8 1 1.1 1 .2 0 .4-.5.4-1 0-.6-.5-1-1.1-1-.5 0-.7.4-.4 1z"/><path d="M35.2 214.1c.3.8 1 1.5 1.6 1.5.7.1 1.3.2 1.5.3.1.2 1.3.4 2.7.7 1.4.2 4.8.9 7.6 1.4 2.8.6 6.4 1.3 8 1.5 1.6.3 3.9.7 5.2 1 1.2.3 2.2.2 2.2-.3 0-.4-5.1-1.7-11.2-2.9-13.2-2.4-15.4-2.9-16.9-3.9-.7-.4-1-.1-.7.7zM247 214.2c0 .4 3.7.7 8.3.7 9.2-.1 8.6-.6-1.5-1.1-3.8-.2-6.8 0-6.8.4zM94.2 216.5c0 1.6.2 2.2.5 1.2.2-.9.2-2.3 0-3-.3-.6-.5.1-.5 1.8zM168 215.1c0 .5.5.7 1 .4.6-.3 1-.8 1-1.1 0-.2-.4-.4-1-.4-.5 0-1 .5-1 1.1zM182.2 215.6c-.7.8-.8 1.4-.3 1.4 1 0 2.5-1.9 2-2.5-.2-.1-1 .3-1.7 1.1zM188.3 218c0 2.5.2 3.5.4 2.2.2-1.2.2-3.2 0-4.5-.2-1.2-.4-.2-.4 2.3zM205.6 215.6c-1.2 3.1.3 3.4 2.2.4 1-1.6 1-2-.2-2-.8 0-1.7.7-2 1.6zM131.5 216c.3.5.8 1 1.1 1 .2 0 .4-.5.4-1 0-.6-.5-1-1.1-1-.5 0-.7.4-.4 1zM139.1 216.7c1.1 1.2.8 1.3-1.7.8s-2.6-.4-.6.4c3 1.4 2.8 2.5-.4 1.7-1.7-.5-2.3-.3-1.9.4 1.2 2 5 1 6.6-1.8 1.5-2.6 1.4-2.7-.8-2.8-2-.2-2.2.1-1.2 1.3zM223.1 216.6c0 1.1.3 1.4.6.6.3-.7.2-1.6-.1-1.9-.3-.4-.6.2-.5 1.3zM25 217.1c0 .5.5.7 1 .4.6-.3 1-.8 1-1.1 0-.2-.4-.4-1-.4-.5 0-1 .5-1 1.1zM116.6 222.1c-4 6.8-4.4 7.8-1.9 5.8 1.5-1.2 1.6-1.2 1 .3-.9 2.5 0 2.2 1.4-.3.8-1.5.8-1.9 0-1.5-1.8 1.1-1.3-.8 1.5-5.8 3.8-6.7 2.2-5.6-2 1.5zM144.5 217.1c-1.7.7-1.8.8-.2.8 1.4.1 1.6.5.7 2.1-.6 1-1.6 1.8-2.3 1.6-.6-.1-.9-.1-.4.1.4.3.7 1.1.7 1.9 0 .8.8 1.4 1.8 1.4 1.4 0 1.5-.2.2-1-1.2-.8-1.2-1 .5-1.1 1.1 0 1.4-.3.8-.6-1-.3-1-1-.2-2.4 1.4-2.7.8-3.8-1.6-2.8zM186.1 217.6c0 1.1.3 1.4.6.6.3-.7.2-1.6-.1-1.9-.3-.4-.6.2-.5 1.3zM242 217c0 .5.5 1 1.1 1 .5 0 .7-.5.4-1-.3-.6-.8-1-1.1-1-.2 0-.4.4-.4 1zM21.6 221.7c2.9 5.3 7 9.6 9.3 10 .9.1-.1-1.2-2.2-2.9S24 224 23 221.9c-1.1-2.1-2.4-4.1-3-4.4-.6-.4.1 1.5 1.6 4.2zM30.8 218.4c-2.2 1.6-2.4 3-.3 2.3.8-.4 1.7-.3 1.9.2.3.4 3 1.3 6 2 5.4 1.2 5.5 1.3 5.1 4.4l-.5 3.2 1.1-3c.7-1.7 1.2-3.1 1.3-3.2 0 0 4.3.7 9.4 1.7 5.1.9 9.5 1.4 9.7 1 .5-.7-10.7-3-14.8-3-1.4 0-2.8-.4-3.1-.9-.3-.4-1.7-.7-3.1-.6-1.4.2-2.5-.1-2.5-.6 0-.6-.4-.8-.8-.5-1.2.7-8.2-1.5-8.2-2.6 0-.5 1.7-.7 3.8-.4 2.6.4 3.3.3 2.2-.4-2.1-1.3-5.2-1.2-7.2.4zM71 217.8c0 .4 1.1.9 2.6 1 1.4.1 2.3-.2 1.9-.8-.7-1.2-4.5-1.4-4.5-.2zM123.7 219.3c-3.3 5.1-3.5 6.1-2 7.6 1.3 1.2 1.4 1.1.8-.7-.5-1.8-.3-2.1 1.2-1.6 1.4.4 1.5.4.4-.4-1.4-1-.6-3.6.9-2.7.4.3.6-.4.3-1.6l-.6-2 3.9 2c2.1 1.2 4.3 2.1 4.8 2.1 1.7 0-.7-1.7-4.6-3.3-3.5-1.5-3.7-1.4-5.1.6zM156 217.4c0 .2.8 1 1.8 1.7 1.5 1.3 1.6 1.2.3-.4s-2.1-2.1-2.1-1.3zM161 218c0 .5.5 1 1 1 .6 0 1-.5 1-1 0-.6-.4-1-1-1-.5 0-1 .4-1 1zM183 219c-.6 1.2-.9 2.4-.7 2.7.3.2 1.1-.5 1.7-1.7.6-1.2.9-2.4.7-2.7-.3-.2-1.1.5-1.7 1.7z"/><path d="M40 219c0 .5 1.2 1 2.8.9 2.4 0 2.5-.1.7-.9-2.7-1.2-3.5-1.2-3.5 0zM120.1 220.7c-1 2.6-1 2.7.4.9.8-1.1 1.5-2.3 1.5-2.8 0-1.5-.7-.8-1.9 1.9zM150.7 218.6c.7.3 1 1.1.7 1.8-.3.8.7 1.8 2.3 2.5 3.2 1.3 13.8 1.9 14.9.8.4-.4-2.4-.7-6.2-.7-6.9-.1-10.4-1.4-9.7-3.8.3-.7-.3-1.2-1.4-1.1-1 0-1.3.3-.6.5zM210 218.9c0 .5.5 1.3 1 1.6.6.3 1 .2 1-.4 0-.5-.4-1.3-1-1.6-.5-.3-1-.2-1 .4zM270.7 224c-7.7 8.1-7.3 9 .6 1.2 5.2-5.2 6.5-6 7.7-5 1.2 1.1 1.2 1 .1-.5-.7-.9-1.7-1.7-2-1.7-.4 0-3.3 2.7-6.4 6zM16.2 223.5c1.2 2.4 2.3 4.3 2.6 4.1.4-.5-3.6-8.6-4.3-8.6-.3 0 .5 2 1.7 4.5zM18 220.2c0 .9.5 2 1 2.3 1.3.8 1.3-.5 0-2.5-.8-1.3-1-1.3-1 .2zM46 220c0 .8 4 1.8 13.3 3.5 2.4.5 3.7.4 3.7-.4 0-.6-1.2-1.1-2.7-1.1-1.6 0-5.4-.6-8.5-1.4-3.2-.7-5.8-1-5.8-.6zM109.8 220.2c.9.9 1.5.9 2.4 0 .9-.9.7-1.2-1.2-1.2s-2.1.3-1.2 1.2zM114.1 221.7c-1 2.6-1 2.7.4.9.8-1.1 1.5-2.3 1.5-2.8 0-1.5-.7-.8-1.9 1.9zM222 221.8c0 1.8.5 3.2 1 3.2.6 0 .9-1.1.7-2.5-.5-3.7-1.7-4.2-1.7-.7zM242 221c0 1.5.6 3.2 1.3 3.9 1 1.1 1 1.4 0 1.8-.7.3-1.3.9-1.3 1.5s.6.8 1.3.5c.8-.3 1.4.3 1.4 1.4.1 1.1-.5 1.9-1.3 1.9-1 0-1.3 1-1.1 4 .2 2.2-.1 4-.5 4-.5 0-.6.5-.3 1.1 1.3 2.1 2.7.2 2.9-4 .1-2.3.7-4.6 1.3-4.9.8-.5 1-2.9.6-7s-.9-5.9-1.4-5c-.7 1.1-1.1 1-1.9-.2-.8-1.2-1-1-1 1zM248.5 225c3.3 41.2 6.5 75 7.3 75 .5 0-.3-13.3-1.7-28.5-1.6-15.8-3-32.3-3.7-41.5-.4-4.7-1.1-9.2-1.5-10-.6-.9-.7 1.1-.4 5zM6.6 221.6c-.3.8-1 1.2-1.6.9-.5-.3-1 .1-1 .9 0 .9.2 1.6.5 1.6.8 0 4.5-3.4 4.5-4.2 0-1.4-1.8-.8-2.4.8zM92.1 223.8c-.8 2.3-1.1 4.5-.8 4.9.4.3.7-.3.7-1.5 0-1.1.5-2.2 1.1-2.4.6-.2.9-1.5.7-2.8-.3-2.1-.5-1.9-1.7 1.8zM215.6 221.3c.3 1 .9 1.5 1.2 1.2.3-.3 0-1.1-.7-1.8-1-.9-1.1-.8-.5.6zM255 220.9c2.6.4 3.6 1.2 4 3.1.6 2.4.7 2.3 1.1-.8l.6-3.2-4.6.1c-4.4.2-4.4.2-1.1.8zM25 221.7c0 .6.8 1.7 1.8 2.4 1.6 1.3 1.6 1.3.2-.6-.8-1.1-1.6-2.2-1.7-2.4-.2-.2-.3 0-.3.6zM227.6 221.9c-.4.7-.5 1.5-.2 1.8.9.9 1.9-.4 1.4-1.8-.4-1.1-.6-1.1-1.2 0zM99.5 222.8c-.5.4-1.1 1.7-1.2 3-.2 1.8 0 2 1 1.1.7-.7 1.3-2.1 1.3-3.1s0-1.8-.1-1.8c0 0-.4.4-1 .8zM107.4 223.2c-.3.4.4.8 1.5.8s2.2-.4 2.6-.9c.3-.6-.4-.9-1.6-.8-1.1.1-2.3.5-2.5.9zM136.5 223c1.1.5 2.7.9 3.5.9.9 0 .8-.4-.5-.9-1.1-.5-2.7-.9-3.5-.9-.9 0-.8.4.5.9zM205.7 222.7c-1 .9-.9 2.3.2 2.3.5 0 1.1-.7 1.5-1.5.5-1.5-.5-2-1.7-.8zM274.5 228.5c-3.9 3.6-6.5 6.4-6 6.5 1.5 0 14.6-11.8 13.7-12.4-.4-.2-3.9 2.4-7.7 5.9zM32 225.4c-1.2 3.3-1.3 4.6-.1 4.6.9 0 2.2-6.1 1.5-6.9-.2-.2-.8.8-1.4 2.3zM149.5 224c1.1.5 2.7.9 3.5.9.9 0 .8-.4-.5-.9-1.1-.5-2.7-.9-3.5-.9-.9 0-.8.4.5.9zM170.6 224.2c.3.4 1.2.8 2 .8s1.4-.4 1.4-.8-.9-.8-1.9-.8c-1.1 0-1.7.4-1.5.8zM175 224.2c0 .4 2.3.8 5.1.8 3 0 4.8-.4 4.4-1-.7-1.1-9.5-.9-9.5.2zM212.6 223.8c-.3.5.1 1.5.9 2.2 1.6 1.4 2 .3.6-1.9-.5-.8-1.1-.9-1.5-.3zM20 224.4c0 1.4 7 9.6 8.2 9.6.6 0-.1-1.2-1.5-2.8-1.5-1.5-3.5-3.8-4.6-5.2-1.1-1.4-2-2.1-2.1-1.6zM37.3 228.5c-.5 2.4-.7 4.2-.3 4 .4-.3 1-1.5 1.3-2.7.2-1.3.8-3.1 1.2-4.1.4-.9.3-1.7-.2-1.7s-1.4 2-2 4.5zM198.7 226.2c-1 1.1-1.7 2.2-1.4 2.4.2.2 1.2-.5 2.2-1.6 2.3-2.6 1.6-3.3-.8-.8zM147.5 226c.3.5 1.4 1 2.3 1 1.5 0 1.5-.2.2-1-2-1.3-3.3-1.3-2.5 0zM35.1 227.6c0 1.1.3 1.4.6.6.3-.7.2-1.6-.1-1.9-.3-.4-.6.2-.5 1.3zM40 229.5c-.7 2-1 3.9-.7 4.2.3.3 1-1.2 1.6-3.3 1.4-4.9.7-5.6-.9-.9zM66 227.1c0 1 5 1.8 5.5.9.3-.4-.9-1-2.5-1.2-1.7-.3-3-.1-3 .3zM134 228.2c0 1.7.2 1.8 1.5.8.8-.7 1.5-1.4 1.5-1.5 0-.2-.7-.5-1.5-.9-1-.4-1.5.1-1.5 1.6zM152.7 226.7c-.6.9 15.2.7 16.1-.1.3-.4-3.1-.6-7.6-.6-4.4 0-8.3.3-8.5.7zM174.5 227c-.3.5.1 1 1 1s1.3-.5 1-1c-.3-.6-.8-1-1-1-.2 0-.7.4-1 1zM178.9 227.1c-1 .6-.4.9 1.9.9 1.7 0 3.2-.2 3.2-.4 0-.9-3.9-1.3-5.1-.5zM206.6 227.5c-1.7 1.7-2.1 3.5-.8 3.5.9 0 3.5-4 2.9-4.6-.3-.3-1.2.2-2.1 1.1zM227.2 226.9c-1.7 1-1.2 10.1.6 10.1.6 0 1.2-.7 1.2-1.5s-.6-2.4-1.2-3.5c-1.1-1.7-1-2.2.1-2.9.7-.5 1.2-1.4 1-2-.2-.6-1-.7-1.7-.2zM7.2 228.6c-.7.8-.8 1.4-.3 1.4 1 0 2.5-1.9 2-2.5-.2-.1-1 .3-1.7 1.1zM49 228c0 .5.5 1 1 1 .6 0 1-.5 1-1 0-.6-.4-1-1-1-.5 0-1 .4-1 1zM118.7 228.4c-.4 1-.5 2.1-.2 2.4.9.9 1.7-.6 1.3-2.5-.3-1.7-.4-1.7-1.1.1zM138.3 228.2c-.4.7-2 3.9-3.5 7.1-2.4 5.1-2.6 6-1.3 7.3.8.8 1.8 1.5 2.2 1.6.4 0 2.3.8 4.1 1.7 2.6 1.2 3.3 2 2.9 3.8-.2 1.3 0 2.3.4 2.3.5 0 .9-1.2.9-2.8 0-2.2-.8-3.1-4-4.6-2.2-1.1-4-2.3-4-2.8s-.4-.6-1-.3c-1.8 1.1-1.1-1.8 2-8.3 2.6-5.6 3.3-8.1 1.3-5zM146 228c0 .5.5 1 1.1 1 .5 0 .7-.5.4-1-.3-.6-.8-1-1.1-1-.2 0-.4.4-.4 1zM259.4 230.6c-.3 1.9-.2 4 .3 4.5.6.6 1-.7 1.1-3.6.3-5.4-.5-5.9-1.4-.9zM20 229.7c0 .6.8 1.7 1.8 2.4 1.6 1.3 1.6 1.3.2-.6-.8-1.1-1.6-2.2-1.7-2.4-.2-.2-.3 0-.3.6zM62.6 229.7c-.3.4-.6 1.3-.5 2.2 0 1.2.3 1.1 1-.4s.8-.8.5 2.5l-.5 4.5 1.4-3.5c.7-1.9 1.4-3.8 1.4-4.1.1-1-2.6-1.9-3.3-1.2z"/><path d="M138.1 234.1c-1.2 2.8-2 5.4-1.7 5.7.3.3.8-.4 1.2-1.4.3-1 1.3-3.4 2.1-5.2.8-1.9 1.3-3.5 1.1-3.8-.3-.2-1.4 1.9-2.7 4.7zM142.5 230c-.3.5-.1 1 .4 1 .6 0 1.1-.5 1.1-1 0-.6-.2-1-.4-1-.3 0-.8.4-1.1 1zM151.3 229.8c-.6.4 3.1.7 8.3.7 5.2 0 9.4-.3 9.4-.8 0-.9-16.1-.9-17.7.1zM170 229.9c0 .4 1.1.6 2.5.3 1.4-.2 2.5-.6 2.5-.8 0-.2-1.1-.4-2.5-.4s-2.5.4-2.5.9zM177.5 230c.3.5 1.8 1 3.3.9 2.4 0 2.5-.1.7-.9-2.8-1.2-4.7-1.2-4 0zM201.6 230.3c.3 1 .9 1.5 1.2 1.2.3-.3 0-1.1-.7-1.8-1-.9-1.1-.8-.5.6zM222.6 231.2c-.8 3.3-.7 5.8.3 5.8.4 0 .8-1.8.8-4 0-4.6-.2-4.9-1.1-1.8zM240.1 230.6c0 1.1.3 1.4.6.6.3-.7.2-1.6-.1-1.9-.3-.4-.6.2-.5 1.3zM34.1 230.7c-.1.6-.4 2-.7 3-.5 1.7-.5 1.7.6 0 .6-1 .9-2.3.6-3-.3-.9-.5-.9-.5 0zM96 232c-.6 1.1-.9 2.6-.7 3.3.3.7 1-.1 1.6-1.7 1.4-3.5.7-4.7-.9-1.6zM142.7 236.1c-1.5 3.4-2.5 6.4-2.3 6.7.3.2 1.4-1.9 2.6-4.7 1.2-2.8 2.7-4.9 3.3-4.8.6.1 1.2-.7 1.4-1.8.3-1.5.2-1.7-.5-.6-.7 1-1.1 1-1.4.1-.2-.7-1.6 1.6-3.1 5.1zM3 232.1c0 .5.5.7 1 .4.6-.3 1-.8 1-1.1 0-.2-.4-.4-1-.4-.5 0-1 .5-1 1.1zM9.1 232.4c-.7.8-.8 1.7-.3 1.9.4.3 1.3-.3 2-1.4 1.4-2.2 0-2.6-1.7-.5zM44.7 231.7c-.4.3-.7 1.1-.7 1.7 0 .6.5.5 1.2-.2.6-.6.9-1.4.7-1.7-.3-.3-.9-.2-1.2.2zM50 231.8c0 .4 1.4.9 3.2 1 3.7.3 3.5-.2-.4-1.2-1.6-.3-2.8-.3-2.8.2zM66.6 233.8c-.5 1.8-.5 3.6-.2 3.9.7.7 1.9-4.3 1.3-5.9-.2-.7-.7.2-1.1 2zM130.9 231.9c1.2.8 1.3 1.5.3 3.5-.9 2.1-.9 2.4.3 1.9.8-.3 1.5-1.3 1.5-2.2 0-.9.5-2.2 1.2-2.9.9-.9.5-1.2-1.7-1.2s-2.6.3-1.6.9zM211 231.9c0 .6.9.9 1.9.8 1.1 0 1.7-.5 1.5-.9-.7-1.1-3.4-1-3.4.1zM41.5 233c-.3.5-.1 1 .4 1 .6 0 1.1-.5 1.1-1 0-.6-.2-1-.4-1-.3 0-.8.4-1.1 1zM57.5 233c.3.5.1 1-.5 1s-.8.4-.5 1c1 1.6 2.2 1.2 2.8-1 .3-1.3 0-2-1-2-.8 0-1.1.4-.8 1zM116 232.8c0 .6 7.6 4.9 14.3 8 .4.2.7-.1.7-.6s-2.9-2.2-6.5-3.7c-3.6-1.6-6.5-3.2-6.5-3.7 0-.4-.4-.8-1-.8-.5 0-1 .4-1 .8zM150.6 232.8c.5.4 5 .5 9.9.2l9-.7-9.9-.1c-5.5-.1-9.6.2-9 .6zM170 232.9c0 .7 1 1.2 2.3 1.1 1.2-.1 3.9-.2 6.1-.1 3.4.1 3.7.3 2.5 1.7-1.1 1.3-.9 1.4 1.7.8 1.6-.3 3.4-1.1 3.9-1.7.7-.6.3-.8-1.2-.4-1.2.2-2.3.1-2.5-.5-.5-1.5-12.8-2.3-12.8-.9zM235.1 233.9c-1.1 1.9-1.1 2.5 0 3.2 1.5.9 2.3-.9 1.7-3.9-.3-1.4-.6-1.3-1.7.7zM297.1 233.6c0 1.1.3 1.4.6.6.3-.7.2-1.6-.1-1.9-.3-.4-.6.2-.5 1.3zM200 234.7c0 1.3.5 2.3 1 2.3 1.3 0 1.3-1.1 0-3-.8-1.2-1-1.1-1 .7zM206 235.5c0 1.4.4 2.5 1 2.5.5 0 .9-1.1.8-2.5-.1-1.4-.6-2.5-1-2.5s-.8 1.1-.8 2.5zM262 233.4c0 .2.7.9 1.5 1.6 1.3 1.1 1.4 1 .9-.4-.5-1.4-2.4-2.3-2.4-1.2zM25.4 236.5c3.1 2.8 4.6 3.2 4.6 1 0-.9-.6-1.2-1.5-.9-.8.4-1.7-.1-2.1-1-.3-.9-1.3-1.6-2.2-1.6-1 0-.7.8 1.2 2.5zM35 237c-.7 1.7-1 3.3-.8 3.6.3.3 1.1-.9 1.7-2.7 1.4-4.2.7-4.9-.9-.9zM96.7 236.9c-.9 1.5-1.4 3.1-1 3.5.3.3.1.6-.6.6s-1 .4-.6.9c.3.5.1 1.2-.5 1.6-1.8 1.1-1.1 3.1 1.5 4.3 1.5.7 2.5.8 2.5.2 0-.6-.7-1-1.6-1-1.8 0-1.5-2 1.1-8.3 1.7-4 2.6-4.5 4.5-2.2 1.1 1.3.7 1.9-1.2 1.6-.8-.1-3 6-2.4 6.7.8.7 2.7-.9 2.1-1.8-.6-1 3.1-5.7 4-4.9.3.4-.6 2.7-2 5.3-3.3 5.9-2.4 6 1 .1 2.3-3.8 3-4.3 4.5-3.5 2.4 1.3 3 1.3 3-.1 0-.5-.4-.7-1-.4-.5.3-1 .2-1-.2 0-.9-8.3-5.3-9.8-5.3-.4 0-1.5 1.3-2.5 2.9zM215.5 235c-.4.6-1.1.7-1.7.4-.8-.5-.9-.1-.4 1.2.5 1 .9 2.4.9 3.1 0 .6.9 1.4 1.9 1.6 2 .6 2.5-.8.7-1.9-.6-.3-.9-1.7-.6-3 .5-2.6.2-3-.8-1.4zM278 235.5c-.7.8-1.9 1.5-2.6 1.5-1.6 0-1.6.6-.4 3.5.8 1.9.9 1.9.9-.2.1-1.2 1.1-2.9 2.3-3.7 1.2-.9 1.9-1.8 1.6-2.1-.3-.3-1.1.1-1.8 1zM6 236c0 .5.5 1 1.1 1 .5 0 .7-.5.4-1-.3-.6-.8-1-1.1-1-.2 0-.4.4-.4 1zM37.6 236.6c-.5 1.4-.4 1.5.9.4 1.7-1.4 1.9-2 .6-2-.5 0-1.2.7-1.5 1.6z"/><path d="M39.5 240c-1.1 3.2-2.2 5-3.3 5.1-2 .1 15.6 4.9 17.8 4.8 3.5 0-4-2.7-9.3-3.4-4.6-.5-5.7-1-5.3-2.2.3-.8.6-1.9.6-2.4 0-.4.7-.6 1.5-.3 1 .4 1.5 0 1.5-1.1 0-.9-.5-1.3-1.1-.9-.9.5-1-.1-.5-2 1.1-4.4-.1-2.9-1.9 2.4zM60.6 236.6c-.4.9-.4 1.9-.1 2.2.2.3.7-.3 1.1-1.2.4-.9.4-1.9.1-2.2-.2-.3-.7.3-1.1 1.2zM115 235.7c0 .5 3.9 2.9 8.8 5.3 4.8 2.5 8.9 4.6 9.1 4.7.2.2-.2.9-.9 1.8-1.1 1.3-.6 1.8 3.4 3.5 2.5 1.2 4.6 2.5 4.6 3.1 0 .5-1.7.2-3.7-.7-6.1-2.6-6.9-2.7-4.5-.9 1.4 1 2.1 2.3 1.7 3.4-.3 1.1 0 1.8.9 1.8.8 0 1.2-.6.9-1.3-.3-.9.6-1.1 3.6-.7 2.3.3 4.1.2 4.1-.2 0-1.2-4.9-5.5-6.3-5.5-2.1 0-4-1.7-3.3-2.9.5-.8 1.2-.7 2.2.4 1.7 1.6 3.4 2 3.4.7 0-.4-5.4-3.6-12-7-6.6-3.5-12-5.9-12-5.5zM148 236.1c0 .6.5 1.9 1 3 .7 1.3.7 1.9 0 1.9-.5 0-1 1.2-.9 2.7v2.8l1.1-2.5c1.6-3.5 1.6-9 .1-9-.7 0-1.3.5-1.3 1.1zM164.7 237.7c-1 5.1-1.9 14.8-1.4 14.3.7-.6 2.7-16.3 2.2-16.8-.2-.2-.5.9-.8 2.5zM167.2 237.5c0 1.6.2 2.2.5 1.2.2-.9.2-2.3 0-3-.3-.6-.5.1-.5 1.8zM169.4 236.4c-.3.8-.4 3.1-.1 5.2.4 3.8.4 3.7.5-.8.1-2.6.7-4.9 1.5-5.1.9-.4.9-.6-.1-.6-.7-.1-1.5.5-1.8 1.3zM22.9 237.9c.6 1.1 1.9 2.5 2.9 3 1.5.9 1.5 1.2-1 3.8-3.7 3.9-3.6 4.8.2 1.5 3.8-3.4 3.8-5.2-.1-8.1-2.9-2.2-3-2.2-2-.2zM158.6 237.5c.4.8 1 1.5 1.5 1.5.4 0 .6-.7.3-1.5-.4-.8-1-1.5-1.5-1.5-.4 0-.6.7-.3 1.5zM175 237c0 .5.7.7 1.5.4.8-.4 1.5-.8 1.5-1 0-.2-.7-.4-1.5-.4s-1.5.4-1.5 1zM267.4 237.4c2.3 1.8 3.6 2 3.6.6 0-.6-.4-1-.9-1s-1.8-.3-2.8-.6c-1.6-.5-1.6-.4.1 1z"/><path d="M18 237.4c0 .3.9 1 2 1.6 1.1.6 2 .8 2 .6 0-.3-.9-1-2-1.6-1.1-.6-2-.8-2-.6zM57 237.9c0 .5-1.2 1.2-2.7 1.4-2.6.4-2.6.4.5.6 2.2.1 3.2-.3 3.2-1.4 0-.8-.2-1.5-.5-1.5s-.5.4-.5.9zM112.5 238.2c1.1.8 5.2 3.2 9 5.3 8.1 4.4 8 4.3 7.3 5-.7.7-7.5-2.2-8.3-3.5-.7-1.2-7.6-4.2-8.2-3.6-.5.5 10.3 6.6 11.7 6.6.5 0 1 .4 1 .9 0 1.9 3.7 1.8 4.9-.1 1.5-2.3 1.7-2-3.9-4.7-2.5-1.1-5.9-2.9-7.6-4-1.6-1-4.1-2.2-5.5-2.6-2.3-.7-2.3-.6-.4.7zM2.2 239.2c.2.6 1 1.3 1.6 1.4.7.1.8 0 .2-.3-.5-.2-.8-.9-.4-1.4.3-.5 0-.9-.6-.9-.7 0-1 .5-.8 1.2zM155.2 239.6c-.7.8-.8 1.4-.3 1.4 1 0 2.5-1.9 2-2.5-.2-.1-1 .3-1.7 1.1zM222.8 243.2c-.3 2.9-.1 6 .3 6.8.5.9.9-1.3.9-5.3 0-8-.6-8.8-1.2-1.5zM62.1 241.3c-2 5.3-2.3 6.9-1.2 6.3.6-.4 1.1-1.4 1.1-2.2 0-.8.5-1.3 1.1-1.2 1.8.5 3-3.9 1.3-4.6-.9-.4-1.8.3-2.3 1.7zm1.6 1.9c-.3.8-.6.5-.6-.6-.1-1.1.2-1.7.5-1.3.3.3.4 1.2.1 1.9zM161.5 243c-.4 2.3-.5 4.3-.2 4.6.2.3.7-1.4 1.1-3.7.4-2.3.5-4.4.2-4.6-.2-.2-.7 1.4-1.1 3.7zM171.1 240.6c0 1.1.3 1.4.6.6.3-.7.2-1.6-.1-1.9-.3-.4-.6.2-.5 1.3zM177.5 240c.3.5 1.2.7 2 .3 2.1-.7 1.9-1.3-.6-1.3-1.1 0-1.8.4-1.4 1zM207.5 239.8c-1.4 1-1.7 3.2-.5 3.2 1.1 0 2.6-2.8 1.8-3.5-.2-.2-.8-.1-1.3.3zM226.6 240.6c-.9.9-1.4 1.9-1.1 2.2.3.3 1.3-.2 2.2-1.1.9-.9 1.4-1.9 1.1-2.2-.3-.3-1.3.2-2.2 1.1zM48.6 241.4c2.1 1.5 3 1.4 1.9-.3-.3-.6-1.4-1.1-2.3-1.1-1.3 0-1.3.2.4 1.4zM143.7 242c.3 1.2.6 1.9.7 1.8.1-.2.8-1.1 1.5-2.1 1.2-1.5 1.1-1.7-.7-1.7-1.5 0-1.9.5-1.5 2zM158 241c0 .5.7.7 1.5.4.8-.4 1.5-.8 1.5-1 0-.2-.7-.4-1.5-.4s-1.5.4-1.5 1zM104.2 245.6c-1.2 2.5-2.6 4.3-3.1 4-1-.6-5.5 6.3-4.7 7.1.2.3 1.4-1.2 2.5-3.4 1.1-2.1 2-3.2 2.1-2.5 0 2.1-4.1 9.6-4.8 8.6-.8-1.1-5.8-4.4-6.7-4.4-1.6 0-.1 2.1 2 2.6 1.3.3 2.9 1.2 3.6 2 1.8 2.2 2.5 1.7 5.5-4.4 6-12 8.5-15.2 5.9-7.7-.3 1.1.1.7 1-.8 1.6-2.8 1.4-5.7-.3-5.7-.4 0-1.8 2-3 4.6zM202 242.5c.7.9 1.5 1.3 1.7 1.1.7-.7-.7-2.6-1.9-2.6-.6 0-.6.6.2 1.5zM22.5 243.1c-.4.6-.5 1.2-.2 1.5.2.3.7-.2 1-1.1.7-1.7.1-2-.8-.4zM187.6 242.9c-.4.6-.2 1.1.4 1.1.6 0 .9.3.7.7-.3.5 1.4.6 3.8.5 4.8-.4 5.4.4 6 7.8.3 3.2.1 3.9-.5 2.5-.8-1.8-.9-1.7-.9.7-.1 2 .3 2.6 1.4 2.2 1-.4 1.5 0 1.5 1.5 0 1.2.5 2.1 1.1 2.1.8 0 .8-.9.3-2.8-.5-1.5-.9-5.4-.9-8.6 0-6.4-.4-6.8-8-7-1.6 0-3.3-.5-3.6-.9-.4-.5-1-.4-1.3.2zM234.5 243c.3.5.8 1 1.1 1 .2 0 .4-.5.4-1 0-.6-.5-1-1.1-1-.5 0-.7.4-.4 1zM240.8 242.9c1 .6 1.2 4.4.8 17.2-.3 9-.7 18.4-1 20.9-.3 2.5-.8 6.7-1 9.5-.3 2.7-.7 6-1 7.3-.3 1.5-.1 2.2.6 2 .6-.2 1.3-1.3 1.4-2.4.8-5.8 1.6-14.1 1.6-15.7-.1-.9.3-1.7.8-1.7s1.1.8 1.3 1.7c.3 1 .5-.8.6-3.9 0-3.1-.3-6-.9-6.3-.5-.3-1-1.4-1-2.3 0-1.5.2-1.5 1-.2.9 1.3 1 1.3 1 0 0-.9-.6-2.2-1.2-2.9-1-1.1-1-1.3 0-.7 1.6.9 1.6-1.6 0-3.2-.9-.9-.9-1.2 0-1.2s1.2-1.5 1.1-4.9c-.2-2.8-.6-4.8-1-4.5-.4.2-.6-1.5-.4-3.8.4-4-.5-5.8-3-5.8-.5 0-.4.4.3.9zM244 276c0 1.1-.4 2-.9 2s-.7-.9-.4-2c.3-1.1.7-2 .9-2 .2 0 .4.9.4 2zM16.3 244.5c-1.9 2.1-1.6 2.7.7 1.3 1.1-.7 2-1.6 2-2 0-1.2-1.4-.9-2.7.7zM30 244.1c0 .5.5.9 1 .9.6 0 1 .5 1 1.1 0 .6-.7.9-1.5.5-.8-.3-1.5-.2-1.5.3s.9 1.1 2 1.4c1.1.3 2 .1 2-.3 0-.5.3-1.5.6-2.3.3-.9-.3-1.6-1.5-2-1.2-.3-2.1-.1-2.1.4zM106.8 252c-2.7 5.1-4.1 8.7-3.2 8.3.8-.3 1.4-1 1.4-1.7s.3-.6.9.2c.7 1.1.9 1 1.4-.3.4-.9.3-1.3-.3-1-.6.3-1-.1-1-.9s.9-2 1.9-2.6c1.3-.7 1.8-1.7 1.4-3.2-.4-1.8-.2-2 .6-.8.5.8 1.3 1.1 1.8.7.4-.5.1-1.2-.7-1.7-1.1-.7-1.1-1.1-.1-2.4.7-.8 1.1-2 .9-2.5-.1-.6-2.4 3-5 7.9zM158.2 244.6c-.7.8-.8 1.4-.3 1.4 1 0 2.5-1.9 2-2.5-.2-.1-1 .3-1.7 1.1zM.6 245.5c.4.8 1.1 1.5 1.6 1.5.6 0 .5-.6-.2-1.5-.7-.8-1.4-1.5-1.6-1.5-.2 0-.1.7.2 1.5zM46 244.4c0 .2.7.6 1.5 1 .8.3 1.5.1 1.5-.4 0-.6-.7-1-1.5-1s-1.5.2-1.5.4zM54.5 245c.3.5.8 1 1.1 1 .2 0 .4-.5.4-1 0-.6-.5-1-1.1-1-.5 0-.7.4-.4 1zM166.1 245.6c0 1.1.3 1.4.6.6.3-.7.2-1.6-.1-1.9-.3-.4-.6.2-.5 1.3zM179.1 245.1c-1.4.5-3.2.8-4 .7-1.7-.4-2.1.1-8.4 9.5-2.1 3.2-4.2 5.7-4.7 5.7s-1.1.9-1.5 2c-.3 1.1-1.9 3.2-3.5 4.7s-2.7 3-2.4 3.5c.3.4-.3.8-1.3.9-1.8 0-8.6 8.3-7.6 9.2.8.9 5.3-3.5 4.6-4.6-.3-.6-.1-.7.5-.3.6.4 3-1.2 5.4-3.4 2.4-2.3 5.3-4.6 6.5-5 1.5-.6 2.1-1.5 1.7-2.5-.4-1 0-1.5 1.2-1.5 2.1-.1 6-4.7 4.9-5.8-.3-.4-1.4.4-2.4 1.6-2.1 2.8-3.4 1.9-1.9-1.3.6-1.4 1.6-2.1 2.4-1.8 1 .4 1.3-.2 1.2-1.7-.2-1.3.3-2.5 1.2-2.8 1.3-.5 1.3-.3 0 1.3s-1.3 1.8 0 1.3c.8-.2 1.6-1.4 1.8-2.6.2-1.3.8-2 1.4-1.6.8.5.9.1.5-1s-.2-1.6.6-1.4c1.7.3 5.7-1.2 5.7-2.1 0-.5 1.1-.7 2.5-.6 1.4.2 2.5-.1 2.5-.6 0-1.2-3.8-1.1-6.9.2zM165 262c0 .5-.4 1-1 1-.5 0-1-.5-1-1 0-.6.5-1 1-1 .6 0 1 .4 1 1zm-11 12c0 .5-.4 1-1 1-.5 0-1-.5-1-1 0-.6.5-1 1-1 .6 0 1 .4 1 1zM207.1 246.7c-.1 1.7.3 3.4.8 3.7 1.2.8 2.4-2.6 1.3-3.3-.5-.3-1.2-1.3-1.5-2.1-.3-.8-.6-.1-.6 1.7zM211.5 245c.3.5 1 1 1.6 1 .5 0 .9-.5.9-1 0-.6-.7-1-1.6-1-.8 0-1.2.4-.9 1zM226 247c0 1.6.5 3 1 3 .6 0 1-1.4 1-3 0-1.7-.4-3-1-3-.5 0-1 1.3-1 3zM215.7 247c.3 1.1 0 2-.6 2s-1.1-.5-1.1-1.2c0-.6-.3-.9-.6-.5-.8.8 3.4 7.7 4.7 7.7.5 0 .9-.5.9-1 0-.6-.4-1-1-1-1.3 0-1.3-4.7 0-5.5 1.3-.8.3-2.5-1.5-2.5-.8 0-1.1.7-.8 2zM235.3 246.6c-1.9 1.9-1.6 3 .7 3 2.1 0 2.5-1.2 1.2-3.2-.5-.9-1-.8-1.9.2zM276.2 247.5c0 1.6.2 2.2.5 1.2.2-.9.2-2.3 0-3-.3-.6-.5.1-.5 1.8zM114.7 247.9c-.3 1.2-.1 1.9.4 1.5.6-.3 1.5-.1 2.2.4.7.5 2.1.6 3.2.1 1.7-.7 1.8-.8.3-1-1-.1-2.3-.2-2.8-.3-.6 0-1.4-.7-1.9-1.4-.6-1-1-.9-1.4.7zM168.2 248c0 1.4.2 1.9.5 1.2.2-.6.2-1.8 0-2.5-.3-.6-.5-.1-.5 1.3zM18 248.1c0 .5.5.7 1 .4.6-.3 1-.8 1-1.1 0-.2-.4-.4-1-.4-.5 0-1 .5-1 1.1zM158 248.6c0 .8.5 1.2 1 .9.6-.3 1-1 1-1.6 0-.5-.4-.9-1-.9-.5 0-1 .7-1 1.6zM0 249c0 .5.5 1 1.1 1 .5 0 .7-.5.4-1-.3-.6-.8-1-1.1-1-.2 0-.4.4-.4 1zM12 249c0 .5.5 1 1 1 .6 0 1-.5 1-1 0-.6-.4-1-1-1-.5 0-1 .4-1 1zM24.5 249c-.3.5.1 1 .9 1 .9 0 1.6-.5 1.6-1 0-.6-.4-1-.9-1-.6 0-1.3.4-1.6 1zM37 248.9c0 .5 3.9 1.6 8.6 2.5 4.7 1 9.2 2 10 2.3.8.3 1.4.1 1.4-.4 0-.6-3.3-1.5-7.2-2.2-4-.7-8.5-1.7-10-2.2-1.6-.4-2.8-.4-2.8 0zM147.7 248.7c-1 .9-.9 2.3.1 2.3.5 0 .9-.7.9-1.5 0-1.7-.1-1.8-1-.8z"/><path d="M181.4 250c.3 1.4.9 4.1 1.4 6 .8 2.8 1 3 1 1 0-1.4-.6-4.1-1.4-6-.9-2.4-1.3-2.7-1-1zM189.9 248.9c.8.5 1 1.4.6 2.1-.5.9-.4 1.1.3.6 1.8-1.1 1.4-3.6-.5-3.6-1.4 0-1.5.2-.4.9zM194 249c0 .5.5 1 1 1 .6 0 1-.5 1-1 0-.6-.4-1-1-1-.5 0-1 .4-1 1zM273.4 251.5c.1 1.9.4 3.5.9 3.5.9 0 .9-4.2-.1-5.8-.5-.8-.8.1-.8 2.3zM56 249.8c0 .5 1.6.9 3.5 1 1.9.1 3.5-.2 3.5-.6 0-.4-1.6-.9-3.5-1-1.9-.2-3.5.1-3.5.6zM91.7 249.7c-.4.3-.7 1.1-.7 1.7 0 .6.5.5 1.2-.2.6-.6.9-1.4.7-1.7-.3-.3-.9-.2-1.2.2zM30.7 250.7c-1.1 1-.8 4.5.3 3.8.5-.3.6-1.3.3-2.1-.5-1.3-.1-1.5 1.7-.9 1.5.5 2 .4 1.6-.4-.8-1.2-2.9-1.5-3.9-.4zM104.2 251.2c-1 1.3-2.8 6.7-2 5.8.9-.8 3.9-7 3.4-7-.2 0-.8.6-1.4 1.2zM176.6 251.5c.4.8.8 1.5 1 1.5.2 0 .4-.7.4-1.5s-.4-1.5-1-1.5c-.5 0-.7.7-.4 1.5zM7.6 252.5c.4.8 1.1 1.5 1.6 1.5.6 0 .5-.6-.2-1.5-.7-.8-1.4-1.5-1.6-1.5-.2 0-.1.7.2 1.5zM23.8 253.5c-1 1.3-1.3 2.5-.8 2.7.6.2.6.9 0 1.8-.9 1.3-1.1 1.3-2.1 0-.9-1.3-1-1.3-.6 0 .7 2.7 3.2 1.6 4.2-1.8.7-2.5 1.4-3.2 2.8-2.8 1.5.4 1.6.2.6-1-1.5-1.9-2.1-1.8-4.1 1.1zM36.4 252.1c-.3.5.6.9 2 .9 3.1 0 3.4-.6.6-1.3-1.1-.3-2.3-.1-2.6.4zM82 252.3c0 .7-1.1 3.8-2.6 6.8-8.1 17.3-10.4 22.7-10.4 24.4 0 .8-.4 1.5-.9 1.5-1.2 0-2.1 3.9-1.1 4.5 1 .6 3.2-2 2.3-2.8-.3-.4-.1-.7.6-.7.8 0 1-.7.6-2-.3-1.1-.2-2 .3-2 .6 0 1.6-2.2 2.3-5 .7-2.7 1.6-4.7 2.1-4.4.4.3.8-.4.8-1.4 0-2.2 2.3-4.6 3.4-3.5.4.4.4 0 0-1-.3-.9-.2-1.7.4-1.7.6 0 .9-.8.7-1.8-.1-.9.4-2.7 1.1-4 .8-1.2 1.2-2.2 1-2.2-.3 0-.1-1.4.4-3 .5-1.8.5-3-.1-3-.5 0-.9.6-.9 1.3zM94.5 252c-.3.5-.1 1 .4 1 .6 0 1.1-.5 1.1-1 0-.6-.2-1-.4-1-.3 0-.8.4-1.1 1zM150.8 251.7c.7.3 1.6.2 1.9-.1.4-.3-.2-.6-1.3-.5-1.1 0-1.4.3-.6.6zM5.3 253.6c2.3 2.8 2.1 3.7-.4 2.3-1.6-.8-2.4-.8-3.3.1-.8.8-.7 1 .7.4 1.3-.4 1.6-.2 1.1.9-.3.8-.1 1.8.5 2.2.7.4.8 0 .4-1.1-.5-1.3-.3-1.6 1-1.1 2.7 1 3.1-1.3.6-3.7-2.2-2-2.2-2-.6 0zM13.5 253c-.3.5-.1 1 .4 1 .6 0 1.1-.5 1.1-1 0-.6-.2-1-.4-1-.3 0-.8.4-1.1 1zM58.5 252.9c-.3.5.2 1.1 1 1.5.8.3 1.7.1 2-.3.3-.5-.2-1.1-1-1.5-.8-.3-1.7-.1-2 .3zM118 253c0 .5.5 1 1.1 1 .5 0 .7-.5.4-1-.3-.6-.8-1-1.1-1-.2 0-.4.4-.4 1zM126.7 252.7c-.4.3-.7 1.1-.7 1.7 0 .6.5.5 1.2-.2.6-.6.9-1.4.7-1.7-.3-.3-.9-.2-1.2.2zM194 255c0 1.6.4 3 .8 3 .5 0 .7-1.4.4-3-.2-1.7-.6-3-.8-3-.2 0-.4 1.3-.4 3zM208.7 252.7c-1 .9-.8 11.3.1 11.3.5 0 .8-2.7.8-6s-.1-6-.2-6c0 0-.4.3-.7.7zM222.6 252.7c1.6.3 2.1 1 1.8 2.6-.4 1.8-.3 1.9.4.4.4-1 1.2-1.8 1.7-1.7.5.1 1.1-.2 1.2-.7.2-.4-1.4-.9-3.5-.9-2-.1-2.7 0-1.6.3zM235.4 252.8c.3.5 0 1.3-.6 1.5-1 .4-.9.8.2 1.6 1.2.9 1.3 1.4.3 3.1-1.8 2.7-1.6 5 .1 2.7 1.1-1.4 1.5-1.5 1.9-.5.2.7.2-.1 0-1.7-.3-1.7-.5-3.8-.5-4.7.1-1-.4-2.1-1-2.4-.6-.4-.8-.2-.4.4zM43 253.9c1.3.9 8 2.4 9.5 2.2 1.6-.3.6-1.5-1.5-1.7-1.4-.2-4.1-.6-6-.9-2.5-.5-3.1-.4-2 .4zM111 254.5c-1.1 1.3-1 1.4.4.9.9-.3 1.6-1 1.6-1.5 0-1.3-.6-1.1-2 .6zM121 255.6c0 1.4.4 2.3 1 1.9.6-.3 1-1.5 1-2.6 0-1-.4-1.9-1-1.9-.5 0-1 1.2-1 2.6zM128.6 254.7c-.6 1.4-.5 1.5.5.6.7-.7 1-1.5.7-1.8-.3-.3-.9.2-1.2 1.2zM146.3 253.7c-3.7.7-2.6 1.9 1.2 1.5 1.9-.2 3.5-.8 3.5-1.3 0-.9-.8-1-4.7-.2zM152.5 254c-.4.6.8 1 2.9 1 2 0 3.6-.5 3.6-1 0-.6-1.3-1-2.9-1-1.7 0-3.3.4-3.6 1zM161.3 253.7c.9.2 2.5.2 3.5 0 .9-.3.1-.5-1.8-.5-1.9 0-2.7.2-1.7.5zM175 253.9c0 .6.4 1.3 1 1.6.6.3.7-.1.4-.9-.7-1.8-1.4-2.1-1.4-.7zM212 253.4c0 .2.7.7 1.6 1 .8.3 1.2.2.9-.4-.6-1-2.5-1.4-2.5-.6zM35.5 255.5c1.7.7 5.3 1.6 8 1.9l5 .7-3.7-1.4c-2-.8-5.6-1.7-8-2-4.3-.6-4.3-.6-1.3.8zM203 254.7c.1 1.8 1.8 3.5 2.4 2.4.4-.6.4-1.6.1-2.1-.7-1.2-2.5-1.3-2.5-.3zM11.8 255.8c.8.5 1 1.6.5 2.8-.7 1.8-.6 1.8 1.2.1 1.5-1.6 1.6-2 .4-2.8-.8-.5-1.8-.9-2.4-.9-.5 0-.4.4.3.8z"/><path d="M26.2 256.3c0 .7-.3 2.3-.6 3.7-.4 1.4-.3 1.8 0 1 .4-.8 1.1-2.3 1.5-3.2.5-.9.5-1.9.1-2.2-.5-.3-.9 0-1 .7zM130.1 257.7c-1 2.6-1 2.7.4.9.8-1.1 1.5-2.3 1.5-2.8 0-1.5-.7-.8-1.9 1.9zM31.5 257c-.3.5-.1 1 .4 1 .6 0 1.1-.5 1.1-1 0-.6-.2-1-.4-1-.3 0-.8.4-1.1 1zM57 256.4c0 .2.9.6 2 .9 1.1.3 2 .1 2-.4s-.9-.9-2-.9-2 .2-2 .4zM121.1 263.8l-3.9 7.8 2.9 1.6c1.6 1 2.9 1.3 2.9.8 0-.6-.4-1-1-1-1.4 0-1.2-1.3.6-3.6 1.4-1.8 1.5-1.8.8.6-.7 2.9-.2 2.6 1.6-.9.8-1.5.8-2.1.1-1.7-.6.4-1.1.1-1.1-.8 0-1.9 1.7-3 2.3-1.4.2.7.4-.1.4-1.7 0-1.7.3-3.9.7-5 .4-1.1-1.1 1.5-3.4 5.9-4.4 8.4-6.7 9.9-2.9 1.9 4.4-9.2 4.9-10.3 4.4-10.3-.3 0-2.2 3.5-4.4 7.8zM148.4 257.1c-.7 1.1 2.7 1.1 4.5 0 .9-.6.5-.9-1.3-.9-1.5 0-2.9.4-3.2.9zM158.3 256.7c.9.2 2.5.2 3.5 0 .9-.3.1-.5-1.8-.5-1.9 0-2.7.2-1.7.5zM172.5 257c.3.5 1 1 1.6 1 .5 0 .9-.5.9-1 0-.6-.7-1-1.6-1-.8 0-1.2.4-.9 1zM273.5 257c.3.5.8 1 1.1 1 .2 0 .4-.5.4-1 0-.6-.5-1-1.1-1-.5 0-.7.4-.4 1zM34 258.1c0 .5.5.7 1 .4.6-.3 1-.8 1-1.1 0-.2-.4-.4-1-.4-.5 0-1 .5-1 1.1zM110.6 258.5c.4.8 1.1 1.5 1.6 1.5.6 0 .5-.6-.2-1.5-.7-.8-1.4-1.5-1.6-1.5-.2 0-.1.7.2 1.5zM114.7 257.7c-.4.3-.7 1.1-.7 1.7 0 .6.5.5 1.2-.2.6-.6.9-1.4.7-1.7-.3-.3-.9-.2-1.2.2zM137.5 258c-.3.5.1 1 1 1s1.3-.5 1-1c-.3-.6-.8-1-1-1-.2 0-.7.4-1 1zM141.6 257.8c-.3.5.8.6 2.5.4 1.6-.2 2.9-.6 2.9-.8 0-.8-4.9-.4-5.4.4zM212.5 258c.3.5 1 1 1.6 1 .5 0 .9-.5.9-1 0-.6-.7-1-1.6-1-.8 0-1.2.4-.9 1zM226.1 258.5c-.2 1.1-.5 1.5-.8.7-.2-.6-.8-1.2-1.3-1.2-.9 0-.4 23.6.6 25.1.3.5.2 1.5-.2 2.1-1.1 1.8-1.2 4.8-.2 5.4.4.3.8 2.4.8 4.7 0 3.6.3 4.3 2 4.3 1.1 0 2-.6 2-1.3 0-.7-.7-1.3-1.4-1.3-1.2 0-1.5-2.5-1.8-13.6-.2-7.4.1-14.3.6-15.2.6-1 .5-1.7-.2-2-1.5-.5-1.6-2.9-.1-3.4.6-.2.9-1.7.6-3.3-.2-1.9-.5-2.3-.6-1zM50 259c1.9 1.3 3 1.3 3 0 0-.6-1-1-2.2-1-1.9 0-2 .2-.8 1zM54 259.1c0 .5 1.1.9 2.5.9s2.5-.2 2.5-.4-1.1-.6-2.5-.8c-1.4-.3-2.5-.1-2.5.3zM88 258.8c0 .4 1.6 1.6 3.5 2.6 3.6 2 4.2 3 2.5 4.1-.5.3-1 0-1-.7s-.7-.2-1.6 1c-1.5 2.1-1.4 2.4.8 4.2 2.5 2.1 3.8 2.5 3.8 1.1 0-.5-.9-1.3-2-1.6-1.1-.3-2-1.2-2-2s3.7.7 10.1 4.1c5.5 3 10.3 5.4 10.5 5.4 1.3 0 .1-1.7-1.9-2.6-2.7-1.3-15.1-7.6-15.6-8-.1-.2 0-.8.4-1.4.4-.7 1-.8 1.4-.4.3.5 4.5 2.9 9.3 5.4 8.8 4.5 9.5 5.3 7.9 7.9-.8 1.2-1.8 1-6.2-1.2-2.8-1.5-5.4-2.5-5.7-2.2-.7.7-.9.5 7.7 4.9 4 2 7.5 3.5 7.8 3.2.2-.2-.5-.7-1.6-1.1-1.2-.3-2.1-1-2.1-1.4 0-1.8 1.5-1.9 4.4-.4 1.7.9 3.7 1.7 4.4 1.7.7.1 1.7.8 2.2 1.6.5.8 1.2 1.1 1.6.7.4-.4-.2-1.5-1.5-2.3-1.2-.9-2-2.2-1.7-2.9.5-1.3-4.2-4-5.2-3-.4.3.4.8 1.6 1.2 1.2.3 2.2 1.2 2.2 2s-.6 1.2-1.2.9c-.7-.3-2.1-.9-3.1-1.2-1.1-.4-1.6-1.3-1.3-2.1.3-.8 0-2-.7-2.6-1.1-1.1-8.3-5.1-15.4-8.5-1.8-.9-3.3-2-3.3-2.5 0-.4-.4-.5-1-.2-.5.3-1 .1-1-.5s-.4-.8-1-.5c-.5.3-1 .2-1-.3s-1.1-1.4-2.5-2c-1.4-.6-2.5-.8-2.5-.4zM217 259.9c0 1-.6 2.4-1.4 3-1.2 1-1 1.5.7 3.6 1.2 1.3 2.5 2.1 2.9 1.9.5-.3.1-1.2-.7-2-1.7-1.8-2-4-.5-4.9.6-.3 1-1.3 1-2.1s-.4-1.4-1-1.4c-.5 0-1 .8-1 1.9zM15 259c-1 4.7-.7 6.1 1.3 7.1 2.2 1 2.2 1 .2-.6-1.6-1.3-1.7-1.7-.6-2.4 1-.7 1.1-1.3.2-2.7-.6-1.1-1.1-1.7-1.1-1.4zM38.9 260.7c-1.3 1.6-1.2 1.7.4.4 1.6-1.3 2.1-2.1 1.3-2.1-.2 0-1 .8-1.7 1.7zM118.1 259.9c-.8.5-1 1.4-.6 2.1.4.7.2 1.6-.5 2-.8.5-.9 1-.2 1.4.8.5 4.2-4.4 4.2-6.1 0-.6-1.5-.3-2.9.6zM133.7 260.4c-.4 1.1-.5 2.1-.2 2.4.3.3.5.1.5-.4s1.5-.9 3.3-.8c1.7 0 4.3-.3 5.7-.7 1.7-.5.8-.6-2.7-.5-3 .2-5.4-.2-5.6-.8-.2-.5-.7-.2-1 .8zM146.1 259.5c.8.7 10.8.9 11.6.2.3-.4-2.2-.7-5.7-.7s-6.1.2-5.9.5zM5.5 261c-.3.5-.1 1 .4 1 .6 0 1.1-.5 1.1-1 0-.6-.2-1-.4-1-.3 0-.8.4-1.1 1zM30.5 261c-.3.5-.1 1 .4 1 .6 0 1.1-.5 1.1-1 0-.6-.2-1-.4-1-.3 0-.8.4-1.1 1zM48.7 262c.3 1.1.9 1.7 1.5 1.4.5-.3.4-1.2-.3-2-1.6-1.9-1.8-1.8-1.2.6zM180 260.8c-.5.2-1 .8-1 1.3 0 .6.5.7 1 .4.6-.4 3.8-.6 7.1-.6s7-.4 8.2-.9c1.5-.6-.5-.8-6-.7-4.6.1-8.7.3-9.3.5zM20 261.4c0 .2.7.9 1.5 1.6.9.7 1.5.8 1.5.2 0-.5-.7-1.2-1.5-1.6-.8-.3-1.5-.4-1.5-.2zM27.6 262.6c-.4 1-.9 3-1.1 4.4-.3 2-.1 1.9 1.1-.9.8-1.8 1.3-3.8 1.1-4.4-.2-.6-.7-.2-1.1.9zM54.6 265c-2 4.9-2 6.1-.2 3.5 1.3-2 3-7.5 2.2-7.5-.2 0-1.1 1.8-2 4zM129.5 264.2l-1.6 3.3 2-2.5c2-2.4 2.6-4 1.6-4-.2 0-1.2 1.5-2 3.2zM229.6 263.2c-.9 3.6-.7 4.8.8 4.8.9 0 1.3-1 1.2-3-.3-3.8-1.2-4.7-2-1.8zM274.1 262.6c0 1.1.3 1.4.6.6.3-.7.2-1.6-.1-1.9-.3-.4-.6.2-.5 1.3z"/><path d="M11.2 263.3c-.8.9-.3 1.9 2 3.7 3.1 2.5 7.8 3.5 7.8 1.7 0-.5-.9-.7-2.1-.4-2.4.7-7.2-3-6.5-5 .7-1.7.1-1.7-1.2 0zM87 262.9c0 1.1 3.1 2.4 3.9 1.6.3-.3-.1-1-.9-1.5-1.9-1.2-3-1.2-3-.1zM101 263c0 .5.5 1 1.1 1 .6 0 3.8 1.6 7.1 3.5 3.3 2 6.3 3.3 6.6 3 .7-.7.8-.6-7.1-4.8-7.6-4.1-7.7-4.1-7.7-2.7zM108 263.5c.7.8 2 1.5 2.8 1.5 1.3 0 1.2-.3-.4-1.5-2.5-1.9-4-1.9-2.4 0zM147.3 262.7c.9.2 2.5.2 3.5 0 .9-.3.1-.5-1.8-.5-1.9 0-2.7.2-1.7.5zM171.5 263c-1.8.8-1.8.9.5.9 1.4 0 3.2-.4 4-.9 1.2-.8 1.2-1-.5-.9-1.1 0-2.9.4-4 .9zM249.2 264c0 1.4.2 1.9.5 1.2.2-.6.2-1.8 0-2.5-.3-.6-.5-.1-.5 1.3zM2.9 264.7c-1.3 1.6-1.2 1.7.4.4.9-.7 1.7-1.5 1.7-1.7 0-.8-.8-.3-2.1 1.3zM135 264c-1.2.8-1 1 .8 1 1.3 0 2-.4 1.7-1-.7-1.2-.6-1.2-2.5 0zM139.8 263.7c.7.3 1.6.2 1.9-.1.4-.3-.2-.6-1.3-.5-1.1 0-1.4.3-.6.6zM183 263.7c0 .5 4 .6 9 .5 4.9-.2 9 0 9 .5s-3.7 1-8.2 1.1c-9 .3-14.3 1.1-13.4 2 1 .9 4.6 1 4 0-.3-.4 4.6-.8 10.8-.7 8.7 0 10.7.3 8.8 1.1-1.4.5-5.4.7-9 .5-5.7-.5-6-.4-2.5.4 2.2.6 6.5.9 9.6.7 5.2-.3 5.5-.1 5.1 1.7-.5 1.8-.4 1.8 1.1.6 1.5-1.2 1.7-1.2 1.1.3-.5 1.4-2.3 2.1-4.6 1.7-.5 0-.8.4-.8 1 0 .7 1.1.9 2.6.6 1.9-.3 2.7 0 3.3 1.6.9 2.5.2 6.9-1 6.1-.5-.3-.9 0-.9.5 0 .6.6 1.1 1.3 1.1.8 0 1.3 1.1 1.2 2.7-.1 1.6.3 3.3.8 4 .4.6.7 1.7.6 2.5-.4 3.3.2 5.8 1.5 5.8 1.1 0 1.2-.8.5-3.8-.5-2-.9-7.1-.9-11.2-.1-10.2-1.3-14.8-4.7-17.6-1.5-1.3-3.4-2.3-4-2.4-.7 0-1.3-.5-1.3-1 0-.6-3.8-1-9.5-1-5.2 0-9.5.3-9.5.7zM5.5 265c-.3.5-.1 1 .4 1 .6 0 1.1-.5 1.1-1 0-.6-.2-1-.4-1-.3 0-.8.4-1.1 1zM20 264.9c0 .5.5 1.3 1 1.6.6.3 1 .2 1-.4 0-.5-.4-1.3-1-1.6-.5-.3-1-.2-1 .4zM145.9 266c-1.4.9-2 1-1.5.2.4-.6.3-1.2-.2-1.2-.6 0-1.2.7-1.6 1.5-.3.8-1 1.5-1.6 1.5-.6 0-.8-.5-.5-1 1.4-2.3-1.4-.8-3 1.7-1.3 1.9-1.4 2.5-.4 2.1.8-.3 3.9-1.3 6.9-2.3 6.1-1.9 9.9-4.5 6.3-4.2-1.1 0-3.1.8-4.4 1.7zM155.8 264.7c.7.3 1.6.2 1.9-.1.4-.3-.2-.6-1.3-.5-1.1 0-1.4.3-.6.6zM31.8 265.5c-.3.6-.8 2.8-1.1 5l-.7 4 1.5-3.9c1.4-3.7 1.6-7.3.3-5.1zM37.5 266c-.3.5-.1 1 .4 1 .6 0 1.1-.5 1.1-1 0-.6-.2-1-.4-1-.3 0-.8.4-1.1 1zM48 266c0 .5.5 1 1.1 1 .5 0 .7-.5.4-1-.3-.6-.8-1-1.1-1-.2 0-.4.4-.4 1zM87 265.9c0 .5.5 1.3 1 1.6.6.3 1 .2 1-.4 0-.5-.4-1.3-1-1.6-.5-.3-1-.2-1 .4zM114 266c0 .5.5 1 1.1 1 .5 0 .7-.5.4-1-.3-.6-.8-1-1.1-1-.2 0-.4.4-.4 1zM171.3 265.7c-1.3.2-2.3.8-2.3 1.3s1.5.4 3.3-.2c5.2-1.8 4.7-2.2-1-1.1zM234.7 266.3c-.6 1.7.3 6.6 1.4 7.3.5.3.7-1.3.5-3.6-.4-4.5-1.1-5.8-1.9-3.7zM131.7 269c-2.2 2.6-2.2 2.8.6 2.3 1.4-.3 2.3-1.2 2.3-2.4 0-2.4-.7-2.4-2.9.1zM5 269c-.9.6-1 1-.3 1 .6 0 1.5-.5 1.8-1 .8-1.2.4-1.2-1.5 0zM84.5 269c-.4.6-.3 1 .1 1 .3 0-.1 1.1-1 2.4-1 1.5-1.2 2.7-.6 3.1.6.3 1-.1 1-.9 0-.9.9-2.5 1.9-3.5 1.6-1.6 1.7-2.1.6-2.5-.8-.3-1.7-.1-2 .4zM126.6 269.5c-.9 2.6-.7 3.2.5 1.2.6-1 .9-2.1.6-2.3-.2-.3-.7.2-1.1 1.1zM171 269c-3.5.7-3.5.7-.5.9 1.7 0 3.7-.4 4.5-.9 1.7-1.1 1.1-1.1-4 0zM47 270.6c0 .8.5 1.2 1 .9.6-.4.8-1.1.5-1.6-.9-1.4-1.5-1.1-1.5.7zM161 270c0 .5.5 1 1.1 1 .5 0 .7-.5.4-1-.3-.6-.8-1-1.1-1-.2 0-.4.4-.4 1zM7 271.5c0 .8.4 1.5 1 1.5.5 0 .7-.7.4-1.5-.4-.8-.8-1.5-1-1.5-.2 0-.4.7-.4 1.5zM33 271.5c-.7.9-1.1 1.7-.9 2 .3.2 1-.5 1.7-1.5 1.4-2.4 1-2.6-.8-.5zM41 270.4c0 .2.7.7 1.6 1 .8.3 1.2.2.9-.4-.6-1-2.5-1.4-2.5-.6zM86.7 274.5c-1.4 2.5-2.2 4.5-1.8 4.5.4 0 1.7-2 2.9-4.5s2-4.5 1.8-4.5c-.2 0-1.6 2-2.9 4.5zM142.5 271c-1.3.6-1.5.9-.5.9.8 0 2.2-.4 3-.9 1.8-1.2.2-1.2-2.5 0zM175 271.1c0 .5.5.7 1 .4.6-.3 1-.8 1-1.1 0-.2-.4-.4-1-.4-.5 0-1 .5-1 1.1zM213.6 271.5c.4.8 1 1.5 1.5 1.5s.9-.7.9-1.5-.7-1.5-1.5-1.5c-.9 0-1.2.6-.9 1.5zM229.2 273c.3 1.6.2 3-.2 3-.8 0-.5 11.9.4 12.7.3.3.6-.7.6-2.3 0-1.6.3-5.9.7-9.7.4-5 .3-6.7-.7-6.7-.8 0-1.1 1-.8 3zM20 273c1.3 1.1 2.5 2 2.7 2 .2 0-.2-.9-.9-2s-1.9-2-2.7-2c-.9 0-.6.7.9 2zM87.2 279c-2.3 4.4-3.8 8-3.3 8 .9 0 8.6-14.8 8-15.5-.3-.2-2.4 3.2-4.7 7.5zM97 271.9c0 1 3 2.4 3.7 1.7.3-.2-.5-.9-1.6-1.6-1.2-.6-2.1-.7-2.1-.1zM218.1 271.9c-.8.5-1.4 2.6-1.4 5.1 0 2.3-.3 3.6-.7 3-.5-.9-.9-.9-1.4-.1-.4.6-.6 1.1-.4 1.1.2 0 1.8.4 3.6.9 2 .6 3.2.6 3.2 0 0-.5-.7-.9-1.5-.9-1.7 0-2-3.6-.5-7.4 1.1-2.9 1.1-2.9-.9-1.7zM275.3 283.2c0 6.9.3 13.2.8 14 1 1.5 1-8.3-.1-19.2-.6-6.8-.7-6.4-.7 5.2zM4.6 273.7c-.6 1.4-.5 1.5.5.6.7-.7 1-1.5.7-1.8-.3-.3-.9.2-1.2 1.2zM162 273.1c0 .7 1.6.8 4.8.3 6.4-.9 6.6-1.4.4-1.4-3 0-5.2.4-5.2 1.1zM177.8 272.7c.7.3 1.6.2 1.9-.1.4-.3-.2-.6-1.3-.5-1.1 0-1.4.3-.6.6zM182 272.9c0 .6.4 1.3 1 1.6.6.3.7-.1.4-.9-.7-1.8-1.4-2.1-1.4-.7z"/><path d="M192.5 273c.3.5.8 1 1.1 1 .2 0 .4-.5.4-1 0-.6-.5-1-1.1-1-.5 0-.7.4-.4 1zM239.1 273.6c0 1.1.3 1.4.6.6.3-.7.2-1.6-.1-1.9-.3-.4-.6.2-.5 1.3zM278 276c0 2.2.3 4 .8 4 .4 0 .6-1.8.4-4-.2-2.2-.6-4-.8-4-.2 0-.4 1.8-.4 4zM128.6 274.1c.5.8-.1 1-2 .7-1.4-.3-2.6-.2-2.6.2 0 1.2 3.9 1.9 4.6.9.3-.5 1-.7 1.5-.4.5.3.6-.1.3-.9-.3-.9-1-1.6-1.6-1.6-.5 0-.6.5-.2 1.1zM197.5 274.1c-.5.7-.4 1.4.3 1.7.7.2 1.2 1.2 1.2 2.3 0 1 .5 1.9 1 1.9 1.4 0 1.2-2-.4-4.9-1-1.8-1.5-2-2.1-1zM233 277.2c0 2.4.4 4.9.9 5.7 1.1 1.7.3 4.3-1 3.5-.5-.3-.9-.2-.7.3.1.4-.2 2.3-.6 4.1-.5 2.1-.4 3.8.4 4.7.7.8 1 2.2.6 3-.3.8-.1 1.5.4 1.5.6 0 1-.8 1-1.8 0-.9.3-2.7.6-4 .4-1.2.2-2.2-.4-2.2-.6 0-1.3.8-1.5 1.7-.4 1.4-.5 1.3-.6-.4 0-1.2.6-2.9 1.5-3.8.9-.8 1.8-3.7 2-6.3.3-3.6.2-4.3-.7-3.2-.8 1.1-.9.5-.6-2.8.3-2.3.1-4.2-.4-4.2s-.9 1.9-.9 4.2zM250.3 280.8c0 4.5.4 7.7.8 7 .3-.7.3-4.5-.1-8.3l-.8-7 .1 8.3zM92.5 275.1c-.4.6-.5 1.2-.2 1.5.2.3.7-.2 1-1.1.7-1.7.1-2-.8-.4zM94 277.2c-.7 1.8-1.5 3.7-1.7 4.3-.3.5.5-.5 1.7-2.2 1.2-1.8 2.6-3 3.1-2.7.5.3.6-.2.3-1-.9-2.4-1.8-1.9-3.4 1.6zM175.3 275.4c-2.4 1.1-3.1 4-1.2 5.2.7.4.9 0 .5-1.4-.5-1.3-.1-2.2 1-2.6 2.1-.8 3.7.2 3 2-.3.8.1 1.4.9 1.4s1.5.4 1.5 1c0 .5.4 1 1 1 .9 0-2.6-6.7-3.9-7.3-.3-.2-1.6.1-2.8.7zM188.2 276c.7 1.1 1.7 2 2.2 2 .5 0 .1-.9-.9-2s-2-2-2.2-2c-.2 0 .2.9.9 2zM27 276c1.8 1.2 3 1.3 3 .2 0-.4-1-.9-2.2-.9-1.8-.2-2 0-.8.7zM35.5 276c.3.5.8 1 1.1 1 .2 0 .4-.5.4-1 0-.6-.5-1-1.1-1-.5 0-.7.4-.4 1zM132.6 278.1c-.9 1.8-1.4 3.4-1.2 3.7.3.2 1.2-1 2.1-2.8.9-1.8 1.4-3.4 1.2-3.7-.3-.2-1.2 1-2.1 2.8zM15.5 277c-.3.5-.1 1 .4 1 .6 0 1.1-.5 1.1-1 0-.6-.2-1-.4-1-.3 0-.8.4-1.1 1zM158 276.5c0 .5.5 1.7 1 2.5s1 1 1 .5c0-.6-.5-1.7-1-2.5s-1-1.1-1-.5zM163 277.1c0 .5-.5.7-1.2.3-.8-.5-.9-.2-.5 1 .4 1 .7 2 .7 2.2 0 .2.4.4 1 .4.5 0 .7-.7.4-1.5-.4-.9.2-1.8 1.7-2.4l2.4-1h-2.2c-1.3-.1-2.3.4-2.3 1zM1.5 278c.3.5 1 1 1.6 1 .5 0 .9-.5.9-1 0-.6-.7-1-1.6-1-.8 0-1.2.4-.9 1zM33.7 278.4c1.8.8 5.4 1.7 8 2l4.8.5-5.5-1.5c-3-.8-6.6-1.8-8-2-2-.4-1.9-.2.7 1zM80.6 278.5c-.9 2.6-.7 3.2.5 1.2.6-1 .9-2.1.6-2.3-.2-.3-.7.2-1.1 1.1zM219.5 278c-.3.5-.1 1 .4 1 .6 0 1.1-.5 1.1-1 0-.6-.2-1-.4-1-.3 0-.8.4-1.1 1zM26.6 279.4c1 .8 2.1 1.2 2.4 1 .5-.6-2.1-2.4-3.4-2.4-.6 0-.1.6 1 1.4z"/><path d="M47.6 280.6c-.7 2.6-.9 2.6-6.4 2.1-4.4-.5-5.1-.4-3.2.4 1.4.6 3.7 1.1 5.3 1.1 3.1.1 3.3.5 1.1 3.7-1.6 2.2-1.5 2.2.3 1 1.9-1.1 5.7-10.9 4.2-10.9-.4 0-1 1.2-1.3 2.6zM90 279.1c0 .5.5.7 1 .4.6-.3 1-.8 1-1.1 0-.2-.4-.4-1-.4-.5 0-1 .5-1 1.1zM100 278.7c.8.3 1.9 1.1 2.3 1.7.6.7.7.6.4-.4-.2-.8-1.2-1.6-2.3-1.7-1.3-.2-1.5-.1-.4.4zM127 280c0 .5.5 1 1 1 .6 0 1-.5 1-1 0-.6-.4-1-1-1-.5 0-1 .4-1 1zM8 280.9c0 .6.4 1.3 1 1.6.6.3.7-.1.4-.9-.7-1.8-1.4-2.1-1.4-.7zM18 281.1c0 .5.5.7 1 .4.6-.3 1-.8 1-1.1 0-.2-.4-.4-1-.4-.5 0-1 .5-1 1.1zM21.5 281c.3.5 1.6 1 2.8.9 2.1 0 2.1-.1.2-.9-2.8-1.2-3.7-1.2-3 0zM31.5 281c2.7 1.2 4.3 1.2 2.5 0-.8-.5-2.2-.9-3-.9-1 0-.8.3.5.9zM83.1 280.7c-.1.6-.4 2-.7 3-.5 1.7-.5 1.7.6 0 .6-1 .9-2.3.6-3-.3-.9-.5-.9-.5 0zM94.8 280.5c-.3.6 0 1.5.7 2.2 1 1 1.4.9 1.9-.3.3-.8.2-1.3-.3-.9-.5.3-1.1 0-1.3-.7-.3-.7-.7-.8-1-.3zM186.5 281.7c.3.8.5 1.9.5 2.4s.7.9 1.6.9c1.3 0 1.4-.3.4-1.5-.6-.8-.9-1.8-.6-2.3.3-.5-.2-.9-1-.9-.9 0-1.3.6-.9 1.4zM191 281c0 .5.5 1 1 1 .6 0 1-.5 1-1 0-.6-.4-1-1-1-.5 0-1 .4-1 1zM99.5 282c-.3.5.1 1 1 1s1.3-.5 1-1c-.3-.6-.8-1-1-1-.2 0-.7.4-1 1zM165.4 282.4c-.8.9-.9 1.8-.2 3.1.8 1.4 1.2 1.5 1.9.4.8-1.2 1-1.2 1.8 0 .7 1 .9.7.8-1.2-.2-2.4-.3-2.5-2.1-.9s-1.8 1.6-1.2-.6c.8-2.5.6-2.7-1-.8zM29 283c0 .5.5 1 1 1 .6 0 1-.5 1-1 0-.6-.4-1-1-1-.5 0-1 .4-1 1zM75.2 283.7c0 1-.1 2.4-.3 3.2-.2.7.2 1.6.9 1.8.8.3 1.2-.7 1.2-3.1 0-2-.4-3.6-.9-3.6-.6 0-.9.8-.9 1.7zM78 283.6c0 .8.5 1.2 1 .9.6-.3 1-1 1-1.6 0-.5-.4-.9-1-.9-.5 0-1 .7-1 1.6zM139.1 283c0 .8-3.6 4.7-7.8 8.7-5.4 5.1-7.2 7.3-5.9 7.3 1.1 0 4.9-2.9 8.4-6.5 3.6-3.6 6.6-6.5 6.8-6.5.9 0 5.4 9.7 5.4 11.6 0 1.9.5 2.4 2.5 2.4 1.4 0 2.5-.5 2.5-1 0-.6-.6-1-1.4-1-.9 0-1.2-.7-.9-2.1.4-1.4 0-2.5-1-3.1-1-.5-1.4-1.5-1-2.5.5-1.2.3-1.4-.7-.8-.8.5-1.1.4-.7-.2.4-.6.2-2.5-.5-4.3-1-2.9-1.2-3.1-2.3-1.7-1.6 2.2-2.2 2.1-2.8-.1-.3-1.2-.5-1.3-.6-.2zM197.3 282.7c.9.2 2.5.2 3.5 0 .9-.3.1-.5-1.8-.5-1.9 0-2.7.2-1.7.5zM203 282.8c0 .5 1.2 1.9 2.7 3.3l2.7 2.4-2.3-3.3c-2.3-3.2-3.1-3.9-3.1-2.4zM279 287.5c0 3.2.3 5.5.7 5.2.7-.8.5-9.8-.2-10.5-.3-.3-.5 2.1-.5 5.3zM13.7 284.1c.7.7 1.5 1 1.8.7.3-.3-.2-.9-1.2-1.2-1.4-.6-1.5-.5-.6.5zM90.4 284.2c-.4.7-.3.8.4.4s1.2-.2 1.2.3c0 .6.5 1.1 1 1.1 1.5 0 1.2-1.7-.5-2.3-.8-.4-1.7-.1-2.1.5zM104.3 283.7c1.2.3 1.6 1 1.2 2.4-.4 1-.2 1.9.3 1.9s1.2-.9 1.5-1.9c.5-1.9-1.1-3.2-3.6-3-.7.1-.4.3.6.6zM111.1 288c-3 4.9-4.4 8.4-1.8 4.5 3-4.5 5.8-9.5 5.4-9.5-.3 0-1.9 2.3-3.6 5zM121 284.1c0 .5.5.7 1 .4.6-.3 1-.8 1-1.1 0-.2-.4-.4-1-.4-.5 0-1 .5-1 1.1zM158 283.9c0 .5-.3 1.8-.6 2.8-.5 1.6-.4 1.6 1-.1 1.8-2.3 2-3.6.6-3.6-.5 0-1 .4-1 .9zM181.5 284c-.4.6.2 1 1.2 1 1.2.1.9.5-1.2 1.6-1.6.8-2.2 1.2-1.2.9 1-.3 2.5-.5 3.3-.5.8 0 1.4-.6 1.4-1.4 0-1.7-2.7-2.9-3.5-1.6z"/><path d="M34.9 285.5c1.8.8 4.7 1.5 6.5 1.4 2.7-.1 2.4-.3-1.9-1.5-6.5-1.8-8.9-1.7-4.6.1zM135 285c0 .5.5 1 1 1 .6 0 1-.5 1-1 0-.6-.4-1-1-1-.5 0-1 .4-1 1zM194 285c0 .5.5 1 1 1 .6 0 1-.5 1-1 0-.6-.4-1-1-1-.5 0-1 .4-1 1zM215.7 285.9c1.9 1.6 2.1 2.3 1.3 5.2-1 3.3.1 6.2 1.7 4.4.5-.4.3-1-.3-1.2-1.4-.5-.6-4.9 1.2-6.4 1.7-1.4 1.8-2.9.3-2.9-.5 0-.7.4-.4 1 .3.5.2 1-.3 1-.6 0-1.2-.7-1.6-1.5-.3-.8-1.3-1.5-2.3-1.5-1.6.1-1.5.3.4 1.9zM27 286c.8.5 2 1 2.5 1 .6 0 .3-.5-.5-1s-1.9-1-2.5-1c-.5 0-.3.5.5 1zM117.5 286c-.3.5-.1 1 .4 1 .6 0 1.1-.5 1.1-1 0-.6-.2-1-.4-1-.3 0-.8.4-1.1 1zM171.9 287c-1.3 1-1.9 1.9-1.3 2 .6 0 1.7-.6 2.4-1.4.6-.8 2.1-1.7 3.3-1.9l2.2-.4-2.1-.2c-1.2 0-3.2.8-4.5 1.9zM201.5 286c.3.5 1.1 1 1.6 1 .6 0 .7-.5.4-1-.3-.6-1.1-1-1.6-1-.6 0-.7.4-.4 1zM12.5 287c-.3.6.1.7.9.4 1.8-.7 2.1-1.4.7-1.4-.6 0-1.3.4-1.6 1zM88.7 287.5c-.4.8-.3 1.6.1 1.9.4.3.9-.4.9-1.5.2-2.3-.3-2.5-1-.4zM196 287c0 .5.7 1 1.6 1 .8 0 1.2-.5.9-1-.3-.6-1-1-1.6-1-.5 0-.9.4-.9 1zM238.1 287.6c0 1.1.3 1.4.6.6.3-.7.2-1.6-.1-1.9-.3-.4-.6.2-.5 1.3zM20.4 289.4c.1 2 2.6 3.6 2.6 1.6 0-.6-.4-.9-.9-.5-.5.3-1.1-.3-1.4-1.2-.3-1.5-.4-1.5-.3.1zM32.5 288c.3.5 1.3 1 2.1 1s1.2-.5.9-1c-.3-.6-1.3-1-2.1-1s-1.2.4-.9 1zM160.5 288.1c-.4.6-.5 1.2-.2 1.5.2.3.7-.2 1-1.1.7-1.7.1-2-.8-.4zM189.6 287.8c-.3.5.8.6 2.5.4 1.6-.2 2.9-.6 2.9-.8 0-.8-4.9-.4-5.4.4zM9 289.9c.5 1.1 1.5 2.3 2.1 2.7.6.3.3-.5-.6-2-2-3-3-3.5-1.5-.7zM25.6 288.8c-.3.5.1.9.9.9s1.2-.4.9-.9c-.3-.4-.7-.8-.9-.8-.2 0-.6.4-.9.8zM116 289c0 .5.5 1 1 1 .6 0 1-.5 1-1 0-.6-.4-1-1-1-.5 0-1 .4-1 1zM131 289.5c0 .8.2 1.5.4 1.5s.6-.7 1-1.5c.3-.8.1-1.5-.4-1.5-.6 0-1 .7-1 1.5zM167.2 289.6c-1 1.1-1 1.8-.2 3.2.9 1.4 1.1 1.4.7.1-.3-.9 0-2.2.6-2.8.6-.6.9-1.3.6-1.5-.2-.2-1 .2-1.7 1zM175 289c-.8.5-1 1-.5 1 .6 0 1.7-.5 2.5-1s1.1-1 .5-1c-.5 0-1.7.5-2.5 1zM182.5 288.9c-1.6.4-4.3 1.5-6 2.5-1.6.9-2.1 1.4-1 1 1.1-.3 3.4-1.1 5-1.7 7.4-2.5 8.3-3.3 2-1.8zM30.1 289.7c-.1.6-.4 2-.7 3-.5 1.7-.5 1.7.6 0 .6-1 .9-2.3.6-3-.3-.9-.5-.9-.5 0zM38.8 289.7c.6.2 1.8.2 2.5 0 .6-.3.1-.5-1.3-.5-1.4 0-1.9.2-1.2.5zM71 293.6c-.7 2.4-1.7 4.4-2.2 4.4-.5 0-.6.5-.3 1 .9 1.5 2.5.2 2.5-2 0-2.8 2.3-3 5.5-.4 1.7 1.3 4.1 2.4 5.5 2.4 2 0 1.7-.4-2-2.1-4.8-2.1-6.1-3.5-5.4-5.4.3-.7-.1-1.5-.9-1.8-1.1-.4-1.8.7-2.7 3.9zM78.6 289.8c-.6.9 5 3.5 6.5 3 .6-.2-.5-1.1-2.5-2-1.9-1-3.7-1.4-4-1zM192.5 290c-.3.5.1 1 .9 1s1.8-.5 2.1-1c.3-.6-.1-1-.9-1s-1.8.4-2.1 1zM197 290c0 .5 1 1 2.3 1 1.8 0 1.9-.2.7-1-1.9-1.3-3-1.3-3 0zM101.6 291.5c-.3.8-.1 1.5.3 1.5.5 0 1.1-.7 1.5-1.5.3-.8.1-1.5-.3-1.5-.5 0-1.1.7-1.5 1.5zM170 291c-.8.5-1 1-.5 1 .6 0 1.7-.5 2.5-1s1.1-1 .5-1c-.5 0-1.7.5-2.5 1zM186 291c-1.2.8-1.1 1 .8 1 1.2 0 2.2-.5 2.2-1 0-1.3-1.1-1.3-3 0zM7 292c0 .5.5 1 1.1 1 .5 0 .7-.5.4-1-.3-.6-.8-1-1.1-1-.2 0-.4.4-.4 1zM105 293c-.6 1.1-.8 2-.6 2 .3 0 1-.9 1.6-2 .6-1.1.8-2 .6-2-.3 0-1 .9-1.6 2zM153 291.8c0 .6-.8 1.3-1.7 1.5-1.6.4-1.6.5-.1.6 1.8.1 3.4-1.6 2.4-2.6-.3-.4-.6-.1-.6.5zM160 292.2c.6.7 1.7 2.2 2.5 3.3 1.3 1.9 1.4 1.9.8-.5-.6-2.4-2-4-3.6-4-.4 0-.3.6.3 1.2zM220.1 292.6c0 1.1.3 1.4.6.6.3-.7.2-1.6-.1-1.9-.3-.4-.6.2-.5 1.3zM227.6 292.6c-.8 2.1-.8 2.4.3 2.4 1.2 0 2.2-2.8 1.2-3.5-.5-.3-1.2.2-1.5 1.1zM14.3 292.7c-1.5.5-1.7 2.3-.4 2.3.5 0 1.1-.7 1.5-1.5.3-.8.4-1.5.3-1.4-.1 0-.8.3-1.4.6zM43.2 294c0 1.4.2 1.9.5 1.2.2-.6.2-1.8 0-2.5-.3-.6-.5-.1-.5 1.3zM64.1 293.6c0 1.1.3 1.4.6.6.3-.7.2-1.6-.1-1.9-.3-.4-.6.2-.5 1.3z"/><path d="M76 292.5c0 .7 7.2 4.1 10.3 4.9 1.8.4 2.6.3 2.2-.3-.3-.6-2.1-1.3-4-1.7-1.9-.3-3.5-1-3.5-1.6 0-.5-.4-.6-1-.3-.5.3-1 .1-1-.4 0-.6-.7-1.1-1.5-1.1s-1.5.2-1.5.5zM176.8 294.1c-2.1 1.1-3.8 2.1-3.8 2.4 0 .4 9.1-3.4 9.9-4.1 1.3-1.2-3 0-6.1 1.7zM194.2 294.5c.6 1.4 1.3 2.4 1.4 2.2.6-.6-.9-4.7-1.7-4.7-.5 0-.3 1.1.3 2.5zM251.1 293.6c0 1.1.3 1.4.6.6.3-.7.2-1.6-.1-1.9-.3-.4-.6.2-.5 1.3zM26.5 294c.3.5.8 1 1.1 1 .2 0 .4-.5.4-1 0-.6-.5-1-1.1-1-.5 0-.7.4-.4 1zM92 295.9c3 1.6 6.6 3.1 8 3.5 1.4.3-.6-1-4.5-2.9-3.8-1.9-7.4-3.4-8-3.4-.5 0 1.5 1.3 4.5 2.8zM136.7 293.7c-.4.3-.7 2-.7 3.6 0 3.8 1.3 2.7 1.6-1.3.2-3.2.1-3.4-.9-2.3zM165.1 294.6c0 1.1.3 1.4.6.6.3-.7.2-1.6-.1-1.9-.3-.4-.6.2-.5 1.3zM168.9 294.3c-1.6 1.2-1.5 3.7.2 3.7.6 0 .7-.5.3-1.1-.3-.6 0-1.5.7-2 .7-.4 1.1-1 .9-1.3-.3-.2-1.2.1-2.1.7zM23.5 295.1c-.4.6-.5 1.2-.2 1.5.2.3.7-.2 1-1.1.7-1.7.1-2-.8-.4zM192 294.9c0 .6.4 1.3 1 1.6.6.3.7-.1.4-.9-.7-1.8-1.4-2.1-1.4-.7zM17.6 296.5c-.9 2.6-.7 3.2.5 1.2.6-1 .9-2.1.6-2.3-.2-.3-.7.2-1.1 1.1zM142.2 297.5c0 1.7.2 2.2.5 1.2.2-.9.2-2.3 0-3-.3-.6-.5.1-.5 1.8zM280.2 297.5c0 1.7.2 2.2.5 1.2.2-.9.2-2.3 0-3-.3-.6-.5.1-.5 1.8zM10 297.1c-1.2.9-1.2 1 .4.5 1.1-.4 2.3-.1 2.8.6.7 1 .9 1 .6-.1-.6-2-2-2.3-3.8-1zM20.1 297.6c0 1.1.3 1.4.6.6.3-.7.2-1.6-.1-1.9-.3-.4-.6.2-.5 1.3zM62.7 298c-.3 1.1-.1 2 .4 2s.9-.9.9-2-.2-2-.4-2-.6.9-.9 2zM72 296.5c0 1.6 2.2 3.5 4 3.5 1.1-.1 1-.4-.5-1.2-1.1-.6-2.3-1.6-2.7-2.2-.5-.7-.8-.8-.8-.1zM186.9 297c-.6.4 0 .9 1.5 1.2 1.6.3 2.6.1 2.6-.7 0-1.3-2.3-1.6-4.1-.5zM200.6 297.3c.3 1 .9 1.5 1.2 1.2.3-.3 0-1.1-.7-1.8-1-.9-1.1-.8-.5.6zM206 297.9c0 .6.4 1.2.8 1.5.5.3.9-.1.9-.9s-.4-1.5-.9-1.5c-.4 0-.8.4-.8.9zM216 298.4c0 .9.5 1.6 1 1.6.6 0 1-.4 1-.9 0-.6-.4-1.3-1-1.6-.5-.3-1 .1-1 .9zM91 299c.8.5 2 1 2.5 1 .6 0 .3-.5-.5-1s-1.9-1-2.5-1c-.5 0-.3.5.5 1zM121 299.1c0 .5.5.7 1 .4.6-.3 1-.8 1-1.1 0-.2-.4-.4-1-.4-.5 0-1 .5-1 1.1zM163.5 299c-.3.5-.1 1 .4 1 .6 0 1.1-.5 1.1-1 0-.6-.2-1-.4-1-.3 0-.8.4-1.1 1z"/></svg>