<?xml version="1.0" standalone="no"?>
<!DOCTYPE svg PUBLIC "-//W3C//DTD SVG 20010904//EN"
 "http://www.w3.org/TR/2001/REC-SVG-20010904/DTD/svg10.dtd">
<svg version="1.0" xmlns="http://www.w3.org/2000/svg"
 width="300.000000pt" height="300.000000pt" viewBox="0 0 300.000000 300.000000"
 preserveAspectRatio="xMidYMid meet">
<metadata>
Created by potrace 1.10, written by Peter Selinger 2001-2011
</metadata>
<g transform="translate(0.000000,300.000000) scale(0.100000,-0.100000)"
fill="#000000" stroke="none">
<path d="M1882 2990 c2 -8 14 -16 26 -18 12 -2 20 -7 17 -12 -3 -4 4 -6 15 -3
16 4 20 0 21 -18 0 -22 1 -23 9 -4 5 11 9 15 9 10 1 -6 21 -21 46 -35 31 -17
41 -27 32 -33 -7 -5 -4 -6 10 -2 24 6 62 -26 64 -54 0 -10 3 -11 5 -4 3 7 12
9 20 6 13 -5 13 -7 2 -14 -11 -7 -10 -10 1 -21 10 -10 12 -10 7 0 -4 7 -1 12
8 12 8 0 17 -6 19 -12 4 -9 6 -8 6 3 1 20 -90 99 -140 121 -22 9 -39 22 -39
28 0 14 -87 53 -101 45 -5 -4 -17 -1 -26 7 -14 11 -16 11 -11 -2z"/>
<path d="M1654 2974 c2 -10 8 -20 15 -22 8 -3 12 3 9 14 -4 23 -27 31 -24 8z"/>
<path d="M1727 2982 c-5 -7 -13 -10 -18 -7 -14 9 -11 -9 5 -31 13 -17 15 -18
21 -2 9 24 2 57 -8 40z"/>
<path d="M1521 2964 c-54 -13 -126 -55 -142 -84 -5 -8 -31 -53 -57 -100 -106
-184 -122 -220 -133 -313 -6 -48 -9 -92 -7 -99 2 -6 14 4 26 23 12 19 22 30
22 24 0 -5 7 1 16 13 13 19 14 26 2 40 -7 9 -19 21 -25 25 -7 4 -13 13 -13 18
0 6 15 1 34 -11 21 -12 37 -17 41 -11 3 6 -8 17 -24 26 -27 14 -29 18 -21 41
6 14 8 30 4 35 -7 11 18 37 31 32 6 -2 11 9 11 23 1 14 9 33 17 42 9 9 19 29
22 45 4 15 15 32 25 37 12 6 16 17 13 30 -4 14 0 20 11 20 9 0 16 4 16 9 0 5
3 17 7 27 5 13 3 15 -8 9 -11 -7 -11 -5 1 9 13 16 76 50 120 64 8 3 32 5 53 4
40 0 44 3 25 22 -10 9 -25 9 -67 0z m-291 -519 c-7 -8 -17 -12 -22 -9 -6 4 -5
10 3 15 22 14 33 10 19 -6z"/>
<path d="M1835 2970 c3 -5 8 -10 11 -10 2 0 4 5 4 10 0 6 -5 10 -11 10 -5 0
-7 -4 -4 -10z"/>
<path d="M1774 2949 c-3 -6 -2 -14 3 -18 6 -3 13 -13 16 -21 3 -8 4 0 4 17 -2
34 -10 42 -23 22z"/>
<path d="M1630 2910 c20 -29 40 -39 40 -22 0 10 -43 52 -54 52 -4 0 2 -13 14
-30z"/>
<path d="M1486 2901 c-15 -6 -16 -10 -7 -15 7 -5 17 -4 23 2 8 8 16 4 29 -11
10 -12 18 -17 19 -10 0 13 -27 43 -38 42 -4 0 -16 -4 -26 -8z"/>
<path d="M1693 2885 c0 -8 4 -15 9 -15 4 0 8 7 8 15 0 8 -4 15 -8 15 -5 0 -9
-7 -9 -15z"/>
<path d="M1877 2883 c5 -12 7 -12 14 -1 7 11 11 10 20 -2 9 -13 10 -13 6 0 -2
8 -13 15 -24 16 -15 1 -20 -3 -16 -13z"/>
<path d="M1453 2875 c0 -8 4 -12 9 -9 5 3 6 10 3 15 -9 13 -12 11 -12 -6z"/>
<path d="M1880 2849 c0 -5 5 -7 10 -4 6 3 10 8 10 11 0 2 -4 4 -10 4 -5 0 -10
-5 -10 -11z"/>
<path d="M1550 2846 c0 -9 30 -14 35 -6 4 6 -3 10 -14 10 -12 0 -21 -2 -21 -4z"/>
<path d="M1905 2840 c-3 -5 -2 -10 4 -10 5 0 13 5 16 10 3 6 2 10 -4 10 -5 0
-13 -4 -16 -10z"/>
<path d="M1940 2840 c0 -5 4 -10 9 -10 6 0 13 5 16 10 3 6 -1 10 -9 10 -9 0
-16 -4 -16 -10z"/>
<path d="M1710 2811 c0 -6 4 -13 10 -16 6 -3 7 1 4 9 -7 18 -14 21 -14 7z"/>
<path d="M1387 2789 c7 -7 15 -10 18 -7 3 3 -2 9 -12 12 -14 6 -15 5 -6 -5z"/>
<path d="M1930 2793 c1 -18 18 -35 24 -24 4 6 4 16 1 21 -7 12 -25 13 -25 3z"/>
<path d="M2005 2790 c3 -5 8 -10 11 -10 2 0 4 5 4 10 0 6 -5 10 -11 10 -5 0
-7 -4 -4 -10z"/>
<path d="M2065 2790 c3 -5 11 -10 16 -10 6 0 7 5 4 10 -3 6 -11 10 -16 10 -6
0 -7 -4 -4 -10z"/>
<path d="M1973 2760 c-3 -11 -10 -20 -15 -20 -5 0 -3 -7 6 -15 20 -21 24 -19
20 11 -2 20 1 24 13 20 13 -5 14 -4 3 9 -16 20 -21 19 -27 -5z"/>
<path d="M2133 2766 c9 -7 17 -18 17 -25 0 -6 7 -11 15 -11 8 0 15 -4 15 -9 0
-5 8 -7 19 -4 21 5 65 -43 57 -63 -3 -8 1 -11 10 -7 9 3 14 13 11 24 -3 11 -1
17 4 13 5 -3 9 -12 9 -20 0 -8 4 -13 8 -10 10 6 49 -67 54 -101 2 -12 -1 -23
-7 -25 -5 -1 -17 24 -26 57 -9 35 -18 54 -23 47 -4 -7 -2 -28 4 -48 7 -19 13
-42 14 -49 1 -8 5 -17 8 -21 4 -3 5 -11 4 -17 -2 -7 -1 -9 1 -4 12 20 20 2 21
-45 0 -47 -1 -49 -8 -20 -12 52 -23 52 -15 0 4 -26 4 -52 0 -58 -4 -7 -9 -33
-11 -58 -4 -49 -14 -70 -14 -31 -1 22 -2 21 -15 -8 -8 -18 -19 -33 -25 -33 -6
0 -9 -4 -6 -8 3 -5 -1 -20 -9 -35 -7 -14 -10 -29 -7 -33 4 -4 1 -4 -6 0 -9 5
-11 17 -7 33 5 21 4 23 -7 12 -8 -8 -14 -25 -16 -39 -2 -29 -42 -109 -78 -157
-13 -17 -24 -37 -24 -44 0 -16 44 33 106 119 33 45 51 61 62 57 9 -3 13 -3 9
1 -3 4 -1 19 7 33 36 71 46 100 53 151 5 43 8 50 13 30 6 -23 7 -23 12 10 3
19 4 69 3 110 -2 41 -4 92 -4 113 -1 21 -5 36 -9 33 -4 -3 -17 12 -27 32 -21
40 -55 75 -64 67 -3 -4 1 -10 9 -15 13 -8 12 -10 -2 -10 -11 0 -18 8 -18 19 0
16 -21 29 -47 29 -3 0 -10 6 -14 14 -6 9 -9 9 -9 1 0 -7 8 -17 18 -22 9 -6 12
-11 7 -11 -6 0 -22 11 -37 25 -15 14 -33 25 -40 25 -8 -1 -7 -5 5 -14z m144
-550 c-7 -14 -13 -23 -15 -21 -7 6 9 45 18 45 4 0 3 -11 -3 -24z"/>
<path d="M1445 2760 c-13 -6 -15 -9 -5 -9 8 0 22 4 30 9 18 12 2 12 -25 0z"/>
<path d="M1341 2744 c0 -11 3 -14 6 -6 3 7 2 16 -1 19 -3 4 -6 -2 -5 -13z"/>
<path d="M2030 2751 c0 -6 4 -13 10 -16 6 -3 7 1 4 9 -7 18 -14 21 -14 7z"/>
<path d="M2109 2743 c-1 -5 -1 -11 0 -15 0 -5 -6 -8 -14 -8 -8 0 -15 -5 -15
-10 0 -7 6 -7 20 0 11 6 20 17 20 25 0 15 -9 21 -11 8z"/>
<path d="M2044 2700 c3 -14 10 -38 15 -55 9 -26 10 -25 5 15 -3 25 -10 50 -16
55 -6 6 -7 1 -4 -15z"/>
<path d="M2147 2690 c-21 -24 -21 -30 -3 -30 7 0 16 10 19 22 8 30 4 31 -16 8z"/>
<path d="M1309 2673 c-13 -16 -12 -17 4 -4 9 7 17 15 17 17 0 8 -8 3 -21 -13z"/>
<path d="M1845 2680 c4 -6 11 -8 16 -5 14 9 11 15 -7 15 -8 0 -12 -5 -9 -10z"/>
<path d="M2205 2680 c3 -5 8 -10 11 -10 2 0 4 5 4 10 0 6 -5 10 -11 10 -5 0
-7 -4 -4 -10z"/>
<path d="M2120 2631 c0 -10 7 -24 15 -31 9 -8 15 -9 15 -2 0 6 -5 14 -11 18
-8 5 -8 9 1 14 8 5 7 9 -4 13 -11 4 -16 1 -16 -12z"/>
<path d="M1920 2626 c0 -2 8 -10 18 -17 15 -13 16 -12 3 4 -13 16 -21 21 -21
13z"/>
<path d="M1960 2597 c0 -12 43 -57 55 -57 3 0 5 6 5 14 0 8 -12 17 -26 20 -17
5 -24 12 -20 21 3 8 1 15 -4 15 -6 0 -10 -6 -10 -13z"/>
<path d="M2243 2583 c-11 -23 -9 -29 12 -54 13 -16 26 -25 29 -21 3 5 -5 17
-17 27 -14 12 -17 20 -9 23 13 4 17 38 4 46 -4 2 -13 -7 -19 -21z"/>
<path d="M1393 2593 c-17 -6 -17 -23 0 -23 8 0 14 7 14 15 0 8 -1 15 -1 14 -1
0 -7 -3 -13 -6z"/>
<path d="M2173 2593 c4 -3 1 -13 -6 -21 -9 -13 -9 -14 1 -8 7 4 12 2 12 -4 0
-6 5 -8 10 -5 17 10 12 45 -7 45 -9 0 -13 -3 -10 -7z"/>
<path d="M2100 2580 c0 -5 -3 -9 -7 -7 -5 1 -9 -1 -10 -5 -4 -10 -1 -11 20 -3
18 8 24 25 7 25 -5 0 -10 -4 -10 -10z"/>
<path d="M1324 2555 c-27 -25 -27 -25 -4 -13 14 7 28 12 33 13 4 0 7 4 8 8 2
19 -10 17 -37 -8z"/>
<path d="M1062 2508 c-65 -140 -91 -331 -52 -381 11 -14 20 -27 20 -30 0 -3
-17 -8 -37 -12 -21 -4 -59 -16 -85 -27 l-47 -20 -47 40 c-57 51 -111 62 -192
39 l-56 -16 -72 40 c-83 45 -89 46 -74 19 6 -11 16 -17 22 -14 6 4 8 3 5 -3
-9 -15 14 -31 40 -28 12 1 21 -1 19 -4 -2 -3 16 -16 40 -28 27 -13 43 -17 41
-10 -1 7 6 11 15 11 10 -1 15 2 12 7 -3 5 6 9 20 9 14 0 28 5 31 10 5 8 11 8
19 1 7 -6 23 -8 37 -5 l24 6 -25 -14 c-14 -8 -27 -11 -30 -7 -3 4 -14 1 -24
-7 -18 -13 -17 -14 17 -14 23 0 37 5 37 13 0 6 5 4 11 -6 6 -10 9 -24 6 -31
-3 -6 2 -21 10 -31 13 -18 14 -17 8 20 -4 22 -8 44 -9 49 -2 19 23 16 29 -3 3
-11 19 -28 35 -38 16 -9 27 -20 25 -23 -6 -9 41 -30 49 -23 12 13 5 22 -11 17
-16 -5 -16 -4 0 6 10 7 21 10 24 7 2 -3 13 3 24 14 20 20 45 17 33 -4 -4 -7 3
-2 15 11 12 12 26 20 32 17 5 -4 9 -1 9 4 0 6 5 11 12 11 7 0 5 -7 -5 -17 -8
-10 -19 -30 -22 -46 -4 -15 -11 -30 -16 -33 -5 -3 -9 -14 -9 -25 0 -11 -11
-38 -26 -60 -14 -22 -24 -48 -23 -57 3 -29 -1 -42 -11 -42 -5 0 -7 8 -4 18 4
13 3 13 -7 -2 -9 -15 -9 -21 -1 -24 7 -2 12 -15 12 -28 0 -18 -6 -24 -22 -25
-17 -1 -19 -2 -5 -6 9 -2 17 -13 17 -24 0 -18 -6 -21 -80 -35 -14 -3 -33 -7
-44 -11 -11 -3 -16 -1 -12 5 3 5 -3 12 -14 15 -15 4 -20 1 -18 -11 2 -13 -6
-16 -42 -15 l-45 2 40 -10 c21 -5 46 -7 55 -3 16 7 27 9 110 18 l55 6 -45 -15
c-43 -14 -43 -14 -8 -9 37 5 62 -11 34 -22 -12 -4 -13 -11 -6 -24 5 -9 7 -19
5 -22 -3 -2 -5 -32 -6 -66 -2 -60 -3 -62 -28 -63 -20 -1 -22 -2 -6 -6 30 -7
43 -23 19 -24 -16 0 -15 -2 6 -10 16 -7 21 -12 13 -17 -9 -6 -9 -14 2 -35 8
-15 10 -25 6 -23 -5 3 -11 -16 -14 -42 -4 -26 -9 -57 -13 -69 -4 -14 -2 -23 5
-23 6 0 11 8 11 18 0 9 9 32 20 50 17 27 17 32 4 32 -8 0 -12 5 -9 10 5 8 12
7 22 -1 27 -23 -6 -189 -42 -202 -7 -3 -29 -2 -49 3 -21 4 -36 4 -36 -1 0 -5
11 -9 24 -9 14 0 28 -5 31 -11 10 -16 -4 -24 -17 -11 -15 15 -38 16 -38 2 0
-5 9 -10 20 -10 11 0 20 -5 20 -11 0 -8 -13 -9 -37 -5 -21 3 -55 9 -75 12 -24
4 -38 3 -38 -4 0 -6 8 -11 18 -10 20 0 101 -11 119 -17 8 -3 7 -17 -6 -52 -35
-92 -35 -90 -12 -63 11 14 26 44 32 67 7 23 25 59 41 80 71 97 91 185 59 256
-26 56 -26 57 -1 57 12 0 22 -9 26 -24 3 -15 18 -29 37 -36 18 -7 46 -19 64
-26 17 -8 38 -14 46 -14 8 0 20 -6 26 -14 14 -17 -7 -42 -48 -58 -16 -6 -21
-12 -13 -15 7 -3 22 3 32 12 14 13 23 14 39 6 19 -11 26 -51 8 -51 -5 0 -4 -7
3 -15 11 -13 15 -13 21 -3 7 10 9 10 9 1 0 -7 4 -13 10 -13 24 0 -36 156 -63
165 -7 2 -40 11 -75 21 -55 16 -65 23 -77 50 -11 26 -20 33 -46 36 -33 3 -33
3 -31 53 3 60 18 183 38 318 15 96 30 147 44 147 4 0 11 15 14 33 5 27 19 59
74 170 2 4 -7 6 -20 5 -17 -2 -23 2 -22 15 1 9 -1 17 -5 17 -4 0 -6 37 -5 83
2 87 19 163 53 228 12 22 21 48 21 59 0 28 8 25 43 -15 37 -44 56 -46 26 -2
-23 34 -48 57 -60 57 -4 0 -21 -28 -37 -62z"/>
<path d="M2100 2539 c0 -5 5 -7 10 -4 6 3 10 8 10 11 0 2 -4 4 -10 4 -5 0 -10
-5 -10 -11z"/>
<path d="M1260 2536 c0 -2 7 -7 16 -10 8 -3 12 -2 9 4 -6 10 -25 14 -25 6z"/>
<path d="M2130 2519 c0 -5 5 -9 11 -9 5 0 7 -4 4 -10 -3 -5 -1 -10 4 -10 6 0
11 7 11 15 0 9 6 12 18 8 9 -3 14 -3 10 1 -9 11 -58 15 -58 5z"/>
<path d="M2100 2510 c0 -5 5 -10 11 -10 5 0 7 5 4 10 -3 6 -8 10 -11 10 -2 0
-4 -4 -4 -10z"/>
<path d="M2273 2460 c0 -16 4 -27 9 -24 11 7 11 54 0 54 -5 0 -9 -13 -9 -30z"/>
<path d="M2393 2450 c2 -8 16 -16 33 -17 25 -1 26 0 4 4 -14 3 -29 10 -33 17
-6 7 -7 6 -4 -4z"/>
<path d="M1334 2394 c5 -18 0 -37 -15 -62 -12 -21 -28 -55 -35 -76 -13 -37
-13 -42 11 -82 28 -48 102 -108 180 -146 87 -43 103 -43 184 8 74 46 99 52
119 32 17 -17 15 -47 -3 -54 -8 -4 -15 -17 -15 -29 0 -13 -5 -36 -10 -50 -24
-64 32 -145 135 -191 90 -40 123 -36 188 24 29 27 60 52 71 55 11 5 16 13 12
23 -3 9 -6 22 -6 30 0 34 -185 184 -226 184 -7 0 -16 5 -19 10 -3 6 -17 10
-31 10 -14 0 -23 4 -19 9 3 5 1 13 -5 16 -7 4 -7 12 -2 18 16 23 31 67 23 67
-10 0 -48 -90 -43 -102 9 -30 -50 19 -91 75 -83 111 -249 228 -350 248 -27 5
-52 9 -54 9 -3 0 -2 -12 1 -26z m145 -35 c91 -51 213 -157 240 -208 16 -29 3
-51 -30 -51 -20 0 -42 -13 -76 -45 -25 -25 -52 -45 -58 -45 -35 0 -177 91
-227 145 -43 46 -45 71 -13 133 60 114 76 120 164 71z m221 -273 c0 -8 -82
-57 -88 -52 -3 3 -1 6 4 6 5 0 22 11 38 25 26 22 46 32 46 21z m130 -27 c0 -7
9 -9 22 -5 33 8 159 -58 225 -117 65 -60 65 -78 1 -144 -60 -62 -89 -71 -152
-49 -63 23 -117 61 -146 103 -21 31 -22 36 -10 81 7 26 21 63 31 83 13 27 15
39 6 48 -8 8 -7 11 6 11 9 0 17 -5 17 -11z"/>
<path d="M1480 2303 c1 -8 77 -65 95 -71 6 -2 3 1 -5 7 -8 6 -15 14 -15 18 -1
4 -7 19 -14 32 -10 19 -15 21 -22 10 -6 -10 -9 -11 -9 -1 0 6 -7 12 -15 12 -8
0 -15 -3 -15 -7z"/>
<path d="M1435 2245 c28 -19 59 -42 71 -50 20 -15 54 -12 54 5 0 9 -143 80
-161 80 -8 0 9 -16 36 -35z"/>
<path d="M1600 2226 c0 -2 14 -18 30 -34 23 -24 30 -27 30 -13 0 9 -13 25 -30
34 -16 10 -30 16 -30 13z"/>
<path d="M1555 2179 c-7 -10 21 -38 38 -39 10 0 9 8 -3 31 -12 21 -25 25 -35
8z"/>
<path d="M1420 2161 c0 -6 5 -13 10 -16 6 -3 10 1 10 9 0 9 -4 16 -10 16 -5 0
-10 -4 -10 -9z"/>
<path d="M1451 2137 c2 -1 13 -9 24 -17 19 -14 19 -14 6 3 -7 9 -18 17 -24 17
-6 0 -8 -1 -6 -3z"/>
<path d="M1605 2130 c-3 -5 -1 -10 4 -10 6 0 11 5 11 10 0 6 -2 10 -4 10 -3 0
-8 -4 -11 -10z"/>
<path d="M1560 2090 c0 -5 4 -10 9 -10 6 0 13 5 16 10 3 6 -1 10 -9 10 -9 0
-16 -4 -16 -10z"/>
<path d="M1870 2015 c0 -8 4 -15 10 -15 5 0 7 7 4 15 -4 8 -8 15 -10 15 -2 0
-4 -7 -4 -15z"/>
<path d="M1920 2011 c0 -5 14 -14 30 -21 17 -7 30 -17 30 -22 0 -5 4 -7 8 -4
5 3 18 -4 30 -14 12 -11 25 -20 29 -20 5 0 9 -9 10 -20 3 -33 -32 -18 -98 43
-40 37 -59 50 -56 37 3 -11 1 -23 -4 -26 -5 -3 -9 -1 -9 4 0 5 -14 9 -31 10
l-31 1 37 -20 c23 -13 47 -18 61 -15 25 7 34 -8 12 -17 -7 -3 2 -8 20 -12 31
-7 36 -15 33 -43 -2 -9 6 -8 26 5 l28 18 -25 -31 c-14 -17 -28 -30 -32 -28 -3
2 -4 -6 0 -18 4 -16 2 -19 -8 -13 -8 5 -11 4 -7 -2 4 -6 0 -16 -8 -23 -16 -14
-20 -30 -6 -30 4 0 25 27 45 60 42 69 67 87 86 65 7 -8 18 -15 24 -15 6 0 -4
14 -22 30 -17 17 -33 33 -34 37 -7 23 -138 103 -138 84z m10 -51 c0 -5 -4 -10
-10 -10 -5 0 -10 5 -10 10 0 6 5 10 10 10 6 0 10 -4 10 -10z"/>
<path d="M1790 1930 c0 -5 5 -10 11 -10 5 0 8 -4 5 -9 -3 -5 1 -11 9 -14 12
-5 12 -2 3 18 -11 25 -28 34 -28 15z"/>
<path d="M1855 1930 c3 -5 11 -10 16 -10 6 0 7 5 4 10 -3 6 -11 10 -16 10 -6
0 -7 -4 -4 -10z"/>
<path d="M1970 2409 c0 -5 5 -7 10 -4 6 3 10 8 10 11 0 2 -4 4 -10 4 -5 0 -10
-5 -10 -11z"/>
<path d="M2260 2410 c-13 -8 -13 -10 2 -10 9 0 20 5 23 10 8 13 -5 13 -25 0z"/>
<path d="M1113 2365 c0 -15 5 -25 14 -25 10 0 13 6 9 16 -3 9 -6 20 -6 25 0 5
-4 9 -9 9 -5 0 -8 -11 -8 -25z"/>
<path d="M2292 2370 c0 -14 2 -19 5 -12 2 6 2 18 0 25 -3 6 -5 1 -5 -13z"/>
<path d="M1037 2333 c-13 -12 -7 -63 6 -63 9 0 13 11 12 30 -2 33 -8 44 -18
33z"/>
<path d="M2210 2268 c0 -16 5 -28 10 -28 13 0 13 20 0 40 -8 12 -10 9 -10 -12z"/>
<path d="M2250 2275 c0 -8 5 -15 10 -15 6 0 10 7 10 15 0 8 -4 15 -10 15 -5 0
-10 -7 -10 -15z"/>
<path d="M68 2237 c-15 -7 -36 -22 -47 -34 -19 -21 -19 -21 7 -19 15 1 32 5
39 9 7 4 22 2 35 -5 35 -20 142 -127 135 -135 -4 -3 -36 21 -71 55 -35 34 -68
62 -73 62 -4 0 19 -25 52 -55 50 -46 58 -56 45 -66 -13 -9 -12 -10 3 -5 19 6
47 -14 47 -33 0 -6 6 -11 14 -11 7 0 19 -7 26 -15 7 -9 15 -13 18 -10 3 3 -10
19 -28 35 -18 16 -31 33 -28 36 4 3 40 -24 82 -60 41 -37 73 -61 70 -54 -3 7
-23 27 -44 43 -38 29 -49 45 -32 45 5 0 29 -20 55 -45 26 -24 47 -41 47 -36 0
15 -104 104 -108 92 -2 -6 -8 -11 -14 -11 -5 0 -7 8 -3 19 4 13 -2 23 -19 35
-24 15 -25 15 -19 -1 5 -16 4 -16 -13 1 -15 14 -16 20 -6 23 10 4 -2 21 -34
54 -27 27 -52 49 -57 49 -5 0 1 -9 14 -19 13 -11 21 -22 18 -25 -3 -3 -16 3
-29 14 -12 10 -35 25 -51 32 -39 17 -36 23 12 24 38 1 47 -4 97 -53 31 -31 58
-51 63 -46 5 5 10 24 12 43 1 19 6 34 10 33 4 -2 12 -3 18 -3 5 0 7 -4 4 -10
-3 -6 1 -7 10 -4 8 4 22 1 30 -6 14 -11 10 -16 -25 -37 -22 -13 -40 -26 -40
-28 0 -8 40 8 51 21 16 20 31 17 58 -11 13 -14 26 -23 30 -20 3 3 1 9 -5 13
-16 12 -44 60 -36 65 4 2 1 2 -5 1 -7 -2 -13 1 -13 6 0 5 -26 18 -57 30 -70
26 -206 36 -245 17z m138 -7 c9 0 13 -4 9 -9 -3 -5 -1 -12 5 -16 5 -3 10 -1
10 4 0 6 5 11 11 11 5 0 7 -4 4 -10 -3 -5 0 -10 9 -10 8 0 17 6 20 13 3 6 2
-1 -1 -18 -4 -16 -6 -38 -5 -47 0 -10 0 -18 -2 -18 -1 0 -27 25 -56 57 -29 31
-45 53 -36 50 10 -4 24 -7 32 -7z m9 -100 c25 -27 12 -37 -14 -11 -12 12 -21
23 -21 26 0 11 18 4 35 -15z m75 -80 c0 -5 -4 -10 -10 -10 -5 0 -10 5 -10 10
0 6 5 10 10 10 6 0 10 -4 10 -10z"/>
<path d="M1067 2231 c3 -12 9 -21 14 -21 14 0 11 16 -5 29 -12 10 -13 8 -9 -8z"/>
<path d="M1794 2203 c-31 -43 -36 -53 -25 -53 13 0 53 58 49 71 -2 5 -13 -2
-24 -18z"/>
<path d="M2310 2145 c0 -8 4 -15 10 -15 5 0 7 7 4 15 -4 8 -8 15 -10 15 -2 0
-4 -7 -4 -15z"/>
<path d="M335 2085 c-26 -22 -27 -24 -8 -22 12 0 19 5 17 9 -3 4 6 12 20 18
28 10 34 20 14 20 -7 -1 -26 -12 -43 -25z"/>
<path d="M370 2052 c-23 -22 -23 -24 -3 -13 12 6 25 16 28 22 13 20 0 15 -25
-9z"/>
<path d="M15 2060 c3 -5 8 -10 11 -10 2 0 4 5 4 10 0 6 -5 10 -11 10 -5 0 -7
-4 -4 -10z"/>
<path d="M107 2049 c6 -22 23 -26 23 -5 0 8 -6 16 -14 19 -10 4 -12 0 -9 -14z"/>
<path d="M665 2051 c-3 -2 -5 -14 -5 -26 0 -13 -7 -28 -15 -35 -8 -7 -12 -16
-9 -21 6 -10 44 32 44 49 0 5 7 12 15 16 8 3 15 9 15 14 0 8 -38 11 -45 3z"/>
<path d="M435 2040 c3 -5 8 -10 11 -10 2 0 4 5 4 10 0 6 -5 10 -11 10 -5 0 -7
-4 -4 -10z"/>
<path d="M515 2040 c-3 -5 -1 -10 4 -10 6 0 11 5 11 10 0 6 -2 10 -4 10 -3 0
-8 -4 -11 -10z"/>
<path d="M470 2030 c0 -5 5 -10 11 -10 5 0 7 5 4 10 -3 6 -8 10 -11 10 -2 0
-4 -4 -4 -10z"/>
<path d="M576 2023 c-6 -14 -5 -15 5 -6 7 7 10 15 7 18 -3 3 -9 -2 -12 -12z"/>
<path d="M150 2011 c-6 -12 -7 -21 -1 -21 10 0 24 30 17 37 -2 3 -9 -5 -16
-16z"/>
<path d="M408 2023 c7 -3 16 -2 19 1 4 3 -2 6 -13 5 -11 0 -14 -3 -6 -6z"/>
<path d="M76 2008 c3 -4 9 -8 15 -8 5 0 9 4 9 8 0 5 -7 9 -15 9 -8 0 -12 -4
-9 -9z"/>
<path d="M921 2011 c-8 -5 -9 -11 -3 -15 5 -3 12 1 16 9 6 17 6 18 -13 6z"/>
<path d="M468 2003 c7 -3 16 -2 19 1 4 3 -2 6 -13 5 -11 0 -14 -3 -6 -6z"/>
<path d="M794 1998 c2 -7 -4 -21 -12 -31 -14 -16 -14 -19 -2 -27 21 -14 27
-12 34 6 5 14 4 15 -9 4 -8 -7 -15 -8 -15 -2 0 5 7 15 15 22 8 7 15 20 15 29
0 13 -2 13 -9 2 -6 -9 -10 -10 -14 -2 -3 7 -4 7 -3 -1z"/>
<path d="M615 1989 c-4 -6 -5 -12 -2 -15 2 -3 7 2 10 11 7 17 1 20 -8 4z"/>
<path d="M235 1980 c-3 -5 0 -10 7 -10 7 0 26 -11 41 -25 15 -14 27 -20 27
-14 0 22 -65 65 -75 49z"/>
<path d="M436 1975 c-4 -13 -2 -14 14 -5 23 13 26 20 6 20 -8 0 -16 -7 -20
-15z"/>
<path d="M150 1938 c-22 -24 -40 -47 -40 -53 1 -5 11 2 23 18 18 21 25 25 35
15 10 -10 12 -7 10 12 -2 20 1 25 17 23 11 -1 14 0 7 3 -6 3 -10 10 -6 15 13
22 -9 6 -46 -33z"/>
<path d="M518 1962 c-11 -13 -10 -14 9 -4 16 9 22 9 25 0 4 -12 28 -3 28 10 0
14 -50 9 -62 -6z"/>
<path d="M329 1942 c11 -16 41 -47 66 -69 25 -23 45 -44 45 -47 0 -14 -19 -3
-53 31 -20 20 -40 33 -43 30 -4 -4 4 -16 17 -27 15 -12 20 -22 14 -27 -15 -11
-75 -90 -75 -98 0 -3 5 -3 10 0 6 3 10 1 10 -4 0 -6 -7 -11 -16 -11 -8 0 -12
-5 -9 -10 10 -17 36 10 30 30 -8 24 56 93 78 84 19 -7 22 -20 7 -29 -5 -3 -19
-20 -31 -38 -21 -29 -21 -30 -3 -14 11 9 26 17 33 17 7 0 10 4 7 8 -2 4 -1 14
4 22 7 12 16 8 47 -20 20 -19 31 -26 23 -15 -8 11 -24 28 -34 38 -11 9 -16 20
-13 24 4 3 18 -4 31 -16 16 -15 26 -19 31 -11 4 6 4 14 1 17 -3 4 -6 0 -6 -7
0 -7 -15 2 -33 21 -18 19 -44 43 -58 54 -14 11 -39 37 -55 57 -34 44 -55 52
-25 10z"/>
<path d="M461 1948 c-14 -23 -14 -23 8 -4 22 20 25 26 13 26 -4 0 -13 -10 -21
-22z"/>
<path d="M710 1956 c0 -8 -6 -16 -12 -19 -7 -3 -3 -4 10 -4 14 1 22 8 22 19 0
10 -4 18 -10 18 -5 0 -10 -6 -10 -14z"/>
<path d="M835 1960 c3 -5 8 -10 11 -10 2 0 4 5 4 10 0 6 -5 10 -11 10 -5 0 -7
-4 -4 -10z"/>
<path d="M1406 1961 c-4 -5 -31 -17 -61 -26 -30 -10 -60 -23 -65 -31 -9 -10
-2 -10 33 1 25 7 59 21 75 29 17 9 38 16 47 16 9 0 13 5 10 10 -8 12 -32 13
-39 1z"/>
<path d="M1620 1960 c0 -5 7 -7 15 -4 8 4 15 8 15 10 0 2 -7 4 -15 4 -8 0 -15
-4 -15 -10z"/>
<path d="M585 1950 c-3 -5 -1 -10 4 -10 6 0 11 5 11 10 0 6 -2 10 -4 10 -3 0
-8 -4 -11 -10z"/>
<path d="M14 1931 c18 -20 13 -47 -6 -35 -5 4 -4 -4 3 -17 l14 -24 3 23 c2 12
5 22 8 22 2 0 36 -33 75 -72 39 -40 69 -68 67 -62 -4 15 -163 184 -173 184 -5
0 0 -9 9 -19z"/>
<path d="M216 1931 c-16 -17 -15 -18 6 -16 13 1 29 3 36 4 6 0 12 6 12 13 0 6
-3 8 -7 5 -3 -4 -12 -2 -18 3 -8 7 -17 4 -29 -9z"/>
<path d="M488 1943 c-2 -5 -16 -19 -32 -33 l-28 -25 7 25 c7 23 7 23 -10 6
-15 -15 -16 -19 -4 -27 8 -5 20 -7 28 -4 8 3 11 0 8 -9 -4 -10 -1 -13 9 -9 16
6 19 23 4 23 -5 0 -10 5 -10 11 0 6 8 9 18 7 12 -4 17 2 18 19 2 23 -1 30 -8
16z"/>
<path d="M80 1935 c0 -7 30 -13 34 -7 3 4 -4 9 -15 9 -10 1 -19 0 -19 -2z"/>
<path d="M858 1923 c7 -3 16 -2 19 1 4 3 -2 6 -13 5 -11 0 -14 -3 -6 -6z"/>
<path d="M1455 1909 c-10 -30 -2 -32 12 -3 6 13 7 24 3 24 -5 0 -12 -9 -15
-21z"/>
<path d="M620 1909 c0 -5 -3 -8 -7 -6 -5 3 -9 -10 -10 -29 -2 -19 2 -34 8 -34
6 0 8 9 4 21 -5 15 -4 19 4 15 6 -4 11 -3 11 3 0 5 3 16 6 25 3 9 1 16 -5 16
-6 0 -11 -5 -11 -11z"/>
<path d="M260 1906 c0 -2 7 -6 15 -10 8 -3 15 -1 15 4 0 6 -7 10 -15 10 -8 0
-15 -2 -15 -4z"/>
<path d="M735 1900 c-3 -5 -1 -10 4 -10 6 0 11 5 11 10 0 6 -2 10 -4 10 -3 0
-8 -4 -11 -10z"/>
<path d="M790 1891 c-16 -31 3 -61 32 -53 21 6 22 6 3 10 -31 6 -40 19 -25 37
7 8 10 18 7 21 -3 3 -10 -4 -17 -15z"/>
<path d="M509 1883 c-13 -16 -12 -17 4 -4 9 7 17 15 17 17 0 8 -8 3 -21 -13z"/>
<path d="M537 1880 c-9 -11 -12 -20 -7 -20 6 0 8 -21 5 -50 -6 -53 -2 -59 21
-35 9 8 11 15 5 15 -7 0 -9 19 -6 55 2 30 3 55 2 55 -1 0 -10 -9 -20 -20z"/>
<path d="M146 1877 c3 -10 9 -15 12 -12 3 3 0 11 -7 18 -10 9 -11 8 -5 -6z"/>
<path d="M218 1883 c7 -3 16 -2 19 1 4 3 -2 6 -13 5 -11 0 -14 -3 -6 -6z"/>
<path d="M674 1875 c-4 -8 -12 -15 -20 -15 -8 0 -14 -7 -14 -15 0 -13 4 -14
20 -5 24 13 46 50 30 50 -6 0 -13 -7 -16 -15z"/>
<path d="M825 1880 c3 -5 13 -10 21 -10 8 0 12 5 9 10 -3 6 -13 10 -21 10 -8
0 -12 -4 -9 -10z"/>
<path d="M293 1873 c-18 -7 -16 -23 2 -23 8 0 15 7 15 15 0 8 -1 15 -2 14 -2
0 -9 -3 -15 -6z"/>
<path d="M715 1869 c-4 -6 -5 -12 -2 -15 2 -3 7 2 10 11 7 17 1 20 -8 4z"/>
<path d="M746 1871 c-3 -5 1 -11 9 -14 9 -4 12 -1 8 9 -6 16 -10 17 -17 5z"/>
<path d="M1476 1873 c-12 -12 -6 -23 13 -23 10 0 24 -7 31 -15 15 -18 31 -20
24 -2 -6 17 -59 48 -68 40z"/>
<path d="M40 1862 c0 -4 31 -41 70 -82 38 -41 70 -78 70 -82 0 -5 6 -8 14 -8
8 0 17 -6 19 -12 4 -10 6 -10 6 0 1 7 -6 15 -14 18 -8 4 -15 9 -15 13 0 4 -34
42 -75 84 -41 42 -75 73 -75 69z"/>
<path d="M202 1833 c-21 -72 -22 -87 -5 -105 9 -10 23 -18 31 -18 10 0 7 6 -8
18 -20 16 -22 22 -12 53 18 60 23 89 14 89 -5 0 -14 -17 -20 -37z"/>
<path d="M470 1851 c0 -5 5 -13 10 -16 6 -3 10 -2 10 4 0 5 -4 13 -10 16 -5 3
-10 2 -10 -4z"/>
<path d="M1724 1799 c-5 -35 -6 -80 -3 -99 l6 -35 3 35 c4 53 7 75 13 101 3
13 2 33 -2 43 -5 13 -10 -1 -17 -45z"/>
<path d="M8 1834 c6 -12 24 -29 39 -39 15 -10 37 -30 48 -44 11 -14 32 -39 47
-54 30 -30 33 -37 19 -37 -8 0 -51 42 -91 89 -11 13 -20 20 -20 14 0 -11 108
-134 130 -147 8 -5 43 -37 78 -70 35 -33 60 -52 56 -43 -8 23 2 21 28 -3 12
-11 27 -20 32 -20 6 0 -8 17 -32 38 -23 20 -42 41 -42 46 0 6 -19 27 -42 48
-36 32 -43 35 -53 22 -10 -14 -12 -14 -24 0 -11 14 -11 16 3 16 9 0 16 2 16 4
0 6 -161 170 -184 187 -18 13 -18 13 -8 -7z m258 -250 c43 -45 54 -64 34 -64
-5 0 -10 4 -10 8 0 5 -18 26 -40 48 -37 37 -48 54 -34 54 4 0 26 -21 50 -46z"/>
<path d="M130 1846 c0 -2 8 -10 18 -17 15 -13 16 -12 3 4 -13 16 -21 21 -21
13z"/>
<path d="M706 1818 c-14 -18 -28 -29 -32 -25 -4 4 1 17 12 29 l19 23 -25 -20
c-14 -11 -29 -26 -33 -33 -12 -19 -26 -5 -19 20 3 12 1 19 -4 15 -6 -3 -11
-22 -12 -42 -2 -25 1 -34 8 -30 7 4 20 -2 31 -14 l20 -22 19 23 c15 19 20 20
34 9 9 -7 16 -21 16 -30 0 -13 2 -14 9 -2 6 10 3 20 -12 32 l-22 17 23 32 c13
17 21 34 18 37 -3 4 -6 1 -6 -5 0 -7 -5 -12 -11 -12 -6 0 -9 7 -5 15 9 23 0
18 -28 -17z m24 -7 c0 -6 -13 -25 -30 -43 -28 -30 -31 -31 -46 -16 -16 16 -12
38 8 38 5 0 7 -8 4 -17 -3 -10 6 -4 21 14 29 32 43 40 43 24z"/>
<path d="M266 1825 c-16 -12 -17 -18 -8 -27 9 -9 12 -8 12 5 0 9 7 17 15 17 8
0 15 5 15 10 0 14 -11 12 -34 -5z"/>
<path d="M330 1825 c-7 -9 -10 -18 -7 -21 3 -3 10 4 17 15 13 25 8 27 -10 6z"/>
<path d="M850 1830 c-13 -8 -12 -10 3 -10 9 0 17 5 17 10 0 12 -1 12 -20 0z"/>
<path d="M1010 1823 c0 -34 17 -46 18 -14 0 17 -4 31 -9 31 -5 0 -9 -8 -9 -17z"/>
<path d="M956 1765 c-7 -64 4 -144 38 -267 29 -105 53 -156 74 -162 52 -15 95
-16 161 -2 42 9 92 13 117 9 48 -6 63 11 17 20 -38 7 -64 14 -88 23 -18 7 -19
6 -6 -9 8 -10 11 -20 8 -23 -3 -4 -50 -7 -104 -8 l-97 -1 -22 42 c-50 93 -88
263 -86 376 1 31 0 57 -2 57 -2 0 -6 -25 -10 -55z"/>
<path d="M350 1768 c-12 -22 -12 -22 6 -6 10 10 15 20 12 24 -4 3 -12 -5 -18
-18z"/>
<path d="M1260 1782 c0 -16 37 -43 73 -53 19 -5 54 -28 78 -50 24 -22 64 -51
89 -64 25 -13 56 -32 69 -44 24 -21 51 -28 51 -13 0 10 -92 72 -108 72 -6 0
-12 5 -12 10 0 6 -6 10 -13 10 -18 0 -88 60 -82 70 3 5 -19 16 -49 24 -29 9
-59 23 -66 31 -14 16 -30 20 -30 7z"/>
<path d="M250 1760 c0 -5 5 -10 10 -10 6 0 10 5 10 10 0 6 -4 10 -10 10 -5 0
-10 -4 -10 -10z"/>
<path d="M815 1748 c-11 -15 -19 -19 -22 -10 -6 16 -23 15 -23 -2 0 -17 26
-24 65 -16 l30 6 -25 7 c-20 6 -22 9 -10 16 8 6 12 13 8 16 -3 4 -14 -4 -23
-17z"/>
<path d="M435 1750 c-3 -5 -1 -10 4 -10 6 0 11 5 11 10 0 6 -2 10 -4 10 -3 0
-8 -4 -11 -10z"/>
<path d="M1640 1746 c0 -9 8 -12 25 -8 14 2 25 8 25 13 0 5 -11 9 -25 9 -14 0
-25 -6 -25 -14z"/>
<path d="M395 1739 c-4 -6 -5 -12 -2 -15 2 -3 7 2 10 11 7 17 1 20 -8 4z"/>
<path d="M526 1724 c-3 -9 -2 -23 4 -32 8 -14 9 -12 10 10 0 17 6 28 18 31 13
4 12 5 -4 6 -12 0 -25 -6 -28 -15z"/>
<path d="M604 1723 c3 -18 -1 -23 -17 -24 -15 0 -17 -2 -7 -6 8 -4 20 -13 27
-22 6 -9 15 -13 19 -8 4 4 2 7 -4 7 -18 0 -14 28 6 39 15 9 15 10 0 11 -9 0
-19 6 -22 13 -4 6 -4 2 -2 -10z"/>
<path d="M1578 1733 c7 -3 16 -2 19 1 4 3 -2 6 -13 5 -11 0 -14 -3 -6 -6z"/>
<path d="M491 1704 c0 -11 3 -14 6 -6 3 7 2 16 -1 19 -3 4 -6 -2 -5 -13z"/>
<path d="M670 1710 c-11 -7 -6 -10 20 -10 26 0 31 3 20 10 -8 5 -17 10 -20 10
-3 0 -12 -5 -20 -10z"/>
<path d="M1530 1709 c0 -5 5 -7 10 -4 6 3 10 8 10 11 0 2 -4 4 -10 4 -5 0 -10
-5 -10 -11z"/>
<path d="M1910 1709 c0 -5 -6 -7 -12 -3 -7 4 -10 4 -7 0 4 -4 -5 -19 -20 -35
-14 -15 -37 -42 -51 -60 -35 -47 -69 -79 -113 -108 -45 -28 -44 -42 1 -19 27
14 212 205 220 227 2 5 -1 9 -7 9 -6 0 -11 -5 -11 -11z"/>
<path d="M430 1701 c0 -5 5 -13 10 -16 6 -3 10 -2 10 4 0 5 -4 13 -10 16 -5 3
-10 2 -10 -4z"/>
<path d="M818 1703 c-10 -2 -18 -9 -18 -14 0 -6 5 -7 12 -3 7 4 28 11 48 15
33 6 33 7 5 7 -16 0 -38 -2 -47 -5z"/>
<path d="M322 1688 c-19 -19 -14 -28 16 -28 15 0 22 4 16 8 -6 4 -13 13 -15
20 -3 10 -7 10 -17 0z"/>
<path d="M70 1683 c0 -9 40 -36 45 -31 2 2 -8 11 -21 21 -13 10 -24 14 -24 10z"/>
<path d="M270 1665 c7 -9 15 -13 17 -11 7 7 -7 26 -19 26 -6 0 -6 -6 2 -15z"/>
<path d="M407 1674 c-6 -10 9 -42 16 -34 3 3 1 14 -3 24 -3 11 -9 15 -13 10z"/>
<path d="M524 1665 c22 -17 40 -20 32 -6 -3 5 -16 11 -28 14 -22 6 -22 5 -4
-8z"/>
<path d="M688 1673 c6 -2 18 -2 25 0 6 3 1 5 -13 5 -14 0 -19 -2 -12 -5z"/>
<path d="M230 1660 c0 -5 5 -10 10 -10 6 0 20 -11 31 -24 19 -22 57 -26 44 -5
-3 4 -12 6 -19 3 -7 -3 -16 2 -19 10 -7 19 -47 41 -47 26z"/>
<path d="M480 1655 c-8 -9 -8 -15 -2 -15 12 0 26 19 19 26 -2 2 -10 -2 -17
-11z"/>
<path d="M65 1640 c-3 -5 -2 -10 4 -10 5 0 11 -10 14 -22 3 -20 5 -21 11 -6 9
20 -18 55 -29 38z"/>
<path d="M380 1641 c0 -6 4 -13 10 -16 6 -3 7 1 4 9 -7 18 -14 21 -14 7z"/>
<path d="M790 1640 c-13 -8 -12 -10 3 -10 9 0 17 5 17 10 0 12 -1 12 -20 0z"/>
<path d="M509 1633 c-1 -5 -1 -12 0 -17 1 -5 -15 -27 -36 -49 -34 -37 -35 -38
-6 -15 18 14 37 28 43 30 13 4 21 58 9 58 -5 0 -10 -3 -10 -7z"/>
<path d="M635 1630 c11 -5 29 -9 40 -9 20 0 20 0 0 9 -11 5 -29 9 -40 9 -20 0
-20 0 0 -9z"/>
<path d="M740 1630 l-25 -8 28 -1 c15 -1 27 4 27 9 0 6 -1 10 -2 9 -2 -1 -14
-5 -28 -9z"/>
<path d="M1225 1630 c-3 -5 -1 -10 4 -10 6 0 11 5 11 10 0 6 -2 10 -4 10 -3 0
-8 -4 -11 -10z"/>
<path d="M108 1586 c-17 -25 -35 -46 -40 -46 -4 0 -8 -6 -8 -12 1 -7 21 10 46
37 42 47 44 48 28 15 -21 -41 -24 -92 -7 -97 9 -3 11 4 7 24 -4 20 1 40 15 65
19 31 19 37 7 48 -13 10 -21 4 -48 -34z"/>
<path d="M430 1620 c0 -5 7 -10 15 -10 8 0 15 5 15 10 0 6 -7 10 -15 10 -8 0
-15 -4 -15 -10z"/>
<path d="M593 1616 c1 -11 9 -21 17 -23 10 -3 11 -2 4 4 -6 4 -14 15 -17 23
-5 11 -6 9 -4 -4z"/>
<path d="M821 1604 c0 -11 3 -14 6 -6 3 7 2 16 -1 19 -3 4 -6 -2 -5 -13z"/>
<path d="M1711 1604 c0 -11 3 -14 6 -6 3 7 2 16 -1 19 -3 4 -6 -2 -5 -13z"/>
<path d="M16 1597 c3 -10 9 -15 12 -12 3 3 0 11 -7 18 -10 9 -11 8 -5 -6z"/>
<path d="M548 1604 c-7 -7 2 -44 11 -44 3 0 7 11 7 25 2 24 -6 32 -18 19z"/>
<path d="M783 1575 c0 -22 2 -30 4 -17 2 12 2 30 0 40 -3 9 -5 -1 -4 -23z"/>
<path d="M420 1589 c0 -5 -4 -7 -10 -4 -5 3 -10 2 -10 -4 0 -5 5 -13 10 -16 6
-3 10 -1 10 5 0 7 7 9 16 6 14 -5 15 -4 4 9 -15 18 -20 19 -20 4z"/>
<path d="M710 1588 c0 -9 -6 -19 -12 -21 -8 -3 -6 -6 5 -6 19 -1 24 -21 5 -21
-6 0 -9 -2 -6 -5 8 -9 38 6 38 19 0 7 -7 21 -15 32 -12 16 -14 17 -15 2z"/>
<path d="M51 1581 c-7 -5 -9 -11 -4 -14 5 -3 15 -2 22 2 7 5 9 11 4 14 -5 3
-15 2 -22 -2z"/>
<path d="M345 1566 c0 -13 17 -40 39 -62 28 -28 35 -32 26 -15 -7 13 -24 34
-39 47 -19 17 -22 23 -10 24 17 0 59 -40 59 -56 0 -18 59 -67 97 -80 50 -17
54 -11 6 9 -48 21 -73 42 -102 90 -12 21 -35 44 -50 51 -25 14 -27 13 -26 -8z"/>
<path d="M1390 1580 c8 -5 22 -10 30 -10 13 0 13 1 0 10 -8 5 -22 10 -30 10
-13 0 -13 -1 0 -10z"/>
<path d="M597 1557 c-10 -10 -17 -20 -15 -23 8 -7 41 22 37 32 -2 6 -12 1 -22
-9z"/>
<path d="M1 1554 c0 -11 3 -14 6 -6 3 7 2 16 -1 19 -3 4 -6 -2 -5 -13z"/>
<path d="M175 1528 c-10 -24 -21 -56 -26 -73 l-9 -30 20 25 c11 14 20 34 20
45 0 11 7 32 14 48 8 15 11 27 6 27 -4 0 -16 -19 -25 -42z"/>
<path d="M1336 1559 c8 -14 44 -17 44 -4 0 7 -10 12 -24 11 -13 0 -22 -4 -20
-7z"/>
<path d="M485 1550 c-8 -13 5 -13 25 0 13 8 13 10 -2 10 -9 0 -20 -4 -23 -10z"/>
<path d="M820 1551 c0 -6 4 -13 10 -16 6 -3 7 1 4 9 -7 18 -14 21 -14 7z"/>
<path d="M1097 1554 c-3 -4 0 -18 8 -33 17 -33 83 -97 91 -88 9 8 -5 27 -21
27 -11 0 -58 64 -59 82 -1 11 -12 18 -19 12z"/>
<path d="M1405 1550 c-3 -5 -2 -10 4 -10 5 0 13 5 16 10 3 6 2 10 -4 10 -5 0
-13 -4 -16 -10z"/>
<path d="M1695 1540 c-3 -5 -1 -10 4 -10 6 0 11 5 11 10 0 6 -2 10 -4 10 -3 0
-8 -4 -11 -10z"/>
<path d="M25 1529 c-4 -6 -5 -12 -2 -15 2 -3 7 2 10 11 7 17 1 20 -8 4z"/>
<path d="M84 1513 c-10 -15 -23 -31 -29 -35 -7 -5 -7 -8 1 -8 12 0 58 59 51
67 -3 2 -14 -8 -23 -24z"/>
<path d="M219 1503 c-13 -21 -27 -44 -32 -50 -4 -7 -6 -13 -4 -13 8 0 69 91
64 96 -2 3 -15 -12 -28 -33z"/>
<path d="M0 1516 c0 -8 4 -17 9 -20 5 -4 7 3 4 14 -6 23 -13 26 -13 6z"/>
<path d="M484 1508 c-10 -13 -15 -20 -11 -16 5 3 22 2 38 -2 18 -5 27 -5 24 1
-4 5 -14 9 -23 9 -12 0 -13 3 -4 12 9 9 15 9 24 0 7 -7 17 -12 23 -12 14 1
-26 30 -40 30 -7 0 -20 -10 -31 -22z"/>
<path d="M676 1515 c25 -19 39 -19 55 2 13 15 12 15 -10 4 -17 -9 -26 -10 -34
-2 -6 6 -15 11 -21 11 -5 0 -1 -7 10 -15z"/>
<path d="M753 1495 c0 -22 2 -30 4 -17 2 12 2 30 0 40 -3 9 -5 -1 -4 -23z"/>
<path d="M771 1493 c2 -31 3 -33 6 -10 2 15 9 25 14 22 5 -4 9 1 9 9 0 9 -7
16 -15 16 -11 0 -15 -10 -14 -37z"/>
<path d="M584 1505 c24 -18 39 -20 34 -2 -3 6 -15 13 -29 15 -23 2 -23 2 -5
-13z"/>
<path d="M270 1479 c7 -11 14 -19 16 -16 7 7 -7 37 -17 37 -6 0 -5 -9 1 -21z"/>
<path d="M813 1485 c-3 -9 -3 -19 1 -22 3 -4 6 1 6 11 0 9 5 14 10 11 6 -3 10
-1 10 4 0 17 -20 13 -27 -4z"/>
<path d="M712 1470 c-8 -13 -8 -20 -2 -20 6 0 13 7 17 15 9 24 -1 27 -15 5z"/>
<path d="M330 1470 c0 -5 5 -10 11 -10 7 0 22 -12 35 -27 13 -16 24 -23 24
-17 0 5 -5 15 -12 22 -6 6 -8 15 -4 19 4 4 12 1 17 -7 9 -13 10 -13 6 0 -2 8
-12 14 -23 13 -10 -1 -26 3 -36 8 -12 6 -18 6 -18 -1z"/>
<path d="M490 1469 c0 -5 8 -9 18 -9 10 0 36 -13 58 -30 21 -16 43 -30 47 -30
5 0 -11 15 -35 33 -45 35 -88 52 -88 36z"/>
<path d="M97 1462 c10 -7 10 -12 -1 -27 -14 -19 -15 -19 -33 -2 -25 22 -33 22
-32 0 0 -10 3 -13 6 -6 3 9 11 7 26 -7 28 -26 34 -25 51 9 14 26 14 30 0 35
-22 8 -31 7 -17 -2z"/>
<path d="M1556 1455 c4 -8 10 -15 15 -15 4 0 6 7 3 15 -4 8 -10 15 -15 15 -4
0 -6 -7 -3 -15z"/>
<path d="M301 1451 c-7 -5 -10 -14 -6 -20 4 -7 1 -18 -5 -26 -10 -12 -9 -15 4
-15 9 0 16 7 16 15 0 7 8 19 18 24 16 10 16 10 -1 11 -10 0 -15 5 -12 10 8 12
4 12 -14 1z"/>
<path d="M438 1430 c9 -16 23 -30 30 -30 9 0 6 10 -10 29 -30 39 -42 39 -20 1z"/>
<path d="M1635 1434 c-16 -13 -43 -29 -58 -35 -28 -12 -29 -14 -22 -63 3 -28
12 -57 18 -65 8 -10 9 -15 1 -18 -13 -4 -2 -99 14 -115 14 -14 19 -10 24 17 2
12 -2 19 -9 18 -17 -4 -18 104 -1 109 6 2 8 10 4 16 -10 17 -26 15 -20 -3 4
-8 1 -15 -6 -15 -6 0 -10 11 -8 28 2 19 8 27 21 26 25 -2 21 14 -5 19 l-23 4
23 8 c12 4 22 14 22 21 0 8 9 14 21 14 11 0 18 3 16 8 -3 4 1 12 8 19 10 10
14 9 19 -2 3 -8 1 -15 -3 -15 -15 0 -22 -33 -11 -44 8 -8 9 -6 5 5 -4 10 -1
20 6 25 7 4 10 3 5 -4 -3 -6 -2 -13 4 -17 6 -3 10 4 10 17 1 21 2 22 14 6 7
-10 19 -18 27 -18 11 0 11 -2 2 -8 -10 -6 -9 -13 3 -30 13 -18 19 -21 30 -11
11 9 14 8 14 -5 0 -9 -4 -16 -10 -16 -5 0 -6 -8 -3 -17 4 -11 8 -12 11 -5 4
14 32 16 32 2 0 -5 9 -10 21 -10 11 0 27 -7 35 -15 14 -13 12 -15 -18 -16 -26
-1 -28 -3 -8 -6 14 -2 36 -6 49 -9 23 -5 23 -6 5 -20 -18 -15 -18 -15 3 -11
13 3 24 -1 27 -9 3 -8 12 -11 23 -7 15 5 16 3 6 -8 -7 -7 -13 -17 -13 -22 0
-5 6 -5 13 1 19 16 52 -17 55 -57 4 -51 -6 -71 -36 -72 -24 -1 -23 -3 8 -9
l35 -7 -40 -3 c-33 -3 -35 -4 -12 -7 20 -3 27 -9 25 -21 -3 -14 -20 -18 -98
-23 l-95 -5 93 -2 c50 -1 92 -4 92 -7 0 -16 -34 -85 -42 -85 -5 0 -6 -5 -3
-11 4 -5 0 -18 -8 -27 -8 -9 -18 -28 -22 -40 -5 -17 -12 -22 -26 -19 -23 6
-26 -8 -3 -17 26 -10 32 -7 38 20 4 15 10 24 13 21 3 -3 2 -18 -1 -32 -5 -19
-13 -26 -29 -25 -35 3 -44 1 -44 -12 0 -7 -4 -21 -8 -31 -7 -17 -6 -18 14 -6
12 8 19 20 16 26 -3 9 7 13 30 13 46 0 47 -25 3 -46 -32 -15 -11 -14 25 1 9 4
17 3 17 -3 0 -5 -24 -19 -52 -30 -29 -11 -45 -21 -35 -21 10 -1 36 8 58 20 28
14 40 16 37 7 -5 -15 -79 -45 -152 -63 -28 -6 -51 -16 -53 -22 -4 -12 62 6
150 42 59 24 74 20 35 -9 l-23 -17 23 5 c12 2 22 -1 23 -7 0 -7 5 1 9 16 10
32 9 36 -29 130 -6 15 -7 27 -1 27 5 0 6 16 3 36 -4 24 -2 39 7 44 8 5 15 15
16 24 3 23 36 109 47 124 6 8 5 12 -3 12 -9 0 -9 4 -2 13 12 14 12 15 12 62 0
44 14 45 29 3 9 -24 8 -34 -1 -40 -8 -5 -9 -8 -2 -8 18 0 11 -38 -11 -54 -20
-15 -20 -15 2 -9 21 5 22 4 12 -26 -6 -17 -16 -29 -22 -28 -7 1 -12 -6 -12
-16 0 -10 -7 -22 -15 -27 -8 -5 -12 -10 -7 -10 4 0 0 -11 -9 -25 -9 -14 -19
-23 -23 -21 -4 3 -8 -4 -8 -15 -3 -36 10 -24 70 66 42 63 62 132 53 187 -7 44
-41 108 -57 108 -5 0 -53 43 -106 95 -54 52 -101 95 -106 95 -4 0 -29 19 -55
43 -91 82 -83 78 -117 51z m190 -124 c3 -6 -1 -7 -9 -4 -18 7 -21 14 -7 14 6
0 13 -4 16 -10z"/>
<path d="M266 1435 c4 -8 8 -15 10 -15 2 0 4 7 4 15 0 8 -4 15 -10 15 -5 0 -7
-7 -4 -15z"/>
<path d="M765 1440 c-28 -7 -27 -8 13 -9 23 0 42 4 42 9 0 11 -11 11 -55 0z"/>
<path d="M660 1436 c0 -8 61 -12 66 -4 3 4 -11 8 -30 8 -20 0 -36 -2 -36 -4z"/>
<path d="M419 1413 c5 -10 21 -30 34 -46 22 -24 25 -25 31 -10 4 10 4 15 1 11
-9 -9 -55 32 -55 49 0 7 -5 13 -10 13 -7 0 -7 -6 -1 -17z"/>
<path d="M610 1426 c0 -2 7 -7 16 -10 8 -3 12 -2 9 4 -6 10 -25 14 -25 6z"/>
<path d="M165 1410 c3 -5 1 -10 -4 -10 -6 0 -11 -5 -11 -10 0 -6 8 -5 19 2 19
12 19 28 0 28 -6 0 -7 -4 -4 -10z"/>
<path d="M334 1398 l-19 -23 23 19 c21 18 27 26 19 26 -2 0 -12 -10 -23 -22z"/>
<path d="M715 1409 c-49 -6 -49 -6 18 -7 65 -2 85 2 50 9 -10 3 -40 1 -68 -2z"/>
<path d="M811 1398 c-1 -22 2 -25 22 -20 17 5 18 7 5 10 -9 2 -19 11 -21 20
-3 10 -5 6 -6 -10z"/>
<path d="M32 1397 c-7 -8 -5 -17 5 -26 13 -12 14 -11 8 7 -5 17 -3 21 9 16 9
-3 16 -4 16 -1 0 12 -29 15 -38 4z"/>
<path d="M490 1401 c0 -6 4 -13 10 -16 6 -3 7 1 4 9 -7 18 -14 21 -14 7z"/>
<path d="M1230 1400 c0 -5 5 -10 10 -10 6 0 10 5 10 10 0 6 -4 10 -10 10 -5 0
-10 -4 -10 -10z"/>
<path d="M360 1392 c0 -12 -62 -73 -68 -67 -3 3 3 15 14 27 l18 23 -24 -22
c-20 -18 -22 -25 -12 -35 11 -11 19 -6 45 23 20 22 41 35 54 34 20 -1 64 -44
76 -75 5 -13 5 -13 6 0 1 23 -66 103 -73 88 -5 -10 -7 -10 -12 0 -6 13 -24 17
-24 4z"/>
<path d="M80 1379 c0 -5 5 -7 10 -4 6 3 10 8 10 11 0 2 -4 4 -10 4 -5 0 -10
-5 -10 -11z"/>
<path d="M115 1380 c-3 -5 -1 -10 4 -10 6 0 11 5 11 10 0 6 -2 10 -4 10 -3 0
-8 -4 -11 -10z"/>
<path d="M260 1383 c0 -6 -9 -9 -20 -6 -12 3 -20 0 -20 -6 0 -7 5 -9 10 -6 6
4 18 1 26 -6 19 -16 29 -5 15 18 -6 10 -11 13 -11 6z"/>
<path d="M590 1385 c0 -6 62 -35 74 -35 6 0 0 6 -14 13 -33 17 -60 27 -60 22z"/>
<path d="M657 1378 c2 -5 32 -8 65 -8 34 0 59 3 55 6 -8 9 -126 10 -120 2z"/>
<path d="M986 1376 c3 -9 11 -16 16 -16 13 0 5 23 -10 28 -7 2 -10 -2 -6 -12z"/>
<path d="M6 1367 c3 -10 9 -15 12 -12 3 3 0 11 -7 18 -10 9 -11 8 -5 -6z"/>
<path d="M132 1355 c-11 -12 -10 -15 3 -15 8 0 15 7 15 15 0 18 -2 18 -18 0z"/>
<path d="M556 1354 c-8 -21 -8 -49 1 -41 7 7 14 57 8 57 -1 0 -6 -7 -9 -16z"/>
<path d="M73 1353 c9 -2 23 -2 30 0 6 3 -1 5 -18 5 -16 0 -22 -2 -12 -5z"/>
<path d="M780 1350 c0 -5 7 -7 15 -4 12 5 14 0 8 -26 -4 -24 -3 -31 6 -26 6 4
9 11 6 16 -8 14 7 42 20 36 6 -2 18 0 26 5 9 6 -2 9 -33 9 -27 0 -48 -4 -48
-10z"/>
<path d="M1640 1353 c0 -6 8 -17 18 -24 16 -13 16 -13 2 6 -8 11 -16 22 -17
24 -2 2 -3 0 -3 -6z"/>
<path d="M30 1344 c0 -9 40 -23 44 -15 3 5 -5 11 -19 13 -14 3 -25 4 -25 2z"/>
<path d="M244 1335 c8 -8 18 -15 22 -15 3 0 1 7 -6 15 -7 8 -17 15 -22 15 -5
0 -3 -7 6 -15z"/>
<path d="M703 1343 c9 -2 25 -2 35 0 9 3 1 5 -18 5 -19 0 -27 -2 -17 -5z"/>
<path d="M1476 1341 c-3 -5 2 -15 12 -22 9 -7 14 -9 10 -5 -4 5 -3 15 3 23 9
10 8 13 -4 13 -9 0 -18 -4 -21 -9z"/>
<path d="M0 1330 c0 -5 5 -10 11 -10 5 0 7 5 4 10 -3 6 -8 10 -11 10 -2 0 -4
-4 -4 -10z"/>
<path d="M168 1325 c12 -23 50 -60 56 -54 3 2 7 18 10 34 6 28 6 29 -5 7 l-12
-23 -30 28 c-22 21 -27 23 -19 8z"/>
<path d="M1312 1242 c-79 -81 -93 -101 -90 -123 3 -18 -2 -32 -14 -40 -10 -8
-18 -19 -18 -25 0 -7 -6 -19 -13 -26 -22 -22 -50 -68 -45 -74 3 -3 19 14 36
38 17 24 35 48 40 53 5 6 21 31 35 56 15 25 37 55 48 65 21 19 21 19 45 -11
13 -16 25 -27 28 -24 3 3 -6 17 -20 32 -17 19 -23 34 -19 47 4 11 11 18 16 15
5 -3 6 0 3 8 -9 23 20 39 50 27 15 -5 29 -10 30 -10 6 0 0 36 -8 49 -5 7 -3
18 4 24 10 9 11 9 5 -2 -5 -9 -4 -12 3 -7 18 11 14 26 -5 26 -10 0 -60 -44
-111 -98z m98 43 c0 -8 -4 -15 -9 -15 -13 0 -22 16 -14 24 11 11 23 6 23 -9z"/>
<path d="M110 1320 c0 -5 5 -10 10 -10 6 0 10 5 10 10 0 6 -4 10 -10 10 -5 0
-10 -4 -10 -10z"/>
<path d="M783 1295 c0 -22 2 -30 4 -17 2 12 2 30 0 40 -3 9 -5 -1 -4 -23z"/>
<path d="M733 1280 c0 -25 2 -35 4 -22 2 12 2 32 0 45 -2 12 -4 2 -4 -23z"/>
<path d="M753 1240 c0 -47 2 -66 4 -42 2 23 2 61 0 85 -2 23 -4 4 -4 -43z"/>
<path d="M81 1288 c4 -40 -1 -59 -11 -53 -6 3 -7 -1 -4 -10 4 -10 2 -15 -7
-13 -8 2 -13 -3 -11 -10 1 -7 -10 -30 -24 -50 -23 -32 -23 -33 -3 -11 40 44
57 66 73 96 11 20 15 23 16 11 0 -10 4 -18 9 -18 5 0 4 13 -2 29 -6 17 -15 27
-21 24 -5 -4 -7 1 -3 10 3 10 2 17 -4 17 -5 0 -9 -10 -8 -22z"/>
<path d="M316 1293 c-6 -14 -5 -15 5 -6 7 7 10 15 7 18 -3 3 -9 -2 -12 -12z"/>
<path d="M1444 1301 c7 -11 46 -35 46 -28 0 3 -12 12 -26 22 -15 9 -23 12 -20
6z"/>
<path d="M276 1283 c-6 -14 -5 -15 5 -6 7 7 10 15 7 18 -3 3 -9 -2 -12 -12z"/>
<path d="M350 1290 c0 -5 5 -10 11 -10 5 0 7 5 4 10 -3 6 -8 10 -11 10 -2 0
-4 -4 -4 -10z"/>
<path d="M510 1289 c0 -5 5 -7 10 -4 6 3 10 8 10 11 0 2 -4 4 -10 4 -5 0 -10
-5 -10 -11z"/>
<path d="M528 1247 c-18 -58 -19 -55 8 -60 38 -7 79 -20 89 -27 6 -4 28 -10
50 -14 43 -7 29 9 -16 18 -13 2 -49 13 -79 23 -53 17 -55 19 -45 40 7 13 15
20 19 15 6 -5 -2 46 -8 55 -1 0 -8 -22 -18 -50z"/>
<path d="M699 1293 c-1 -5 -2 -17 -3 -28 -1 -12 -11 -21 -26 -25 l-25 -6 24
-6 c20 -6 22 -11 17 -34 -6 -23 -5 -26 7 -16 13 11 24 122 12 122 -3 0 -6 -3
-6 -7z"/>
<path d="M1660 1290 c0 -5 5 -10 11 -10 5 0 7 5 4 10 -3 6 -8 10 -11 10 -2 0
-4 -4 -4 -10z"/>
<path d="M396 1275 c4 -8 8 -15 10 -15 2 0 4 7 4 15 0 8 -4 15 -10 15 -5 0 -7
-7 -4 -15z"/>
<path d="M821 1274 c0 -11 3 -14 6 -6 3 7 2 16 -1 19 -3 4 -6 -2 -5 -13z"/>
<path d="M1721 1274 c0 -11 3 -14 6 -6 3 7 2 16 -1 19 -3 4 -6 -2 -5 -13z"/>
<path d="M130 1273 c0 -13 92 -94 99 -88 2 3 -9 17 -25 31 -16 15 -39 36 -51
47 -13 11 -23 16 -23 10z"/>
<path d="M172 1268 c5 -15 28 -23 28 -10 0 5 -7 13 -16 16 -10 4 -14 1 -12 -6z"/>
<path d="M463 1270 c-13 -5 -23 -11 -23 -13 0 -8 50 5 56 14 6 11 -4 11 -33
-1z"/>
<path d="M585 1270 c-3 -5 -1 -10 4 -10 6 0 11 5 11 10 0 6 -2 10 -4 10 -3 0
-8 -4 -11 -10z"/>
<path d="M803 1215 c0 -33 2 -45 4 -27 2 18 2 45 0 60 -2 15 -4 0 -4 -33z"/>
<path d="M252 1240 c7 -11 17 -20 21 -20 10 0 27 -17 50 -50 9 -13 17 -20 17
-14 0 6 -9 23 -20 37 -24 30 -26 41 -6 34 10 -4 13 -1 9 9 -4 11 -9 12 -19 3
-11 -9 -20 -7 -39 5 -25 17 -25 16 -13 -4z"/>
<path d="M1620 1245 c0 -8 4 -15 10 -15 5 0 7 7 4 15 -4 8 -8 15 -10 15 -2 0
-4 -7 -4 -15z"/>
<path d="M2991 1249 c0 -9 -18 -33 -39 -55 -21 -21 -53 -60 -71 -87 -18 -27
-37 -45 -43 -41 -7 5 -8 2 -3 -6 4 -7 2 -16 -6 -21 -10 -6 -11 -9 -1 -9 6 0
19 8 27 18 9 9 33 36 54 59 69 75 93 111 88 135 -2 13 -5 16 -6 7z"/>
<path d="M1682 1241 c-10 -6 -8 -10 9 -14 13 -4 25 -4 28 -2 2 3 -1 5 -8 5 -7
0 -9 5 -6 10 8 12 -5 13 -23 1z"/>
<path d="M570 1230 c0 -5 7 -10 15 -10 8 0 15 5 15 10 0 6 -7 10 -15 10 -8 0
-15 -4 -15 -10z"/>
<path d="M777 1233 c-4 -3 -7 -11 -7 -17 0 -6 5 -5 12 2 6 6 9 14 7 17 -3 3
-9 2 -12 -2z"/>
<path d="M820 1236 c0 -2 7 -6 15 -10 8 -3 15 -1 15 4 0 6 -7 10 -15 10 -8 0
-15 -2 -15 -4z"/>
<path d="M1454 1224 c18 -17 26 -18 26 -1 0 7 -9 13 -20 14 -18 2 -18 0 -6
-13z"/>
<path d="M430 1219 c0 -4 8 -9 18 -12 14 -3 13 -6 -7 -14 -24 -10 -24 -10 10
-18 19 -4 39 -9 44 -11 6 -1 26 -5 45 -8 l35 -6 -30 14 c-16 9 -42 15 -57 16
-30 0 -35 9 -17 27 7 7 3 12 -15 15 -14 3 -26 2 -26 -3z"/>
<path d="M1828 1223 c7 -3 16 -2 19 1 4 3 -2 6 -13 5 -11 0 -14 -3 -6 -6z"/>
<path d="M140 1211 c0 -5 12 -17 28 -26 l27 -18 -24 27 c-26 28 -31 31 -31 17z"/>
<path d="M1360 1216 c0 -4 7 -14 15 -22 8 -9 15 -11 15 -6 0 5 -7 15 -15 22
-8 7 -15 9 -15 6z"/>
<path d="M1502 1190 c0 -19 2 -27 5 -17 2 9 2 25 0 35 -3 9 -5 1 -5 -18z"/>
<path d="M1543 1175 c0 -27 2 -38 4 -22 2 15 2 37 0 50 -2 12 -4 0 -4 -28z"/>
<path d="M1635 1211 c-3 -5 -1 -12 5 -16 5 -3 10 1 10 9 0 18 -6 21 -15 7z"/>
<path d="M1668 1203 c10 -4 10 -8 1 -19 -16 -20 -6 -17 20 5 l21 19 -27 -1
c-16 0 -22 -2 -15 -4z"/>
<path d="M1818 1203 c12 -2 30 -2 40 0 9 3 -1 5 -23 4 -22 0 -30 -2 -17 -4z"/>
<path d="M722 1180 c0 -14 2 -19 5 -12 2 6 2 18 0 25 -3 6 -5 1 -5 -13z"/>
<path d="M1360 1170 c12 -16 24 -30 26 -30 3 0 -4 14 -16 30 -12 17 -24 30
-26 30 -3 0 4 -13 16 -30z"/>
<path d="M1446 1185 c4 -8 11 -15 16 -15 6 0 5 6 -2 15 -7 8 -14 15 -16 15 -2
0 -1 -7 2 -15z"/>
<path d="M1770 1190 c-13 -8 -12 -10 3 -10 9 0 17 5 17 10 0 12 -1 12 -20 0z"/>
<path d="M1808 1183 c6 -2 18 -2 25 0 6 3 1 5 -13 5 -14 0 -19 -2 -12 -5z"/>
<path d="M1858 1183 c7 -3 16 -2 19 1 4 3 -2 6 -13 5 -11 0 -14 -3 -6 -6z"/>
<path d="M304 1147 c15 -19 26 -38 26 -44 0 -5 7 -18 15 -29 14 -17 14 -16 2
11 -23 55 -47 95 -58 95 -5 0 1 -15 15 -33z"/>
<path d="M1522 1155 c0 -16 2 -22 5 -12 2 9 2 23 0 30 -3 6 -5 -1 -5 -18z"/>
<path d="M80 1155 c0 -16 16 -20 24 -6 3 5 -1 11 -9 15 -9 3 -15 0 -15 -9z"/>
<path d="M241 1167 c2 -1 14 -11 27 -21 12 -11 22 -16 22 -13 0 10 -31 37 -42
37 -6 0 -9 -1 -7 -3z"/>
<path d="M360 1160 c0 -5 7 -7 15 -4 8 4 15 8 15 10 0 2 -7 4 -15 4 -8 0 -15
-4 -15 -10z"/>
<path d="M854 1152 c7 -19 5 -20 -25 -12 -31 9 -57 5 -28 -4 54 -17 69 -16 69
3 0 11 -5 23 -11 27 -7 4 -9 0 -5 -14z"/>
<path d="M989 1154 c-15 -18 -21 -44 -10 -44 3 0 12 14 18 30 13 34 11 37 -8
14z"/>
<path d="M400 1151 c0 -6 15 -11 33 -12 17 0 42 -2 55 -5 12 -2 22 0 22 4 0 5
-6 9 -12 10 -7 0 -32 4 -55 8 -29 4 -43 3 -43 -5z"/>
<path d="M580 1150 c0 -4 9 -10 20 -13 11 -3 20 -2 20 3 0 4 -9 10 -20 13 -11
3 -20 2 -20 -3z"/>
<path d="M1690 1149 c0 -5 5 -7 10 -4 6 3 10 8 10 11 0 2 -4 4 -10 4 -5 0 -10
-5 -10 -11z"/>
<path d="M1767 1140 c9 -11 19 -17 21 -15 6 6 -18 35 -29 35 -5 0 -1 -9 8 -20z"/>
<path d="M127 1143 c-3 -5 6 -9 20 -10 19 -1 22 1 12 8 -17 11 -26 11 -32 2z"/>
<path d="M220 1147 c0 -1 16 -17 35 -36 19 -18 35 -28 35 -22 0 11 -51 61 -62
61 -5 0 -8 -1 -8 -3z"/>
<path d="M745 1140 c3 -5 8 -10 11 -10 2 0 4 5 4 10 0 6 -5 10 -11 10 -5 0 -7
-4 -4 -10z"/>
<path d="M346 1127 c3 -10 9 -15 12 -12 3 3 0 11 -7 18 -10 9 -11 8 -5 -6z"/>
<path d="M520 1130 c0 -6 6 -10 13 -11 16 -1 41 -6 96 -19 104 -24 151 -31
151 -22 0 4 -37 13 -82 20 -45 8 -89 17 -97 21 -28 14 -81 21 -81 11z"/>
<path d="M647 1129 c12 -9 113 -27 113 -19 0 3 -27 11 -60 16 -33 6 -57 7 -53
3z"/>
<path d="M1870 1130 c0 -5 5 -10 11 -10 5 0 7 5 4 10 -3 6 -8 10 -11 10 -2 0
-4 -4 -4 -10z"/>
<path d="M1952 1128 c2 -6 10 -14 16 -16 7 -2 10 2 6 12 -7 18 -28 22 -22 4z"/>
<path d="M420 1120 c0 -6 80 -30 100 -30 6 0 10 4 10 8 0 5 -25 13 -55 19 -30
5 -55 7 -55 3z"/>
<path d="M1040 1126 c0 -2 7 -9 15 -16 9 -7 15 -8 15 -2 0 5 -7 12 -15 16 -8
3 -15 4 -15 2z"/>
<path d="M1696 1122 c-2 -4 -1 -14 4 -21 9 -15 30 -6 30 12 0 7 -4 6 -10 -3
-9 -13 -14 -7 -11 13 1 9 -7 9 -13 -1z"/>
<path d="M306 1100 c3 -14 10 -29 15 -34 14 -16 10 6 -7 34 l-15 25 7 -25z"/>
<path d="M1190 1110 c0 -5 5 -10 11 -10 5 0 7 5 4 10 -3 6 -8 10 -11 10 -2 0
-4 -4 -4 -10z"/>
<path d="M1340 1113 c0 -6 9 -21 21 -34 l20 -24 -17 30 c-24 39 -24 40 -24 28z"/>
<path d="M1370 1115 c0 -5 5 -17 10 -25 5 -8 10 -10 10 -5 0 6 -5 17 -10 25
-5 8 -10 11 -10 5z"/>
<path d="M1432 1100 c0 -14 2 -19 5 -12 2 6 2 18 0 25 -3 6 -5 1 -5 -13z"/>
<path d="M1490 1111 c0 -6 5 -13 10 -16 6 -3 10 1 10 9 0 9 -4 16 -10 16 -5 0
-10 -4 -10 -9z"/>
<path d="M120 1100 c-9 -6 -10 -10 -3 -10 6 0 15 5 18 10 8 12 4 12 -15 0z"/>
<path d="M948 1098 c6 -9 7 -32 1 -67 -10 -65 -10 -166 1 -154 4 4 10 56 14
114 6 94 4 108 -10 113 -13 5 -14 3 -6 -6z"/>
<path d="M1636 1093 c-4 -9 -2 -21 4 -27 7 -7 10 -2 10 17 0 31 -5 34 -14 10z"/>
<path d="M2970 1079 c-50 -62 -62 -74 -71 -71 -12 3 -11 -23 5 -142 l13 -99
-31 -28 c-17 -16 -42 -38 -55 -49 -13 -11 -22 -23 -18 -26 5 -6 19 5 89 69 29
26 30 31 24 80 -21 170 -21 177 7 202 15 12 27 26 27 31 0 4 10 18 22 31 12
13 19 25 17 28 -3 2 -16 -9 -29 -26z"/>
<path d="M182 1080 c0 -14 2 -19 5 -12 2 6 2 18 0 25 -3 6 -5 1 -5 -13z"/>
<path d="M527 1044 c-20 -65 -21 -91 -2 -49 11 23 14 26 15 10 0 -16 2 -17 10
-5 6 9 5 17 -2 21 -6 4 -8 18 -4 34 7 26 9 27 53 20 25 -4 53 -9 62 -11 9 -2
3 2 -14 9 -16 8 -46 17 -66 20 l-35 5 -17 -54z"/>
<path d="M1303 1080 c-7 -10 -9 -21 -5 -24 4 -2 12 7 19 20 13 29 3 32 -14 4z"/>
<path d="M1540 1080 c-6 -11 -8 -20 -6 -20 3 0 10 9 16 20 6 11 8 20 6 20 -3
0 -10 -9 -16 -20z"/>
<path d="M1674 1066 c-3 -19 -2 -42 3 -51 7 -12 10 -2 11 34 1 59 -4 66 -14
17z"/>
<path d="M55 1080 c-3 -6 1 -7 9 -4 18 7 21 14 7 14 -6 0 -13 -4 -16 -10z"/>
<path d="M370 1084 c0 -7 7 -17 15 -24 9 -7 14 -19 11 -27 -3 -7 1 -13 9 -13
22 0 18 17 -10 48 -14 15 -25 22 -25 16z"/>
<path d="M65 1055 c-16 -14 -25 -25 -19 -25 6 0 17 7 24 15 7 8 17 15 22 15 6
0 5 -7 -2 -15 -11 -13 -10 -14 3 -9 9 3 15 14 14 25 -2 24 -5 24 -42 -6z"/>
<path d="M441 1039 c-7 -22 -11 -43 -8 -45 2 -2 9 14 16 37 7 22 11 43 8 45
-2 2 -9 -14 -16 -37z"/>
<path d="M472 1050 c-14 -37 2 -40 17 -2 10 25 11 24 6 -13 -4 -32 -3 -36 5
-22 13 21 9 59 -6 64 -7 2 -17 -10 -22 -27z"/>
<path d="M1460 1070 c0 -5 11 -17 25 -26 20 -13 23 -20 14 -30 -7 -9 -17 -11
-28 -5 -9 5 -22 6 -29 4 -7 -3 -25 5 -38 18 -16 15 -23 18 -19 8 8 -22 50 -43
66 -34 8 6 11 4 7 -6 -5 -12 1 -14 23 -11 16 2 27 8 24 12 -3 5 -1 11 4 15 15
9 2 32 -22 39 -18 5 -20 8 -7 16 13 8 12 10 -2 10 -10 0 -18 -4 -18 -10z"/>
<path d="M1878 1068 c9 -9 15 -9 24 0 9 9 7 12 -12 12 -19 0 -21 -3 -12 -12z"/>
<path d="M250 1059 c0 -5 5 -7 10 -4 6 3 10 8 10 11 0 2 -4 4 -10 4 -5 0 -10
-5 -10 -11z"/>
<path d="M1410 1045 c13 -14 26 -25 28 -25 3 0 -5 11 -18 25 -13 14 -26 25
-28 25 -3 0 5 -11 18 -25z"/>
<path d="M1161 1044 c0 -11 3 -14 6 -6 3 7 2 16 -1 19 -3 4 -6 -2 -5 -13z"/>
<path d="M1440 1050 c0 -5 5 -10 11 -10 5 0 7 5 4 10 -3 6 -8 10 -11 10 -2 0
-4 -4 -4 -10z"/>
<path d="M150 1040 c0 -5 5 -10 11 -10 5 0 7 5 4 10 -3 6 -8 10 -11 10 -2 0
-4 -4 -4 -10z"/>
<path d="M310 1030 c6 -11 13 -20 16 -20 2 0 0 9 -6 20 -6 11 -13 20 -16 20
-2 0 0 -9 6 -20z"/>
<path d="M330 1047 c0 -5 9 -20 20 -34 11 -14 20 -22 20 -17 -1 12 -39 61 -40
51z"/>
<path d="M580 1039 c0 -5 5 -7 10 -4 6 3 10 8 10 11 0 2 -4 4 -10 4 -5 0 -10
-5 -10 -11z"/>
<path d="M1265 1031 c-3 -12 -12 -21 -18 -21 -7 0 -6 -4 3 -10 12 -7 17 -3 22
17 9 32 3 44 -7 14z"/>
<path d="M0 1032 c0 -12 19 -26 26 -19 2 2 -2 10 -11 17 -9 8 -15 8 -15 2z"/>
<path d="M1592 1010 c-1 -16 2 -30 6 -30 5 0 9 14 10 30 0 17 -3 30 -7 30 -4
0 -8 -13 -9 -30z"/>
<path d="M1783 1033 c9 -2 17 -11 17 -19 0 -8 5 -12 10 -9 21 13 10 35 -17 34
-17 -1 -21 -3 -10 -6z"/>
<path d="M623 1012 c1 -15 8 -22 22 -22 15 0 17 2 6 9 -7 5 -17 15 -22 22 -6
10 -8 7 -6 -9z"/>
<path d="M736 1018 c-21 -73 -27 -101 -22 -105 4 -4 13 24 29 95 5 23 -1 32
-7 10z"/>
<path d="M1130 1015 c0 -9 -6 -12 -15 -9 -11 5 -13 2 -9 -10 8 -21 21 -20 34
3 13 25 13 31 0 31 -5 0 -10 -7 -10 -15z"/>
<path d="M96 1013 c-11 -11 -6 -21 9 -19 22 3 28 13 11 19 -8 3 -17 3 -20 0z"/>
<path d="M781 1004 c0 -11 3 -14 6 -6 3 7 2 16 -1 19 -3 4 -6 -2 -5 -13z"/>
<path d="M1325 1010 c-3 -5 -1 -10 4 -10 6 0 11 5 11 10 0 6 -2 10 -4 10 -3 0
-8 -4 -11 -10z"/>
<path d="M2758 1008 c-34 -9 -98 -66 -98 -87 0 -6 -8 -14 -17 -20 -10 -5 -14
-13 -10 -18 5 -4 16 1 25 13 10 11 30 37 46 57 23 28 38 38 72 43 24 3 44 10
44 15 0 11 -13 10 -62 -3z"/>
<path d="M265 1000 c3 -5 8 -10 11 -10 2 0 4 5 4 10 0 6 -5 10 -11 10 -5 0 -7
-4 -4 -10z"/>
<path d="M595 1000 c-3 -5 -1 -10 4 -10 6 0 11 5 11 10 0 6 -2 10 -4 10 -3 0
-8 -4 -11 -10z"/>
<path d="M1300 992 c6 -13 14 -21 18 -18 3 4 -2 14 -12 24 -18 16 -18 16 -6
-6z"/>
<path d="M1868 1003 c7 -3 16 -2 19 1 4 3 -2 6 -13 5 -11 0 -14 -3 -6 -6z"/>
<path d="M0 991 c0 -6 4 -13 10 -16 6 -3 7 1 4 9 -7 18 -14 21 -14 7z"/>
<path d="M40 993 c0 -6 12 -19 27 -28 14 -10 46 -36 71 -59 29 -26 41 -33 34
-19 -10 18 -26 32 -77 70 -6 5 -21 17 -33 27 -12 11 -22 14 -22 9z"/>
<path d="M343 968 c25 -34 47 -42 55 -20 2 7 -2 10 -11 6 -9 -3 -23 5 -35 20
-11 14 -23 26 -27 26 -4 0 4 -15 18 -32z"/>
<path d="M670 984 c0 -8 5 -12 10 -9 6 3 10 10 10 16 0 5 -4 9 -10 9 -5 0 -10
-7 -10 -16z"/>
<path d="M697 967 c-5 -21 -10 -46 -13 -55 -2 -9 3 -2 11 17 9 18 15 43 13 55
-3 15 -6 9 -11 -17z"/>
<path d="M1228 959 c23 -22 42 -45 42 -50 0 -13 -6 -11 -26 8 -16 16 -16 16
-10 -5 6 -18 4 -21 -11 -16 -24 8 34 -49 67 -66 16 -8 12 -1 -13 20 -20 17
-34 36 -31 42 3 5 12 0 21 -11 8 -12 20 -21 26 -21 7 0 4 7 -6 14 -9 7 -15 20
-12 29 4 8 -5 27 -19 43 -14 16 -30 35 -36 42 -6 6 -16 12 -23 12 -7 0 7 -19
31 -41z"/>
<path d="M380 979 c0 -5 5 -7 10 -4 6 3 10 8 10 11 0 2 -4 4 -10 4 -5 0 -10
-5 -10 -11z"/>
<path d="M481 974 c0 -11 3 -14 6 -6 3 7 2 16 -1 19 -3 4 -6 -2 -5 -13z"/>
<path d="M1077 960 c-6 -16 -15 -30 -19 -30 -4 0 -8 -10 -8 -23 0 -13 -3 -27
-7 -31 -5 -4 -8 -22 -8 -39 -1 -24 -5 -31 -17 -29 -9 1 -19 -2 -23 -8 -3 -5 3
-10 14 -10 18 0 20 -4 14 -32 -4 -18 -13 -39 -21 -47 -13 -13 -12 -17 8 -33
25 -20 47 -23 52 -7 2 5 11 7 21 3 12 -4 16 -13 12 -28 -5 -19 -5 -19 5 -3 9
14 15 16 26 6 10 -8 14 -8 14 0 0 6 -4 11 -10 11 -5 0 -10 5 -10 11 0 6 7 9
15 5 8 -3 15 -1 15 5 0 6 -9 13 -20 16 -15 4 -19 11 -15 27 5 19 5 19 -5 3 -9
-13 -9 -22 0 -32 18 -22 -5 -26 -28 -5 -12 11 -28 20 -37 20 -8 0 -15 7 -15
15 0 8 4 15 9 15 5 0 14 -7 21 -15 14 -17 30 -20 30 -6 0 5 -13 14 -29 20 -22
10 -27 17 -23 37 2 14 11 24 21 24 13 0 13 2 2 9 -10 6 -12 19 -7 42 9 44 40
111 48 103 4 -3 4 3 1 15 -7 28 -13 26 -26 -9z m-31 -265 c18 -15 18 -15 -5
-13 -14 2 -26 9 -29 16 -5 17 10 15 34 -3z"/>
<path d="M1550 975 c-7 -8 -9 -15 -6 -15 4 0 14 7 22 15 9 8 11 15 6 15 -5 0
-15 -7 -22 -15z"/>
<path d="M1628 983 c6 -2 12 -11 12 -19 0 -8 9 -14 23 -13 21 0 21 1 2 9 -11
5 -14 9 -7 9 24 2 11 17 -15 18 -16 1 -22 -1 -15 -4z"/>
<path d="M1698 983 c7 -3 16 -2 19 1 4 3 -2 6 -13 5 -11 0 -14 -3 -6 -6z"/>
<path d="M1731 986 c8 -8 88 -10 95 -3 4 4 -17 7 -46 7 -29 0 -51 -2 -49 -4z"/>
<path d="M1860 982 c0 -5 7 -9 15 -9 8 0 15 4 15 9 0 4 -7 8 -15 8 -8 0 -15
-4 -15 -8z"/>
<path d="M1918 983 c12 -2 32 -2 45 0 12 2 2 4 -23 4 -25 0 -35 -2 -22 -4z"/>
<path d="M2830 956 c0 -62 11 -96 31 -96 21 0 26 35 8 60 -9 12 -10 12 -5 -3
4 -12 2 -17 -6 -15 -8 3 -11 20 -9 46 1 25 -2 42 -8 42 -6 0 -11 -15 -11 -34z"/>
<path d="M413 940 c-5 -22 -7 -37 -2 -35 9 6 23 64 17 70 -2 3 -9 -13 -15 -35z"/>
<path d="M442 945 c-15 -52 -15 -50 8 -52 13 -1 20 4 19 15 0 11 -2 12 -6 4
-2 -6 -9 -10 -14 -6 -5 3 -5 13 2 25 5 11 9 28 6 37 -2 10 -8 1 -15 -23z"/>
<path d="M565 970 c3 -5 8 -10 11 -10 2 0 4 5 4 10 0 6 -5 10 -11 10 -5 0 -7
-4 -4 -10z"/>
<path d="M769 963 c-1 -20 -3 -34 -14 -74 -4 -16 -2 -30 4 -33 7 -5 11 3 11
21 1 15 3 45 6 66 3 20 3 37 0 37 -3 0 -6 -8 -7 -17z"/>
<path d="M1191 956 c13 -14 26 -23 28 -20 6 6 -30 44 -42 44 -5 0 1 -11 14
-24z"/>
<path d="M2796 965 c-3 -9 0 -15 9 -15 16 0 20 16 6 24 -5 3 -11 -1 -15 -9z"/>
<path d="M1280 955 c0 -8 2 -15 4 -15 2 0 6 7 10 15 3 8 1 15 -4 15 -6 0 -10
-7 -10 -15z"/>
<path d="M1583 963 c9 -2 25 -2 35 0 9 3 1 5 -18 5 -19 0 -27 -2 -17 -5z"/>
<path d="M1705 960 c-14 -5 -5 -8 30 -7 33 0 43 3 30 8 -25 10 -35 10 -60 -1z"/>
<path d="M0 951 c0 -10 19 -25 25 -20 1 2 -3 10 -11 17 -8 7 -14 8 -14 3z"/>
<path d="M140 951 c0 -10 19 -25 25 -20 1 2 -3 10 -11 17 -8 7 -14 8 -14 3z"/>
<path d="M288 953 c7 -3 16 -2 19 1 4 3 -2 6 -13 5 -11 0 -14 -3 -6 -6z"/>
<path d="M496 936 c-3 -13 -9 -32 -12 -43 -5 -12 -4 -15 3 -8 11 10 28 75 20
75 -3 0 -8 -11 -11 -24z"/>
<path d="M660 949 c0 -8 -13 -10 -37 -6 -34 6 -35 5 -16 -8 27 -19 63 -15 63
7 0 10 -2 18 -5 18 -3 0 -5 -5 -5 -11z"/>
<path d="M1160 953 c0 -12 38 -48 45 -41 3 2 -6 15 -20 28 -14 13 -25 19 -25
13z"/>
<path d="M1456 952 c-2 -4 -1 -14 3 -21 6 -10 10 -9 14 3 6 16 -8 32 -17 18z"/>
<path d="M1418 943 c7 -3 16 -2 19 1 4 3 -2 6 -13 5 -11 0 -14 -3 -6 -6z"/>
<path d="M105 893 c28 -28 52 -49 54 -47 5 5 -51 60 -84 83 -11 8 3 -8 30 -36z"/>
<path d="M516 924 c-4 -9 -4 -19 -1 -22 2 -3 7 3 11 12 4 9 4 19 1 22 -2 3 -7
-3 -11 -12z"/>
<path d="M1104 928 c-24 -33 -45 -80 -40 -85 3 -4 7 -4 9 -2 1 2 17 25 35 52
23 32 29 47 19 47 -8 0 -19 -6 -23 -12z"/>
<path d="M1657 885 c3 -33 7 -62 9 -64 7 -8 2 74 -6 99 -5 16 -6 2 -3 -35z"/>
<path d="M1700 920 c0 -11 2 -20 4 -20 2 0 6 9 9 20 3 11 1 20 -4 20 -5 0 -9
-9 -9 -20z"/>
<path d="M1910 916 c0 -14 4 -27 8 -30 5 -3 6 8 4 25 -5 35 -12 38 -12 5z"/>
<path d="M200 919 c0 -5 5 -7 10 -4 6 3 10 8 10 11 0 2 -4 4 -10 4 -5 0 -10
-5 -10 -11z"/>
<path d="M1305 920 c-3 -5 3 -10 15 -10 12 0 18 5 15 10 -3 6 -10 10 -15 10
-5 0 -12 -4 -15 -10z"/>
<path d="M1553 918 c-11 -18 -43 -82 -43 -86 0 -10 35 19 36 30 0 7 2 21 2 31
1 10 6 16 11 13 5 -3 11 1 15 9 7 18 -10 20 -21 3z"/>
<path d="M1626 917 c3 -10 9 -15 12 -12 3 3 0 11 -7 18 -10 9 -11 8 -5 -6z"/>
<path d="M1850 915 c0 -8 2 -15 4 -15 2 0 6 7 10 15 3 8 1 15 -4 15 -6 0 -10
-7 -10 -15z"/>
<path d="M80 870 c30 -27 56 -47 58 -45 6 6 -91 94 -103 95 -5 0 15 -22 45
-50z"/>
<path d="M250 916 c0 -2 7 -7 16 -10 8 -3 12 -2 9 4 -6 10 -25 14 -25 6z"/>
<path d="M574 908 c-4 -6 -3 -8 4 -4 5 3 13 0 15 -6 3 -8 6 -6 6 5 1 19 -14
23 -25 5z"/>
<path d="M1192 875 c23 -24 44 -42 47 -40 6 6 -70 85 -81 85 -5 0 11 -20 34
-45z"/>
<path d="M1387 906 c-4 -10 -1 -13 8 -9 8 3 12 9 9 14 -7 12 -11 11 -17 -5z"/>
<path d="M1432 905 c-11 -12 -10 -15 3 -15 8 0 15 7 15 15 0 18 -2 18 -18 0z"/>
<path d="M1820 899 c7 -11 14 -19 16 -16 7 7 -7 37 -17 37 -6 0 -5 -9 1 -21z"/>
<path d="M0 901 c0 -6 3 -11 8 -11 20 0 114 -105 140 -156 32 -62 61 -105 62
-91 0 5 -8 21 -19 35 -10 15 -30 50 -44 77 -30 60 -147 176 -147 146z"/>
<path d="M651 901 c-7 -5 -11 -15 -9 -22 3 -10 8 -7 17 9 13 24 12 26 -8 13z"/>
<path d="M2140 879 c0 -15 7 -32 15 -39 14 -11 14 -10 5 14 -12 31 -5 50 16
42 8 -3 14 -1 14 4 0 5 -11 9 -25 8 -20 -2 -25 -8 -25 -29z"/>
<path d="M2210 891 c0 -11 5 -23 10 -26 6 -3 10 1 10 9 0 9 0 19 1 23 0 4 -4
9 -10 11 -6 2 -11 -5 -11 -17z"/>
<path d="M2330 875 c-1 -22 -3 -47 -5 -56 -1 -8 -6 -78 -10 -155 -3 -76 -8
-167 -11 -201 -2 -38 0 -63 6 -63 10 0 11 8 15 130 1 41 6 116 11 165 8 87 8
88 15 40 l6 -50 1 63 c1 36 -2 61 -7 58 -5 -4 -7 2 -5 11 3 10 1 36 -5 58 l-9
40 -2 -40z"/>
<path d="M345 890 c3 -5 16 -10 28 -9 21 0 21 1 2 9 -28 12 -37 12 -30 0z"/>
<path d="M701 888 c0 -9 -4 -25 -7 -35 -5 -17 -5 -17 6 0 6 10 9 25 7 35 -4
15 -5 15 -6 0z"/>
<path d="M1335 890 c6 -9 1 -10 -16 -5 -22 6 -22 5 6 -19 17 -14 35 -25 40
-25 6 0 2 6 -9 14 -10 7 -15 18 -12 24 4 5 1 13 -5 17 -8 5 -9 3 -4 -6z"/>
<path d="M1483 874 c-13 -28 -8 -31 14 -8 9 9 12 19 7 24 -5 5 -14 -1 -21 -16z"/>
<path d="M1607 893 c-2 -5 -7 -21 -11 -37 -6 -24 -5 -27 6 -18 8 6 14 22 16
36 2 26 -3 33 -11 19z"/>
<path d="M1717 893 c-4 -3 -6 -31 -6 -62 1 -31 3 -48 6 -38 2 9 9 17 14 17 5
0 9 5 9 11 0 5 -5 7 -11 4 -7 -5 -9 7 -6 34 4 44 4 45 -6 34z"/>
<path d="M2366 887 c3 -10 9 -15 12 -12 3 3 0 11 -7 18 -10 9 -11 8 -5 -6z"/>
<path d="M2427 880 c3 -11 10 -23 16 -27 6 -4 8 2 4 16 -5 20 -2 22 18 19 13
-3 30 -1 37 3 8 6 -5 9 -34 9 -41 0 -46 -2 -41 -20z"/>
<path d="M2533 893 c9 -2 25 -2 35 0 9 3 1 5 -18 5 -19 0 -27 -2 -17 -5z"/>
<path d="M400 881 c0 -6 5 -12 10 -12 6 -1 13 -2 18 -4 4 -1 25 -5 47 -9 22
-4 58 -11 80 -17 22 -5 56 -11 75 -13 51 -5 50 -5 50 -16 0 -5 -7 -7 -15 -4
-10 4 -15 0 -15 -11 0 -9 5 -13 10 -10 15 9 71 -5 64 -16 -3 -5 -23 -6 -45 -3
-21 4 -39 3 -39 -2 0 -5 20 -10 44 -11 37 -2 45 1 55 23 8 19 8 25 -2 23 -33
-4 -49 2 -43 16 3 8 4 15 3 15 -4 0 -223 39 -251 45 -16 3 -33 8 -38 11 -4 3
-8 0 -8 -5z"/>
<path d="M1642 865 c0 -16 2 -22 5 -12 2 9 2 23 0 30 -3 6 -5 -1 -5 -18z"/>
<path d="M568 873 c7 -3 16 -2 19 1 4 3 -2 6 -13 5 -11 0 -14 -3 -6 -6z"/>
<path d="M1143 855 c0 -13 3 -22 8 -20 9 6 8 45 -2 45 -4 0 -6 -11 -6 -25z"/>
<path d="M1425 870 c-3 -5 -2 -10 4 -10 5 0 13 5 16 10 3 6 2 10 -4 10 -5 0
-13 -4 -16 -10z"/>
<path d="M1745 870 c3 -5 8 -10 11 -10 2 0 4 5 4 10 0 6 -5 10 -11 10 -5 0 -7
-4 -4 -10z"/>
<path d="M352 859 c3 -8 10 -15 16 -15 7 -1 13 -2 15 -3 1 -2 13 -4 27 -7 14
-2 48 -9 76 -14 28 -6 64 -13 80 -15 16 -3 39 -7 52 -10 12 -3 22 -2 22 3 0 4
-51 17 -112 29 -132 24 -154 29 -169 39 -7 4 -10 1 -7 -7z"/>
<path d="M2470 858 c0 -4 37 -7 83 -7 92 1 86 6 -15 11 -38 2 -68 0 -68 -4z"/>
<path d="M942 835 c0 -16 2 -22 5 -12 2 9 2 23 0 30 -3 6 -5 -1 -5 -18z"/>
<path d="M1680 849 c0 -5 5 -7 10 -4 6 3 10 8 10 11 0 2 -4 4 -10 4 -5 0 -10
-5 -10 -11z"/>
<path d="M1822 844 c-7 -8 -8 -14 -3 -14 10 0 25 19 20 25 -2 1 -10 -3 -17
-11z"/>
<path d="M1883 820 c0 -25 2 -35 4 -22 2 12 2 32 0 45 -2 12 -4 2 -4 -23z"/>
<path d="M2056 844 c-12 -31 3 -34 22 -4 10 16 10 20 -2 20 -8 0 -17 -7 -20
-16z"/>
<path d="M1315 840 c3 -5 8 -10 11 -10 2 0 4 5 4 10 0 6 -5 10 -11 10 -5 0 -7
-4 -4 -10z"/>
<path d="M1391 833 c11 -12 8 -13 -17 -8 -25 5 -26 4 -6 -4 30 -14 28 -25 -4
-17 -17 5 -23 3 -19 -4 12 -20 50 -10 66 18 15 26 14 27 -8 28 -20 2 -22 -1
-12 -13z"/>
<path d="M2231 834 c0 -11 3 -14 6 -6 3 7 2 16 -1 19 -3 4 -6 -2 -5 -13z"/>
<path d="M250 829 c0 -5 5 -7 10 -4 6 3 10 8 10 11 0 2 -4 4 -10 4 -5 0 -10
-5 -10 -11z"/>
<path d="M1166 779 c-40 -68 -44 -78 -19 -58 15 12 16 12 10 -3 -9 -25 0 -22
14 3 8 15 8 19 0 15 -18 -11 -13 8 15 58 38 67 22 56 -20 -15z"/>
<path d="M1445 829 c-17 -7 -18 -8 -2 -8 14 -1 16 -5 7 -21 -6 -10 -16 -18
-23 -16 -6 1 -9 1 -4 -1 4 -3 7 -11 7 -19 0 -8 8 -14 18 -14 14 0 15 2 2 10
-12 8 -12 10 5 11 11 0 14 3 8 6 -10 3 -10 10 -2 24 14 27 8 38 -16 28z"/>
<path d="M1861 824 c0 -11 3 -14 6 -6 3 7 2 16 -1 19 -3 4 -6 -2 -5 -13z"/>
<path d="M2420 830 c0 -5 5 -10 11 -10 5 0 7 5 4 10 -3 6 -8 10 -11 10 -2 0
-4 -4 -4 -10z"/>
<path d="M216 783 c29 -53 70 -96 93 -100 9 -1 -1 12 -22 29 -21 17 -47 48
-57 69 -11 21 -24 41 -30 44 -6 4 1 -15 16 -42z"/>
<path d="M308 816 c-22 -16 -24 -30 -3 -23 8 4 17 3 19 -2 3 -4 30 -13 60 -20
54 -12 55 -13 51 -44 l-5 -32 11 30 c7 17 12 31 13 32 0 0 43 -7 94 -17 51 -9
95 -14 97 -10 5 7 -107 30 -148 30 -14 0 -28 4 -31 9 -3 4 -17 7 -31 6 -14 -2
-25 1 -25 6 0 6 -4 8 -8 5 -12 -7 -82 15 -82 26 0 5 17 7 38 4 26 -4 33 -3 22
4 -21 13 -52 12 -72 -4z"/>
<path d="M710 822 c0 -4 11 -9 26 -10 14 -1 23 2 19 8 -7 12 -45 14 -45 2z"/>
<path d="M1237 807 c-33 -51 -35 -61 -20 -76 13 -12 14 -11 8 7 -5 18 -3 21
12 16 14 -4 15 -4 4 4 -14 10 -6 36 9 27 4 -3 6 4 3 16 l-6 20 39 -20 c21 -12
43 -21 48 -21 17 0 -7 17 -46 33 -35 15 -37 14 -51 -6z"/>
<path d="M1560 826 c0 -2 8 -10 18 -17 15 -13 16 -12 3 4 -13 16 -21 21 -21
13z"/>
<path d="M1610 820 c0 -5 5 -10 10 -10 6 0 10 5 10 10 0 6 -4 10 -10 10 -5 0
-10 -4 -10 -10z"/>
<path d="M1830 810 c-6 -12 -9 -24 -7 -27 3 -2 11 5 17 17 6 12 9 24 7 27 -3
2 -11 -5 -17 -17z"/>
<path d="M400 810 c0 -5 12 -10 28 -9 24 0 25 1 7 9 -27 12 -35 12 -35 0z"/>
<path d="M1201 793 c-10 -26 -10 -27 4 -9 8 11 15 23 15 28 0 15 -7 8 -19 -19z"/>
<path d="M1507 814 c7 -3 10 -11 7 -18 -3 -8 7 -18 23 -25 32 -13 138 -19 149
-8 4 4 -24 7 -62 7 -69 1 -104 14 -97 38 3 7 -3 12 -14 11 -10 0 -13 -3 -6 -5z"/>
<path d="M2100 811 c0 -5 5 -13 10 -16 6 -3 10 -2 10 4 0 5 -4 13 -10 16 -5 3
-10 2 -10 -4z"/>
<path d="M2707 760 c-77 -81 -73 -90 6 -12 52 52 65 60 77 50 12 -11 12 -10 1
5 -7 9 -17 17 -20 17 -4 0 -33 -27 -64 -60z"/>
<path d="M162 765 c12 -24 23 -43 26 -41 4 5 -36 86 -43 86 -3 0 5 -20 17 -45z"/>
<path d="M180 798 c0 -9 5 -20 10 -23 13 -8 13 5 0 25 -8 13 -10 13 -10 -2z"/>
<path d="M460 800 c0 -8 40 -18 133 -35 24 -5 37 -4 37 4 0 6 -12 11 -27 11
-16 0 -54 6 -85 14 -32 7 -58 10 -58 6z"/>
<path d="M1098 798 c9 -9 15 -9 24 0 9 9 7 12 -12 12 -19 0 -21 -3 -12 -12z"/>
<path d="M1141 783 c-10 -26 -10 -27 4 -9 8 11 15 23 15 28 0 15 -7 8 -19 -19z"/>
<path d="M2220 782 c0 -18 5 -32 10 -32 6 0 9 11 7 25 -5 37 -17 42 -17 7z"/>
<path d="M2420 790 c0 -15 6 -32 13 -39 10 -11 10 -14 0 -18 -7 -3 -13 -9 -13
-15 0 -6 6 -8 13 -5 8 3 14 -3 14 -14 1 -11 -5 -19 -13 -19 -10 0 -13 -10 -11
-40 2 -22 -1 -40 -5 -40 -5 0 -6 -5 -3 -11 13 -21 27 -2 29 40 1 23 7 46 13
49 8 5 10 29 6 70 -4 41 -9 59 -14 50 -7 -11 -11 -10 -19 2 -8 12 -10 10 -10
-10z"/>
<path d="M2485 750 c33 -412 65 -750 73 -750 5 0 -3 133 -17 285 -16 158 -30
323 -37 415 -4 47 -11 92 -15 100 -6 9 -7 -11 -4 -50z"/>
<path d="M66 784 c-3 -8 -10 -12 -16 -9 -5 3 -10 -1 -10 -9 0 -9 2 -16 5 -16
8 0 45 34 45 42 0 14 -18 8 -24 -8z"/>
<path d="M921 762 c-8 -23 -11 -45 -8 -49 4 -3 7 3 7 15 0 11 5 22 11 24 6 2
9 15 7 28 -3 21 -5 19 -17 -18z"/>
<path d="M2156 787 c3 -10 9 -15 12 -12 3 3 0 11 -7 18 -10 9 -11 8 -5 -6z"/>
<path d="M2550 791 c26 -4 36 -12 40 -31 6 -24 7 -23 11 8 l6 32 -46 -1 c-44
-2 -44 -2 -11 -8z"/>
<path d="M250 783 c0 -6 8 -17 18 -24 16 -13 16 -13 2 6 -8 11 -16 22 -17 24
-2 2 -3 0 -3 -6z"/>
<path d="M2276 781 c-4 -7 -5 -15 -2 -18 9 -9 19 4 14 18 -4 11 -6 11 -12 0z"/>
<path d="M995 772 c-5 -4 -11 -17 -12 -30 -2 -18 0 -20 10 -11 7 7 13 21 13
31 0 10 0 18 -1 18 0 0 -4 -4 -10 -8z"/>
<path d="M1074 768 c-3 -4 4 -8 15 -8 11 0 22 4 26 9 3 6 -4 9 -16 8 -11 -1
-23 -5 -25 -9z"/>
<path d="M1365 770 c11 -5 27 -9 35 -9 9 0 8 4 -5 9 -11 5 -27 9 -35 9 -9 0
-8 -4 5 -9z"/>
<path d="M2057 773 c-10 -9 -9 -23 2 -23 5 0 11 7 15 15 5 15 -5 20 -17 8z"/>
<path d="M2745 715 c-39 -36 -65 -64 -60 -65 15 0 146 118 137 124 -4 2 -39
-24 -77 -59z"/>
<path d="M320 746 c-12 -33 -13 -46 -1 -46 9 0 22 61 15 69 -2 2 -8 -8 -14
-23z"/>
<path d="M1495 760 c11 -5 27 -9 35 -9 9 0 8 4 -5 9 -11 5 -27 9 -35 9 -9 0
-8 -4 5 -9z"/>
<path d="M1706 758 c3 -4 12 -8 20 -8 8 0 14 4 14 8 0 4 -9 8 -19 8 -11 0 -17
-4 -15 -8z"/>
<path d="M1750 758 c0 -4 23 -8 51 -8 30 0 48 4 44 10 -7 11 -95 9 -95 -2z"/>
<path d="M2126 762 c-3 -5 1 -15 9 -22 16 -14 20 -3 6 19 -5 8 -11 9 -15 3z"/>
<path d="M200 756 c0 -14 70 -96 82 -96 6 0 -1 12 -15 28 -15 15 -35 38 -46
52 -11 14 -20 21 -21 16z"/>
<path d="M373 715 c-5 -24 -7 -42 -3 -40 4 3 10 15 13 27 2 13 8 31 12 41 4 9
3 17 -2 17 -5 0 -14 -20 -20 -45z"/>
<path d="M1987 738 c-10 -11 -17 -22 -14 -24 2 -2 12 5 22 16 23 26 16 33 -8
8z"/>
<path d="M1475 740 c3 -5 14 -10 23 -10 15 0 15 2 2 10 -20 13 -33 13 -25 0z"/>
<path d="M351 724 c0 -11 3 -14 6 -6 3 7 2 16 -1 19 -3 4 -6 -2 -5 -13z"/>
<path d="M400 705 c-7 -20 -10 -39 -7 -42 3 -3 10 12 16 33 14 49 7 56 -9 9z"/>
<path d="M660 729 c0 -10 50 -18 55 -9 3 4 -9 10 -25 12 -17 3 -30 1 -30 -3z"/>
<path d="M1340 718 c0 -17 2 -18 15 -8 8 7 15 14 15 15 0 2 -7 5 -15 9 -10 4
-15 -1 -15 -16z"/>
<path d="M1527 733 c-6 -9 152 -7 161 1 3 4 -31 6 -76 6 -44 0 -83 -3 -85 -7z"/>
<path d="M1745 730 c-3 -5 1 -10 10 -10 9 0 13 5 10 10 -3 6 -8 10 -10 10 -2
0 -7 -4 -10 -10z"/>
<path d="M1789 729 c-10 -6 -4 -9 19 -9 17 0 32 2 32 4 0 9 -39 13 -51 5z"/>
<path d="M2066 725 c-17 -17 -21 -35 -8 -35 9 0 35 40 29 46 -3 3 -12 -2 -21
-11z"/>
<path d="M2272 731 c-17 -10 -12 -101 6 -101 6 0 12 7 12 15 0 8 -6 24 -12 35
-11 17 -10 22 1 29 7 5 12 14 10 20 -2 6 -10 7 -17 2z"/>
<path d="M72 714 c-7 -8 -8 -14 -3 -14 10 0 25 19 20 25 -2 1 -10 -3 -17 -11z"/>
<path d="M490 720 c0 -5 5 -10 10 -10 6 0 10 5 10 10 0 6 -4 10 -10 10 -5 0
-10 -4 -10 -10z"/>
<path d="M1187 716 c-4 -10 -5 -21 -2 -24 9 -9 17 6 13 25 -3 17 -4 17 -11 -1z"/>
<path d="M1383 718 c-4 -7 -20 -39 -35 -71 -24 -51 -26 -60 -13 -73 8 -8 18
-15 22 -16 4 0 23 -8 41 -17 26 -12 33 -20 29 -38 -2 -13 0 -23 4 -23 5 0 9
12 9 28 0 22 -8 31 -40 46 -22 11 -40 23 -40 28 0 5 -4 6 -10 3 -18 -11 -11
18 20 83 26 56 33 81 13 50z"/>
<path d="M1460 720 c0 -5 5 -10 11 -10 5 0 7 5 4 10 -3 6 -8 10 -11 10 -2 0
-4 -4 -4 -10z"/>
<path d="M2594 694 c-3 -19 -2 -40 3 -45 6 -6 10 7 11 36 3 54 -5 59 -14 9z"/>
<path d="M200 703 c0 -6 8 -17 18 -24 16 -13 16 -13 2 6 -8 11 -16 22 -17 24
-2 2 -3 0 -3 -6z"/>
<path d="M626 703 c-3 -4 -6 -13 -5 -22 0 -12 3 -11 10 4 7 15 8 8 5 -25 l-5
-45 14 35 c7 19 14 38 14 41 1 10 -26 19 -33 12z"/>
<path d="M1381 659 c-12 -28 -20 -54 -17 -57 3 -3 8 4 12 14 3 10 13 34 21 52
8 19 13 35 11 38 -3 2 -14 -19 -27 -47z"/>
<path d="M1425 700 c-3 -5 -1 -10 4 -10 6 0 11 5 11 10 0 6 -2 10 -4 10 -3 0
-8 -4 -11 -10z"/>
<path d="M1513 702 c-6 -4 31 -7 83 -7 52 0 94 3 94 8 0 9 -161 9 -177 -1z"/>
<path d="M1700 701 c0 -4 11 -6 25 -3 14 2 25 6 25 8 0 2 -11 4 -25 4 -14 0
-25 -4 -25 -9z"/>
<path d="M1775 700 c3 -5 18 -10 33 -9 24 0 25 1 7 9 -28 12 -47 12 -40 0z"/>
<path d="M2016 697 c3 -10 9 -15 12 -12 3 3 0 11 -7 18 -10 9 -11 8 -5 -6z"/>
<path d="M2226 688 c-8 -33 -7 -58 3 -58 4 0 8 18 8 40 0 46 -2 49 -11 18z"/>
<path d="M2401 694 c0 -11 3 -14 6 -6 3 7 2 16 -1 19 -3 4 -6 -2 -5 -13z"/>
<path d="M341 693 c-1 -6 -4 -20 -7 -30 -5 -17 -5 -17 6 0 6 10 9 23 6 30 -3
9 -5 9 -5 0z"/>
<path d="M960 680 c-6 -11 -9 -26 -7 -33 3 -7 10 1 16 17 14 35 7 47 -9 16z"/>
<path d="M1427 639 c-15 -34 -25 -64 -23 -67 3 -2 14 19 26 47 12 28 27 49 33
48 6 -1 12 7 14 18 3 15 2 17 -5 6 -7 -10 -11 -10 -14 -1 -2 7 -16 -16 -31
-51z"/>
<path d="M30 679 c0 -5 5 -7 10 -4 6 3 10 8 10 11 0 2 -4 4 -10 4 -5 0 -10 -5
-10 -11z"/>
<path d="M91 676 c-7 -8 -8 -17 -3 -19 4 -3 13 3 20 14 14 22 0 26 -17 5z"/>
<path d="M447 683 c-4 -3 -7 -11 -7 -17 0 -6 5 -5 12 2 6 6 9 14 7 17 -3 3 -9
2 -12 -2z"/>
<path d="M500 682 c0 -4 14 -9 32 -10 37 -3 35 2 -4 12 -16 3 -28 3 -28 -2z"/>
<path d="M666 662 c-5 -18 -5 -36 -2 -39 7 -7 19 43 13 59 -2 7 -7 -2 -11 -20z"/>
<path d="M1309 681 c12 -8 13 -15 3 -35 -9 -21 -9 -24 3 -19 8 3 15 13 15 22
0 9 5 22 12 29 9 9 5 12 -17 12 -22 0 -26 -3 -16 -9z"/>
<path d="M2110 681 c0 -6 9 -9 19 -8 11 0 17 5 15 9 -7 11 -34 10 -34 -1z"/>
<path d="M415 670 c-3 -5 -1 -10 4 -10 6 0 11 5 11 10 0 6 -2 10 -4 10 -3 0
-8 -4 -11 -10z"/>
<path d="M575 670 c3 -5 1 -10 -5 -10 -6 0 -8 -4 -5 -10 10 -16 22 -12 28 10
3 13 0 20 -10 20 -8 0 -11 -4 -8 -10z"/>
<path d="M1160 672 c0 -6 76 -49 143 -80 4 -2 7 1 7 6 0 5 -29 22 -65 37 -36
16 -65 32 -65 37 0 4 -4 8 -10 8 -5 0 -10 -4 -10 -8z"/>
<path d="M1506 672 c5 -4 50 -5 99 -2 l90 7 -99 1 c-55 1 -96 -2 -90 -6z"/>
<path d="M1700 671 c0 -7 10 -12 23 -11 12 1 39 2 61 1 34 -1 37 -3 25 -17
-11 -13 -9 -14 17 -8 16 3 34 11 39 17 7 6 3 8 -12 4 -12 -2 -23 -1 -25 5 -5
15 -128 23 -128 9z"/>
<path d="M2351 661 c-11 -19 -11 -25 0 -32 15 -9 23 9 17 39 -3 14 -6 13 -17
-7z"/>
<path d="M2971 664 c0 -11 3 -14 6 -6 3 7 2 16 -1 19 -3 4 -6 -2 -5 -13z"/>
<path d="M2000 653 c0 -13 5 -23 10 -23 13 0 13 11 0 30 -8 12 -10 11 -10 -7z"/>
<path d="M2060 645 c0 -14 4 -25 10 -25 5 0 9 11 8 25 -1 14 -6 25 -10 25 -4
0 -8 -11 -8 -25z"/>
<path d="M2620 666 c0 -2 7 -9 15 -16 13 -11 14 -10 9 4 -5 14 -24 23 -24 12z"/>
<path d="M254 635 c31 -28 46 -32 46 -10 0 9 -6 12 -15 9 -8 -4 -17 1 -21 10
-3 9 -13 16 -22 16 -10 0 -7 -8 12 -25z"/>
<path d="M350 630 c-7 -17 -10 -33 -8 -36 3 -3 11 9 17 27 14 42 7 49 -9 9z"/>
<path d="M967 631 c-9 -15 -14 -31 -10 -35 3 -3 1 -6 -6 -6 -7 0 -10 -4 -6 -9
3 -5 1 -12 -5 -16 -18 -11 -11 -31 15 -43 15 -7 25 -8 25 -2 0 6 -7 10 -16 10
-18 0 -15 20 11 83 17 40 26 45 45 22 11 -13 7 -19 -12 -16 -8 1 -30 -60 -24
-67 8 -7 27 9 21 18 -6 10 31 57 40 49 3 -4 -6 -27 -20 -53 -33 -59 -24 -60
10 -1 23 38 30 43 45 35 24 -13 30 -13 30 1 0 5 -4 7 -10 4 -5 -3 -10 -2 -10
2 0 9 -83 53 -98 53 -4 0 -15 -13 -25 -29z"/>
<path d="M2155 650 c-4 -6 -11 -7 -17 -4 -8 5 -9 1 -4 -12 5 -10 9 -24 9 -31
0 -6 9 -14 19 -16 20 -6 25 8 7 19 -6 3 -9 17 -6 30 5 26 2 30 -8 14z"/>
<path d="M2780 645 c-7 -8 -19 -15 -26 -15 -16 0 -16 -6 -4 -35 8 -19 9 -19 9
2 1 12 11 29 23 37 12 9 19 18 16 21 -3 3 -11 -1 -18 -10z"/>
<path d="M60 640 c0 -5 5 -10 11 -10 5 0 7 5 4 10 -3 6 -8 10 -11 10 -2 0 -4
-4 -4 -10z"/>
<path d="M376 634 c-5 -14 -4 -15 9 -4 17 14 19 20 6 20 -5 0 -12 -7 -15 -16z"/>
<path d="M395 600 c-11 -32 -22 -50 -33 -51 -20 -1 156 -49 178 -48 35 0 -40
27 -93 34 -46 5 -57 10 -53 22 3 8 6 19 6 24 0 4 7 6 15 3 10 -4 15 0 15 11 0
9 -5 13 -11 9 -9 -5 -10 1 -5 20 11 44 -1 29 -19 -24z"/>
<path d="M606 634 c-4 -9 -4 -19 -1 -22 2 -3 7 3 11 12 4 9 4 19 1 22 -2 3 -7
-3 -11 -12z"/>
<path d="M1150 643 c0 -5 39 -29 88 -53 48 -25 89 -46 91 -47 2 -2 -2 -9 -9
-18 -11 -13 -6 -18 34 -35 25 -12 46 -25 46 -31 0 -5 -17 -2 -37 7 -61 26 -69
27 -45 9 14 -10 21 -23 17 -34 -3 -11 0 -18 9 -18 8 0 12 6 9 13 -3 9 6 11 36
7 23 -3 41 -2 41 2 0 12 -49 55 -63 55 -21 0 -40 17 -33 29 5 8 12 7 22 -4 17
-16 34 -20 34 -7 0 4 -54 36 -120 70 -66 35 -120 59 -120 55z"/>
<path d="M1480 639 c0 -6 5 -19 10 -30 7 -13 7 -19 0 -19 -5 0 -10 -12 -9 -27
l0 -28 11 25 c16 35 16 90 1 90 -7 0 -13 -5 -13 -11z"/>
<path d="M1647 623 c-10 -51 -19 -148 -14 -143 7 6 27 163 22 168 -2 2 -5 -9
-8 -25z"/>
<path d="M1672 625 c0 -16 2 -22 5 -12 2 9 2 23 0 30 -3 6 -5 -1 -5 -18z"/>
<path d="M1694 636 c-3 -8 -4 -31 -1 -52 4 -38 4 -37 5 8 1 26 7 49 15 51 9 4
9 6 -1 6 -7 1 -15 -5 -18 -13z"/>
<path d="M229 621 c6 -11 19 -25 29 -30 15 -9 15 -12 -10 -38 -37 -39 -36 -48
2 -15 38 34 38 52 -1 81 -29 22 -30 22 -20 2z"/>
<path d="M1586 625 c4 -8 10 -15 15 -15 4 0 6 7 3 15 -4 8 -10 15 -15 15 -4 0
-6 -7 -3 -15z"/>
<path d="M1750 630 c0 -5 7 -7 15 -4 8 4 15 8 15 10 0 2 -7 4 -15 4 -8 0 -15
-4 -15 -10z"/>
<path d="M2674 626 c23 -18 36 -20 36 -6 0 6 -4 10 -9 10 -5 0 -18 3 -28 6
-16 5 -16 4 1 -10z"/>
<path d="M180 626 c0 -3 9 -10 20 -16 11 -6 20 -8 20 -6 0 3 -9 10 -20 16 -11
6 -20 8 -20 6z"/>
<path d="M570 621 c0 -5 -12 -12 -27 -14 -26 -4 -26 -4 5 -6 22 -1 32 3 32 14
0 8 -2 15 -5 15 -3 0 -5 -4 -5 -9z"/>
<path d="M1125 618 c11 -8 52 -32 90 -53 81 -44 80 -43 73 -50 -7 -7 -75 22
-83 35 -7 12 -76 42 -82 36 -5 -5 103 -66 117 -66 5 0 10 -4 10 -9 0 -19 37
-18 49 1 15 23 17 20 -39 47 -25 11 -59 29 -76 40 -16 10 -41 22 -55 26 -23 7
-23 6 -4 -7z"/>
<path d="M22 608 c2 -6 10 -13 16 -14 7 -1 8 0 2 3 -5 2 -8 9 -4 14 3 5 0 9
-6 9 -7 0 -10 -5 -8 -12z"/>
<path d="M1552 604 c-7 -8 -8 -14 -3 -14 10 0 25 19 20 25 -2 1 -10 -3 -17
-11z"/>
<path d="M2228 568 c-3 -29 -1 -60 3 -68 5 -9 9 13 9 53 0 80 -6 88 -12 15z"/>
<path d="M621 587 c-20 -53 -23 -69 -12 -63 6 4 11 14 11 22 0 8 5 13 11 12
18 -5 30 39 13 46 -9 4 -18 -3 -23 -17z m16 -19 c-3 -8 -6 -5 -6 6 -1 11 2 17
5 13 3 -3 4 -12 1 -19z"/>
<path d="M1615 570 c-4 -23 -5 -43 -2 -46 2 -3 7 14 11 37 4 23 5 44 2 46 -2
2 -7 -14 -11 -37z"/>
<path d="M1711 594 c0 -11 3 -14 6 -6 3 7 2 16 -1 19 -3 4 -6 -2 -5 -13z"/>
<path d="M1775 600 c3 -5 12 -7 20 -3 21 7 19 13 -6 13 -11 0 -18 -4 -14 -10z"/>
<path d="M2075 602 c-14 -10 -17 -32 -5 -32 11 0 26 28 18 35 -2 2 -8 1 -13
-3z"/>
<path d="M2266 594 c-9 -9 -14 -19 -11 -22 3 -3 13 2 22 11 9 9 14 19 11 22
-3 3 -13 -2 -22 -11z"/>
<path d="M486 586 c21 -15 30 -14 19 3 -3 6 -14 11 -23 11 -13 0 -13 -2 4 -14z"/>
<path d="M1437 580 c3 -12 6 -19 7 -18 1 2 8 11 15 21 12 15 11 17 -7 17 -15
0 -19 -5 -15 -20z"/>
<path d="M1580 590 c0 -5 7 -7 15 -4 8 4 15 8 15 10 0 2 -7 4 -15 4 -8 0 -15
-4 -15 -10z"/>
<path d="M1042 544 c-12 -25 -26 -43 -31 -40 -10 6 -55 -63 -47 -71 2 -3 14
12 25 34 11 21 20 32 21 25 0 -21 -41 -96 -48 -86 -8 11 -58 44 -67 44 -16 0
-1 -21 20 -26 13 -3 29 -12 36 -20 18 -22 25 -17 55 44 60 120 85 152 59 77
-3 -11 1 -7 10 8 16 28 14 57 -3 57 -4 0 -18 -20 -30 -46z"/>
<path d="M2020 575 c7 -9 15 -13 17 -11 7 7 -7 26 -19 26 -6 0 -6 -6 2 -15z"/>
<path d="M225 569 c-4 -6 -5 -12 -2 -15 2 -3 7 2 10 11 7 17 1 20 -8 4z"/>
<path d="M1876 571 c-4 -6 -2 -11 4 -11 6 0 9 -3 7 -7 -3 -5 14 -6 38 -5 48 4
54 -4 60 -78 3 -32 1 -39 -5 -25 -8 18 -9 17 -9 -7 -1 -20 3 -26 14 -22 10 4
15 0 15 -15 0 -12 5 -21 11 -21 8 0 8 9 3 28 -5 15 -9 54 -9 86 0 64 -4 68
-80 70 -16 0 -33 5 -36 9 -4 5 -10 4 -13 -2z"/>
<path d="M2345 570 c3 -5 8 -10 11 -10 2 0 4 5 4 10 0 6 -5 10 -11 10 -5 0 -7
-4 -4 -10z"/>
<path d="M2408 571 c10 -6 12 -44 8 -172 -3 -90 -7 -184 -10 -209 -3 -25 -8
-67 -10 -95 -3 -27 -7 -60 -10 -73 -3 -15 -1 -22 6 -20 6 2 13 13 14 24 8 58
16 141 16 157 -1 9 3 17 8 17 5 0 11 -8 13 -17 3 -10 5 8 6 39 0 31 -3 60 -9
63 -5 3 -10 14 -10 23 0 15 2 15 10 2 9 -13 10 -13 10 0 0 9 -6 22 -12 29 -10
11 -10 13 0 7 16 -9 16 16 0 32 -9 9 -9 12 0 12 9 0 12 15 11 49 -2 28 -6 48
-10 45 -4 -2 -6 15 -4 38 4 40 -5 58 -30 58 -5 0 -4 -4 3 -9z m32 -331 c0 -11
-4 -20 -9 -20 -5 0 -7 9 -4 20 3 11 7 20 9 20 2 0 4 -9 4 -20z"/>
<path d="M163 555 c-19 -21 -16 -27 7 -13 11 7 20 16 20 20 0 12 -14 9 -27 -7z"/>
<path d="M300 559 c0 -5 5 -9 10 -9 6 0 10 -5 10 -11 0 -6 -7 -9 -15 -5 -8 3
-15 2 -15 -3 0 -5 9 -11 20 -14 11 -3 20 -1 20 3 0 5 3 15 6 23 3 9 -3 16 -15
20 -12 3 -21 1 -21 -4z"/>
<path d="M1068 480 c-27 -51 -41 -87 -32 -83 8 3 14 10 14 17 0 7 3 6 9 -2 7
-11 9 -10 14 3 4 9 3 13 -3 10 -6 -3 -10 1 -10 9 0 8 9 20 19 26 13 7 18 17
14 32 -4 18 -2 20 6 8 5 -8 13 -11 18 -7 4 5 1 12 -7 17 -11 7 -11 11 -1 24 7
8 11 20 9 25 -1 6 -24 -30 -50 -79z"/>
<path d="M1582 554 c-7 -8 -8 -14 -3 -14 10 0 25 19 20 25 -2 1 -10 -3 -17
-11z"/>
<path d="M6 545 c4 -8 11 -15 16 -15 6 0 5 6 -2 15 -7 8 -14 15 -16 15 -2 0
-1 -7 2 -15z"/>
<path d="M460 556 c0 -2 7 -6 15 -10 8 -3 15 -1 15 4 0 6 -7 10 -15 10 -8 0
-15 -2 -15 -4z"/>
<path d="M545 550 c3 -5 8 -10 11 -10 2 0 4 5 4 10 0 6 -5 10 -11 10 -5 0 -7
-4 -4 -10z"/>
<path d="M1661 544 c0 -11 3 -14 6 -6 3 7 2 16 -1 19 -3 4 -6 -2 -5 -13z"/>
<path d="M1791 549 c-14 -5 -32 -8 -40 -7 -17 4 -21 -1 -84 -95 -21 -32 -42
-57 -47 -57 -5 0 -11 -9 -15 -20 -3 -11 -19 -32 -35 -47 -16 -15 -27 -30 -24
-35 3 -4 -3 -8 -13 -9 -18 0 -86 -83 -76 -92 8 -9 53 35 46 46 -3 6 -1 7 5 3
6 -4 30 12 54 34 24 23 53 46 65 50 15 6 21 15 17 25 -4 10 0 15 12 15 21 1
60 47 49 58 -3 4 -14 -4 -24 -16 -21 -28 -34 -19 -19 13 6 14 16 21 24 18 10
-4 13 2 12 17 -2 13 3 25 12 28 13 5 13 3 0 -13 -13 -16 -13 -18 0 -13 8 2 16
14 18 26 2 13 8 20 14 16 8 -5 9 -1 5 10 -4 11 -2 16 6 14 17 -3 57 12 57 21
0 5 11 7 25 6 14 -2 25 1 25 6 0 12 -38 11 -69 -2z m-141 -169 c0 -5 -4 -10
-10 -10 -5 0 -10 5 -10 10 0 6 5 10 10 10 6 0 10 -4 10 -10z m-110 -120 c0 -5
-4 -10 -10 -10 -5 0 -10 5 -10 10 0 6 5 10 10 10 6 0 10 -4 10 -10z"/>
<path d="M2071 533 c-1 -17 3 -34 8 -37 12 -8 24 26 13 33 -5 3 -12 13 -15 21
-3 8 -6 1 -6 -17z"/>
<path d="M2115 550 c3 -5 10 -10 16 -10 5 0 9 5 9 10 0 6 -7 10 -16 10 -8 0
-12 -4 -9 -10z"/>
<path d="M2260 530 c0 -16 5 -30 10 -30 6 0 10 14 10 30 0 17 -4 30 -10 30 -5
0 -10 -13 -10 -30z"/>
<path d="M2157 530 c3 -11 0 -20 -6 -20 -6 0 -11 5 -11 12 0 6 -3 9 -6 5 -8
-8 34 -77 47 -77 5 0 9 5 9 10 0 6 -4 10 -10 10 -13 0 -13 47 0 55 13 8 3 25
-15 25 -8 0 -11 -7 -8 -20z"/>
<path d="M2353 534 c-19 -19 -16 -30 7 -30 21 0 25 12 12 32 -5 9 -10 8 -19
-2z"/>
<path d="M2762 525 c0 -16 2 -22 5 -12 2 9 2 23 0 30 -3 6 -5 -1 -5 -18z"/>
<path d="M1147 521 c-3 -12 -1 -19 4 -15 6 3 15 1 22 -4 7 -5 21 -6 32 -1 17
7 18 8 3 10 -10 1 -23 2 -28 3 -6 0 -14 7 -19 14 -6 10 -10 9 -14 -7z"/>
<path d="M1682 520 c0 -14 2 -19 5 -12 2 6 2 18 0 25 -3 6 -5 1 -5 -13z"/>
<path d="M180 519 c0 -5 5 -7 10 -4 6 3 10 8 10 11 0 2 -4 4 -10 4 -5 0 -10
-5 -10 -11z"/>
<path d="M1580 514 c0 -8 5 -12 10 -9 6 3 10 10 10 16 0 5 -4 9 -10 9 -5 0
-10 -7 -10 -16z"/>
<path d="M0 510 c0 -5 5 -10 11 -10 5 0 7 5 4 10 -3 6 -8 10 -11 10 -2 0 -4
-4 -4 -10z"/>
<path d="M120 510 c0 -5 5 -10 10 -10 6 0 10 5 10 10 0 6 -4 10 -10 10 -5 0
-10 -4 -10 -10z"/>
<path d="M245 510 c-3 -5 1 -10 9 -10 9 0 16 5 16 10 0 6 -4 10 -9 10 -6 0
-13 -4 -16 -10z"/>
<path d="M370 511 c0 -5 39 -16 86 -25 47 -10 92 -20 100 -23 8 -3 14 -1 14 4
0 6 -33 15 -72 22 -40 7 -85 17 -100 22 -16 4 -28 4 -28 0z"/>
<path d="M1477 513 c-10 -9 -9 -23 1 -23 5 0 9 7 9 15 0 17 -1 18 -10 8z"/>
<path d="M1814 500 c3 -14 9 -41 14 -60 8 -28 10 -30 10 -10 0 14 -6 41 -14
60 -9 24 -13 27 -10 10z"/>
<path d="M1899 511 c8 -5 10 -14 6 -21 -5 -9 -4 -11 3 -6 18 11 14 36 -5 36
-14 0 -15 -2 -4 -9z"/>
<path d="M1940 510 c0 -5 5 -10 10 -10 6 0 10 5 10 10 0 6 -4 10 -10 10 -5 0
-10 -4 -10 -10z"/>
<path d="M2734 485 c1 -19 4 -35 9 -35 9 0 9 42 -1 58 -5 8 -8 -1 -8 -23z"/>
<path d="M560 502 c0 -5 16 -9 35 -10 19 -1 35 2 35 6 0 4 -16 9 -35 10 -19 2
-35 -1 -35 -6z"/>
<path d="M917 503 c-4 -3 -7 -11 -7 -17 0 -6 5 -5 12 2 6 6 9 14 7 17 -3 3 -9
2 -12 -2z"/>
<path d="M307 493 c-11 -10 -8 -45 3 -38 5 3 6 13 3 21 -5 13 -1 15 17 9 15
-5 20 -4 16 4 -8 12 -29 15 -39 4z"/>
<path d="M1042 488 c-10 -13 -28 -67 -20 -58 9 8 39 70 34 70 -2 0 -8 -6 -14
-12z"/>
<path d="M1766 485 c4 -8 8 -15 10 -15 2 0 4 7 4 15 0 8 -4 15 -10 15 -5 0 -7
-7 -4 -15z"/>
<path d="M76 475 c4 -8 11 -15 16 -15 6 0 5 6 -2 15 -7 8 -14 15 -16 15 -2 0
-1 -7 2 -15z"/>
<path d="M238 465 c-10 -13 -13 -25 -8 -27 6 -2 6 -9 0 -18 -9 -13 -11 -13
-21 0 -9 13 -10 13 -6 0 7 -27 32 -16 42 18 7 25 14 32 28 28 15 -4 16 -2 6
10 -15 19 -21 18 -41 -11z"/>
<path d="M364 479 c-3 -5 6 -9 20 -9 31 0 34 6 6 13 -11 3 -23 1 -26 -4z"/>
<path d="M820 477 c0 -7 -11 -38 -26 -68 -81 -173 -104 -227 -104 -244 0 -8
-4 -15 -9 -15 -12 0 -21 -39 -11 -45 10 -6 32 20 23 28 -3 4 -1 7 6 7 8 0 10
7 6 20 -3 11 -2 20 3 20 6 0 16 22 23 50 7 27 16 47 21 44 4 -3 8 4 8 14 0 22
23 46 34 35 4 -4 4 0 0 10 -3 9 -2 17 4 17 6 0 9 8 7 18 -1 9 4 27 11 40 8 12
12 22 10 22 -3 0 -1 14 4 30 5 18 5 30 -1 30 -5 0 -9 -6 -9 -13z"/>
<path d="M945 480 c-3 -5 -1 -10 4 -10 6 0 11 5 11 10 0 6 -2 10 -4 10 -3 0
-8 -4 -11 -10z"/>
<path d="M1508 483 c7 -3 16 -2 19 1 4 3 -2 6 -13 5 -11 0 -14 -3 -6 -6z"/>
<path d="M53 464 c23 -28 21 -37 -4 -23 -16 8 -24 8 -33 -1 -8 -8 -7 -10 7 -4
13 4 16 2 11 -9 -3 -8 -1 -18 5 -22 7 -4 8 0 4 11 -5 13 -3 16 10 11 27 -10
31 13 6 37 -22 20 -22 20 -6 0z"/>
<path d="M135 470 c-3 -5 -1 -10 4 -10 6 0 11 5 11 10 0 6 -2 10 -4 10 -3 0
-8 -4 -11 -10z"/>
<path d="M585 471 c-3 -5 2 -11 10 -15 8 -3 17 -1 20 3 3 5 -2 11 -10 15 -8 3
-17 1 -20 -3z"/>
<path d="M1180 470 c0 -5 5 -10 11 -10 5 0 7 5 4 10 -3 6 -8 10 -11 10 -2 0
-4 -4 -4 -10z"/>
<path d="M1267 473 c-4 -3 -7 -11 -7 -17 0 -6 5 -5 12 2 6 6 9 14 7 17 -3 3
-9 2 -12 -2z"/>
<path d="M1940 450 c0 -16 4 -30 8 -30 5 0 7 14 4 30 -2 17 -6 30 -8 30 -2 0
-4 -13 -4 -30z"/>
<path d="M2087 473 c-10 -9 -8 -113 1 -113 5 0 8 27 8 60 0 33 -1 60 -2 60 0
0 -4 -3 -7 -7z"/>
<path d="M2226 473 c16 -3 21 -10 18 -26 -4 -18 -3 -19 4 -4 4 10 12 18 17 17
5 -1 11 2 12 7 2 4 -14 9 -35 9 -20 1 -27 0 -16 -3z"/>
<path d="M2354 472 c3 -5 0 -13 -6 -15 -10 -4 -9 -8 2 -16 12 -9 13 -14 3 -31
-18 -27 -16 -50 1 -27 11 14 15 15 19 5 2 -7 2 1 0 17 -3 17 -5 38 -5 47 1 10
-4 21 -10 24 -6 4 -8 2 -4 -4z"/>
<path d="M430 461 c13 -9 80 -24 95 -22 16 3 6 15 -15 17 -14 2 -41 6 -60 9
-25 5 -31 4 -20 -4z"/>
<path d="M1110 455 c-11 -13 -10 -14 4 -9 9 3 16 10 16 15 0 13 -6 11 -20 -6z"/>
<path d="M1210 444 c0 -14 4 -23 10 -19 6 3 10 15 10 26 0 10 -4 19 -10 19 -5
0 -10 -12 -10 -26z"/>
<path d="M1286 453 c-6 -14 -5 -15 5 -6 7 7 10 15 7 18 -3 3 -9 -2 -12 -12z"/>
<path d="M1463 463 c-37 -7 -26 -19 12 -15 19 2 35 8 35 13 0 9 -8 10 -47 2z"/>
<path d="M1525 460 c-4 -6 8 -10 29 -10 20 0 36 5 36 10 0 6 -13 10 -29 10
-17 0 -33 -4 -36 -10z"/>
<path d="M1613 463 c9 -2 25 -2 35 0 9 3 1 5 -18 5 -19 0 -27 -2 -17 -5z"/>
<path d="M1750 461 c0 -6 4 -13 10 -16 6 -3 7 1 4 9 -7 18 -14 21 -14 7z"/>
<path d="M2120 466 c0 -2 7 -7 16 -10 8 -3 12 -2 9 4 -6 10 -25 14 -25 6z"/>
<path d="M355 445 c17 -7 53 -16 80 -19 l50 -7 -37 14 c-20 8 -56 17 -80 20
-43 6 -43 6 -13 -8z"/>
<path d="M2030 453 c1 -18 18 -35 24 -24 4 6 4 16 1 21 -7 12 -25 13 -25 3z"/>
<path d="M118 442 c8 -5 10 -16 5 -28 -7 -18 -6 -18 12 -1 15 16 16 20 4 28
-8 5 -18 9 -24 9 -5 0 -4 -4 3 -8z"/>
<path d="M262 437 c0 -7 -3 -23 -6 -37 -4 -14 -3 -18 0 -10 4 8 11 23 15 32 5
9 5 19 1 22 -5 3 -9 0 -10 -7z"/>
<path d="M1301 423 c-10 -26 -10 -27 4 -9 8 11 15 23 15 28 0 15 -7 8 -19 -19z"/>
<path d="M315 430 c-3 -5 -1 -10 4 -10 6 0 11 5 11 10 0 6 -2 10 -4 10 -3 0
-8 -4 -11 -10z"/>
<path d="M570 436 c0 -2 9 -6 20 -9 11 -3 20 -1 20 4 0 5 -9 9 -20 9 -11 0
-20 -2 -20 -4z"/>
<path d="M1211 362 l-39 -78 29 -16 c16 -10 29 -13 29 -8 0 6 -4 10 -10 10
-14 0 -12 13 6 36 14 18 15 18 8 -6 -7 -29 -2 -26 16 9 8 15 8 21 1 17 -6 -4
-11 -1 -11 8 0 19 17 30 23 14 2 -7 4 1 4 17 0 17 3 39 7 50 4 11 -11 -15 -34
-59 -44 -84 -67 -99 -29 -19 44 92 49 103 44 103 -3 0 -22 -35 -44 -78z"/>
<path d="M1484 429 c-7 -11 27 -11 45 0 9 6 5 9 -13 9 -15 0 -29 -4 -32 -9z"/>
<path d="M1583 433 c9 -2 25 -2 35 0 9 3 1 5 -18 5 -19 0 -27 -2 -17 -5z"/>
<path d="M1725 430 c3 -5 10 -10 16 -10 5 0 9 5 9 10 0 6 -7 10 -16 10 -8 0
-12 -4 -9 -10z"/>
<path d="M2735 430 c3 -5 8 -10 11 -10 2 0 4 5 4 10 0 6 -5 10 -11 10 -5 0 -7
-4 -4 -10z"/>
<path d="M340 419 c0 -5 5 -7 10 -4 6 3 10 8 10 11 0 2 -4 4 -10 4 -5 0 -10
-5 -10 -11z"/>
<path d="M1106 415 c4 -8 11 -15 16 -15 6 0 5 6 -2 15 -7 8 -14 15 -16 15 -2
0 -1 -7 2 -15z"/>
<path d="M1147 423 c-4 -3 -7 -11 -7 -17 0 -6 5 -5 12 2 6 6 9 14 7 17 -3 3
-9 2 -12 -2z"/>
<path d="M1375 420 c-3 -5 1 -10 10 -10 9 0 13 5 10 10 -3 6 -8 10 -10 10 -2
0 -7 -4 -10 -10z"/>
<path d="M1416 422 c-3 -5 8 -6 25 -4 16 2 29 6 29 8 0 8 -49 4 -54 -4z"/>
<path d="M2125 420 c3 -5 10 -10 16 -10 5 0 9 5 9 10 0 6 -7 10 -16 10 -8 0
-12 -4 -9 -10z"/>
<path d="M2261 415 c-2 -11 -5 -15 -8 -7 -2 6 -8 12 -13 12 -9 0 -4 -236 6
-251 3 -5 2 -15 -2 -21 -11 -18 -12 -48 -2 -54 4 -3 8 -24 8 -47 0 -36 3 -43
20 -43 11 0 20 6 20 13 0 7 -7 13 -14 13 -12 0 -15 25 -18 136 -2 74 1 143 6
152 6 10 5 17 -2 20 -15 5 -16 29 -1 34 6 2 9 17 6 33 -2 19 -5 23 -6 10z"/>
<path d="M500 410 c19 -13 30 -13 30 0 0 6 -10 10 -22 10 -19 0 -20 -2 -8 -10z"/>
<path d="M540 409 c0 -5 11 -9 25 -9 14 0 25 2 25 4 0 2 -11 6 -25 8 -14 3
-25 1 -25 -3z"/>
<path d="M880 412 c0 -4 16 -16 35 -26 36 -20 42 -30 25 -41 -5 -3 -10 0 -10
7 0 7 -7 2 -16 -10 -15 -21 -14 -24 8 -42 25 -21 38 -25 38 -11 0 5 -9 13 -20
16 -11 3 -20 12 -20 20 0 8 37 -7 101 -41 55 -30 103 -54 105 -54 13 0 1 17
-19 26 -27 13 -151 76 -156 80 -1 2 0 8 4 14 4 7 10 8 14 4 3 -5 45 -29 93
-54 88 -45 95 -53 79 -79 -8 -12 -18 -10 -62 12 -28 15 -54 25 -57 22 -7 -7
-9 -5 77 -49 40 -20 75 -35 78 -32 2 2 -5 7 -16 11 -12 3 -21 10 -21 14 0 18
15 19 44 4 17 -9 37 -17 44 -17 7 -1 17 -8 22 -16 5 -8 12 -11 16 -7 4 4 -2
15 -15 23 -12 9 -20 22 -17 29 5 13 -42 40 -52 30 -4 -3 4 -8 16 -12 12 -3 22
-12 22 -20 0 -8 -6 -12 -12 -9 -7 3 -21 9 -31 12 -11 4 -16 13 -13 21 3 8 0
20 -7 26 -11 11 -83 51 -154 85 -18 9 -33 20 -33 25 0 4 -4 5 -10 2 -5 -3 -10
-1 -10 5 0 6 -4 8 -10 5 -5 -3 -10 -2 -10 3 0 5 -11 14 -25 20 -14 6 -25 8
-25 4z"/>
<path d="M2170 401 c0 -10 -6 -24 -14 -30 -12 -10 -10 -15 7 -36 12 -13 25
-21 29 -19 5 3 1 12 -7 20 -17 18 -20 40 -5 49 6 3 10 13 10 21 0 8 -4 14 -10
14 -5 0 -10 -8 -10 -19z"/>
<path d="M150 410 c-10 -47 -7 -61 13 -71 22 -10 22 -10 2 6 -16 13 -17 17 -6
24 10 7 11 13 2 27 -6 11 -11 17 -11 14z"/>
<path d="M389 393 c-13 -16 -12 -17 4 -4 16 13 21 21 13 21 -2 0 -10 -8 -17
-17z"/>
<path d="M1181 401 c-8 -5 -10 -14 -6 -21 4 -7 2 -16 -5 -20 -8 -5 -9 -10 -2
-14 8 -5 42 44 42 61 0 6 -15 3 -29 -6z"/>
<path d="M1337 396 c-4 -11 -5 -21 -2 -24 3 -3 5 -1 5 4 0 5 15 9 33 8 17 0
43 3 57 7 17 5 8 6 -27 5 -30 -2 -54 2 -56 8 -2 5 -7 2 -10 -8z"/>
<path d="M1461 405 c8 -7 108 -9 116 -2 3 4 -22 7 -57 7 -35 0 -61 -2 -59 -5z"/>
<path d="M55 390 c-3 -5 -1 -10 4 -10 6 0 11 5 11 10 0 6 -2 10 -4 10 -3 0 -8
-4 -11 -10z"/>
<path d="M305 390 c-3 -5 -1 -10 4 -10 6 0 11 5 11 10 0 6 -2 10 -4 10 -3 0
-8 -4 -11 -10z"/>
<path d="M487 380 c3 -11 9 -17 15 -14 5 3 4 12 -3 20 -16 19 -18 18 -12 -6z"/>
<path d="M1800 392 c-5 -2 -10 -8 -10 -13 0 -6 5 -7 10 -4 6 4 38 6 71 6 33 0
70 4 82 9 15 6 -5 8 -60 7 -46 -1 -87 -3 -93 -5z"/>
<path d="M200 386 c0 -2 7 -9 15 -16 9 -7 15 -8 15 -2 0 5 -7 12 -15 16 -8 3
-15 4 -15 2z"/>
<path d="M276 374 c-4 -10 -9 -30 -11 -44 -3 -20 -1 -19 11 9 8 18 13 38 11
44 -2 6 -7 2 -11 -9z"/>
<path d="M546 350 c-20 -49 -20 -61 -2 -35 13 20 30 75 22 75 -2 0 -11 -18
-20 -40z"/>
<path d="M1295 358 l-16 -33 20 25 c20 24 26 40 16 40 -2 0 -12 -15 -20 -32z"/>
<path d="M2296 368 c-9 -36 -7 -48 8 -48 9 0 13 10 12 30 -3 38 -12 47 -20 18z"/>
<path d="M2741 374 c0 -11 3 -14 6 -6 3 7 2 16 -1 19 -3 4 -6 -2 -5 -13z"/>
<path d="M112 367 c-8 -9 -3 -19 20 -37 31 -25 78 -35 78 -17 0 5 -9 7 -21 4
-24 -7 -72 30 -65 50 7 17 1 17 -12 0z"/>
<path d="M870 371 c0 -11 31 -24 39 -16 3 3 -1 10 -9 15 -19 12 -30 12 -30 1z"/>
<path d="M1010 370 c0 -5 5 -10 11 -10 6 0 38 -16 71 -35 33 -20 63 -33 66
-30 7 7 8 6 -71 48 -76 41 -77 41 -77 27z"/>
<path d="M1080 365 c7 -8 20 -15 28 -15 13 0 12 3 -4 15 -25 19 -40 19 -24 0z"/>
<path d="M1473 373 c9 -2 25 -2 35 0 9 3 1 5 -18 5 -19 0 -27 -2 -17 -5z"/>
<path d="M1715 370 c-18 -8 -18 -9 5 -9 14 0 32 4 40 9 12 8 12 10 -5 9 -11 0
-29 -4 -40 -9z"/>
<path d="M2492 360 c0 -14 2 -19 5 -12 2 6 2 18 0 25 -3 6 -5 1 -5 -13z"/>
<path d="M29 353 c-13 -16 -12 -17 4 -4 9 7 17 15 17 17 0 8 -8 3 -21 -13z"/>
<path d="M1350 360 c-12 -8 -10 -10 8 -10 13 0 20 4 17 10 -7 12 -6 12 -25 0z"/>
<path d="M1398 363 c7 -3 16 -2 19 1 4 3 -2 6 -13 5 -11 0 -14 -3 -6 -6z"/>
<path d="M1830 363 c0 -5 40 -6 90 -5 49 2 90 0 90 -5 0 -5 -37 -10 -82 -11
-90 -3 -143 -11 -134 -20 10 -9 46 -10 40 0 -3 4 46 8 108 7 87 0 107 -3 88
-11 -14 -5 -54 -7 -90 -5 -57 5 -60 4 -25 -4 22 -6 65 -9 96 -7 52 3 55 1 51
-17 -5 -18 -4 -18 11 -6 15 12 17 12 11 -3 -5 -14 -23 -21 -46 -17 -5 0 -8 -4
-8 -10 0 -7 11 -9 26 -6 19 3 27 0 33 -16 9 -25 2 -69 -10 -61 -5 3 -9 0 -9
-5 0 -6 6 -11 13 -11 8 0 13 -11 12 -27 -1 -16 3 -33 8 -40 4 -6 7 -17 6 -25
-4 -33 2 -58 15 -58 11 0 12 8 5 38 -5 20 -9 71 -9 112 -1 102 -13 148 -47
176 -15 13 -34 23 -40 24 -7 0 -13 5 -13 10 0 6 -38 10 -95 10 -52 0 -95 -3
-95 -7z"/>
<path d="M55 350 c-3 -5 -1 -10 4 -10 6 0 11 5 11 10 0 6 -2 10 -4 10 -3 0 -8
-4 -11 -10z"/>
<path d="M200 351 c0 -5 5 -13 10 -16 6 -3 10 -2 10 4 0 5 -4 13 -10 16 -5 3
-10 2 -10 -4z"/>
<path d="M1459 340 c-14 -9 -20 -10 -15 -2 4 6 3 12 -2 12 -6 0 -12 -7 -16
-15 -3 -8 -10 -15 -16 -15 -6 0 -8 5 -5 10 14 23 -14 8 -30 -17 -13 -19 -14
-25 -4 -21 8 3 39 13 69 23 61 19 99 45 63 42 -11 0 -31 -8 -44 -17z"/>
<path d="M1558 353 c7 -3 16 -2 19 1 4 3 -2 6 -13 5 -11 0 -14 -3 -6 -6z"/>
<path d="M318 345 c-3 -6 -8 -28 -11 -50 l-7 -40 15 39 c14 37 16 73 3 51z"/>
<path d="M375 340 c-3 -5 -1 -10 4 -10 6 0 11 5 11 10 0 6 -2 10 -4 10 -3 0
-8 -4 -11 -10z"/>
<path d="M480 340 c0 -5 5 -10 11 -10 5 0 7 5 4 10 -3 6 -8 10 -11 10 -2 0 -4
-4 -4 -10z"/>
<path d="M870 341 c0 -5 5 -13 10 -16 6 -3 10 -2 10 4 0 5 -4 13 -10 16 -5 3
-10 2 -10 -4z"/>
<path d="M1140 340 c0 -5 5 -10 11 -10 5 0 7 5 4 10 -3 6 -8 10 -11 10 -2 0
-4 -4 -4 -10z"/>
<path d="M1713 343 c-13 -2 -23 -8 -23 -13 0 -5 15 -4 33 2 52 18 47 22 -10
11z"/>
<path d="M2347 337 c-6 -17 3 -66 14 -73 5 -3 7 13 5 36 -4 45 -11 58 -19 37z"/>
<path d="M1317 310 c-22 -26 -22 -28 6 -23 14 3 23 12 23 24 0 24 -7 24 -29
-1z"/>
<path d="M50 310 c-9 -6 -10 -10 -3 -10 6 0 15 5 18 10 8 12 4 12 -15 0z"/>
<path d="M845 310 c-4 -6 -3 -10 1 -10 3 0 -1 -11 -10 -24 -10 -15 -12 -27 -6
-31 6 -3 10 1 10 9 0 9 9 25 19 35 16 16 17 21 6 25 -8 3 -17 1 -20 -4z"/>
<path d="M1266 305 c-9 -26 -7 -32 5 -12 6 10 9 21 6 23 -2 3 -7 -2 -11 -11z"/>
<path d="M1710 310 c-35 -7 -35 -7 -5 -9 17 0 37 4 45 9 17 11 11 11 -40 0z"/>
<path d="M470 294 c0 -8 5 -12 10 -9 6 4 8 11 5 16 -9 14 -15 11 -15 -7z"/>
<path d="M1610 300 c0 -5 5 -10 11 -10 5 0 7 5 4 10 -3 6 -8 10 -11 10 -2 0
-4 -4 -4 -10z"/>
<path d="M70 285 c0 -8 4 -15 10 -15 5 0 7 7 4 15 -4 8 -8 15 -10 15 -2 0 -4
-7 -4 -15z"/>
<path d="M330 285 c-7 -9 -11 -17 -9 -20 3 -2 10 5 17 15 14 24 10 26 -8 5z"/>
<path d="M410 296 c0 -2 7 -7 16 -10 8 -3 12 -2 9 4 -6 10 -25 14 -25 6z"/>
<path d="M867 255 c-14 -25 -22 -45 -18 -45 4 0 17 20 29 45 12 25 20 45 18
45 -2 0 -16 -20 -29 -45z"/>
<path d="M1425 290 c-13 -6 -15 -9 -5 -9 8 0 22 4 30 9 18 12 2 12 -25 0z"/>
<path d="M1750 289 c0 -5 5 -7 10 -4 6 3 10 8 10 11 0 2 -4 4 -10 4 -5 0 -10
-5 -10 -11z"/>
<path d="M2136 285 c4 -8 10 -15 15 -15 5 0 9 7 9 15 0 8 -7 15 -15 15 -9 0
-12 -6 -9 -15z"/>
<path d="M2292 270 c3 -16 2 -30 -2 -30 -8 0 -5 -119 4 -127 3 -3 6 7 6 23 0
16 3 59 7 97 4 50 3 67 -7 67 -8 0 -11 -10 -8 -30z"/>
<path d="M200 270 c13 -11 25 -20 27 -20 2 0 -2 9 -9 20 -7 11 -19 20 -27 20
-9 0 -6 -7 9 -20z"/>
<path d="M872 210 c-23 -44 -38 -80 -33 -80 9 0 86 148 80 155 -3 2 -24 -32
-47 -75z"/>
<path d="M970 281 c0 -10 30 -24 37 -17 3 2 -5 9 -16 16 -12 6 -21 7 -21 1z"/>
<path d="M2181 281 c-8 -5 -14 -26 -14 -51 0 -23 -3 -36 -7 -30 -5 9 -9 9 -14
1 -4 -6 -6 -11 -4 -11 2 0 18 -4 36 -9 20 -6 32 -6 32 0 0 5 -7 9 -15 9 -17 0
-20 36 -5 74 11 29 11 29 -9 17z"/>
<path d="M2753 168 c0 -69 3 -132 8 -140 10 -15 10 83 -1 192 -6 68 -7 64 -7
-52z"/>
<path d="M46 263 c-6 -14 -5 -15 5 -6 7 7 10 15 7 18 -3 3 -9 -2 -12 -12z"/>
<path d="M1620 269 c0 -7 16 -8 48 -3 64 9 66 14 4 14 -30 0 -52 -4 -52 -11z"/>
<path d="M1778 273 c7 -3 16 -2 19 1 4 3 -2 6 -13 5 -11 0 -14 -3 -6 -6z"/>
<path d="M1820 271 c0 -6 4 -13 10 -16 6 -3 7 1 4 9 -7 18 -14 21 -14 7z"/>
<path d="M1925 270 c3 -5 8 -10 11 -10 2 0 4 5 4 10 0 6 -5 10 -11 10 -5 0 -7
-4 -4 -10z"/>
<path d="M2391 264 c0 -11 3 -14 6 -6 3 7 2 16 -1 19 -3 4 -6 -2 -5 -13z"/>
<path d="M2780 240 c0 -22 3 -40 8 -40 4 0 6 18 4 40 -2 22 -6 40 -8 40 -2 0
-4 -18 -4 -40z"/>
<path d="M1286 259 c5 -8 -1 -10 -20 -7 -14 3 -26 2 -26 -2 0 -12 39 -19 46
-9 3 5 10 7 15 4 5 -3 6 1 3 9 -3 9 -10 16 -16 16 -5 0 -6 -5 -2 -11z"/>
<path d="M1975 259 c-5 -7 -4 -14 3 -17 7 -2 12 -12 12 -23 0 -10 5 -19 10
-19 14 0 12 20 -4 49 -10 18 -15 20 -21 10z"/>
<path d="M2330 228 c0 -24 4 -49 9 -57 11 -17 3 -43 -10 -35 -5 3 -9 2 -7 -3
1 -4 -2 -23 -6 -41 -5 -21 -4 -38 4 -47 7 -8 10 -22 6 -30 -3 -8 -1 -15 4 -15
6 0 10 8 10 18 0 9 3 27 6 40 4 12 2 22 -4 22 -6 0 -13 -8 -15 -17 -4 -14 -5
-13 -6 4 0 12 6 29 15 38 9 8 18 37 20 63 3 36 2 43 -7 32 -8 -11 -9 -5 -6 28
3 23 1 42 -4 42 -5 0 -9 -19 -9 -42z"/>
<path d="M2503 192 c0 -45 4 -77 8 -70 3 7 3 45 -1 83 l-8 70 1 -83z"/>
<path d="M925 249 c-4 -6 -5 -12 -2 -15 2 -3 7 2 10 11 7 17 1 20 -8 4z"/>
<path d="M940 228 c-7 -18 -15 -37 -17 -43 -3 -5 5 5 17 22 12 18 26 30 31 27
5 -3 6 2 3 10 -9 24 -18 19 -34 -16z"/>
<path d="M1753 246 c-24 -11 -31 -40 -12 -52 7 -4 9 0 5 14 -5 13 -1 22 10 26
21 8 37 -2 30 -20 -3 -8 1 -14 9 -14 8 0 15 -4 15 -10 0 -5 4 -10 10 -10 9 0
-26 67 -39 73 -3 2 -16 -1 -28 -7z"/>
<path d="M1882 240 c7 -11 17 -20 22 -20 5 0 1 9 -9 20 -10 11 -20 20 -22 20
-2 0 2 -9 9 -20z"/>
<path d="M270 240 c18 -12 30 -13 30 -2 0 4 -10 9 -22 9 -18 2 -20 0 -8 -7z"/>
<path d="M355 240 c3 -5 8 -10 11 -10 2 0 4 5 4 10 0 6 -5 10 -11 10 -5 0 -7
-4 -4 -10z"/>
<path d="M1326 219 c-9 -18 -14 -34 -12 -37 3 -2 12 10 21 28 9 18 14 34 12
37 -3 2 -12 -10 -21 -28z"/>
<path d="M155 230 c-3 -5 -1 -10 4 -10 6 0 11 5 11 10 0 6 -2 10 -4 10 -3 0
-8 -4 -11 -10z"/>
<path d="M1580 235 c0 -5 5 -17 10 -25 5 -8 10 -10 10 -5 0 6 -5 17 -10 25 -5
8 -10 11 -10 5z"/>
<path d="M1630 229 c0 -5 -5 -7 -12 -3 -8 5 -9 2 -5 -10 4 -10 7 -20 7 -22 0
-2 4 -4 10 -4 5 0 7 7 4 15 -4 9 2 18 17 24 l24 10 -22 0 c-13 1 -23 -4 -23
-10z"/>
<path d="M15 220 c3 -5 10 -10 16 -10 5 0 9 5 9 10 0 6 -7 10 -16 10 -8 0 -12
-4 -9 -10z"/>
<path d="M337 216 c18 -8 54 -17 80 -20 l48 -5 -55 15 c-30 8 -66 18 -80 20
-20 4 -19 2 7 -10z"/>
<path d="M806 215 c-9 -26 -7 -32 5 -12 6 10 9 21 6 23 -2 3 -7 -2 -11 -11z"/>
<path d="M2195 220 c-3 -5 -1 -10 4 -10 6 0 11 5 11 10 0 6 -2 10 -4 10 -3 0
-8 -4 -11 -10z"/>
<path d="M266 206 c10 -8 21 -12 24 -10 5 6 -21 24 -34 24 -6 0 -1 -6 10 -14z"/>
<path d="M476 194 c-7 -26 -9 -26 -64 -21 -44 5 -51 4 -32 -4 14 -6 37 -11 53
-11 31 -1 33 -5 11 -37 -16 -22 -15 -22 3 -10 19 11 57 109 42 109 -4 0 -10
-12 -13 -26z"/>
<path d="M900 209 c0 -5 5 -7 10 -4 6 3 10 8 10 11 0 2 -4 4 -10 4 -5 0 -10
-5 -10 -11z"/>
<path d="M1000 213 c8 -3 19 -11 23 -17 6 -7 7 -6 4 4 -2 8 -12 16 -23 17 -13
2 -15 1 -4 -4z"/>
<path d="M1270 200 c0 -5 5 -10 10 -10 6 0 10 5 10 10 0 6 -4 10 -10 10 -5 0
-10 -4 -10 -10z"/>
<path d="M80 191 c0 -6 4 -13 10 -16 6 -3 7 1 4 9 -7 18 -14 21 -14 7z"/>
<path d="M180 189 c0 -5 5 -7 10 -4 6 3 10 8 10 11 0 2 -4 4 -10 4 -5 0 -10
-5 -10 -11z"/>
<path d="M215 190 c3 -5 16 -10 28 -9 21 0 21 1 2 9 -28 12 -37 12 -30 0z"/>
<path d="M315 190 c27 -12 43 -12 25 0 -8 5 -22 9 -30 9 -10 0 -8 -3 5 -9z"/>
<path d="M831 193 c-1 -6 -4 -20 -7 -30 -5 -17 -5 -17 6 0 6 10 9 23 6 30 -3
9 -5 9 -5 0z"/>
<path d="M948 195 c-3 -6 0 -15 7 -22 10 -10 14 -9 19 3 3 8 2 13 -3 9 -5 -3
-11 0 -13 7 -3 7 -7 8 -10 3z"/>
<path d="M1865 183 c3 -8 5 -19 5 -24 0 -5 7 -9 16 -9 13 0 14 3 4 15 -6 8 -9
18 -6 23 3 5 -2 9 -10 9 -9 0 -13 -6 -9 -14z"/>
<path d="M1910 190 c0 -5 5 -10 10 -10 6 0 10 5 10 10 0 6 -4 10 -10 10 -5 0
-10 -4 -10 -10z"/>
<path d="M995 180 c-3 -5 1 -10 10 -10 9 0 13 5 10 10 -3 6 -8 10 -10 10 -2 0
-7 -4 -10 -10z"/>
<path d="M1654 176 c-8 -9 -9 -18 -2 -31 8 -14 12 -15 19 -4 8 12 10 12 18 0
7 -10 9 -7 8 12 -2 24 -3 25 -21 9 -18 -16 -18 -16 -12 6 8 25 6 27 -10 8z"/>
<path d="M290 170 c0 -5 5 -10 10 -10 6 0 10 5 10 10 0 6 -4 10 -10 10 -5 0
-10 -4 -10 -10z"/>
<path d="M752 163 c0 -10 -1 -24 -3 -32 -2 -7 2 -16 9 -18 8 -3 12 7 12 31 0
20 -4 36 -9 36 -6 0 -9 -8 -9 -17z"/>
<path d="M780 164 c0 -8 5 -12 10 -9 6 3 10 10 10 16 0 5 -4 9 -10 9 -5 0 -10
-7 -10 -16z"/>
<path d="M1391 170 c0 -8 -36 -47 -78 -87 -54 -51 -72 -73 -59 -73 11 0 49 29
84 65 36 36 66 65 68 65 9 0 54 -97 54 -116 0 -19 5 -24 25 -24 14 0 25 5 25
10 0 6 -6 10 -14 10 -9 0 -12 7 -9 21 4 14 0 25 -10 31 -10 5 -14 15 -10 25 5
12 3 14 -7 8 -8 -5 -11 -4 -7 2 4 6 2 25 -5 43 -10 29 -12 31 -23 17 -16 -22
-22 -21 -28 1 -3 12 -5 13 -6 2z"/>
<path d="M1973 173 c9 -2 25 -2 35 0 9 3 1 5 -18 5 -19 0 -27 -2 -17 -5z"/>
<path d="M2030 172 c0 -5 12 -19 27 -33 l27 -24 -23 33 c-23 32 -31 39 -31 24z"/>
<path d="M2790 125 c0 -32 3 -55 7 -52 7 8 5 98 -2 105 -3 3 -5 -21 -5 -53z"/>
<path d="M137 159 c7 -7 15 -10 18 -7 3 3 -2 9 -12 12 -14 6 -15 5 -6 -5z"/>
<path d="M904 158 c-4 -7 -3 -8 4 -4 7 4 12 2 12 -3 0 -6 5 -11 10 -11 15 0
12 17 -5 23 -8 4 -17 1 -21 -5z"/>
<path d="M1043 163 c12 -3 16 -10 12 -24 -4 -10 -2 -19 3 -19 5 0 12 9 15 19
5 19 -11 32 -36 30 -7 -1 -4 -3 6 -6z"/>
<path d="M1111 120 c-30 -49 -44 -84 -18 -45 30 45 58 95 54 95 -3 0 -19 -23
-36 -50z"/>
<path d="M1210 159 c0 -5 5 -7 10 -4 6 3 10 8 10 11 0 2 -4 4 -10 4 -5 0 -10
-5 -10 -11z"/>
<path d="M1580 161 c0 -5 -3 -18 -6 -28 -5 -16 -4 -16 10 1 18 23 20 36 6 36
-5 0 -10 -4 -10 -9z"/>
<path d="M1815 160 c-4 -6 2 -10 12 -10 12 -1 9 -5 -12 -16 -16 -8 -22 -12
-12 -9 10 3 25 5 33 5 8 0 14 6 14 14 0 17 -27 29 -35 16z"/>
<path d="M349 145 c18 -8 47 -15 65 -14 27 1 24 3 -19 15 -65 18 -89 17 -46
-1z"/>
<path d="M1350 150 c0 -5 5 -10 10 -10 6 0 10 5 10 10 0 6 -4 10 -10 10 -5 0
-10 -4 -10 -10z"/>
<path d="M1940 150 c0 -5 5 -10 10 -10 6 0 10 5 10 10 0 6 -4 10 -10 10 -5 0
-10 -4 -10 -10z"/>
<path d="M2157 141 c19 -16 21 -23 13 -52 -10 -33 1 -62 17 -44 5 4 3 10 -3
12 -14 5 -6 49 12 64 17 14 18 29 3 29 -5 0 -7 -4 -4 -10 3 -5 2 -10 -3 -10
-6 0 -12 7 -16 15 -3 8 -13 15 -23 15 -16 -1 -15 -3 4 -19z"/>
<path d="M270 140 c8 -5 20 -10 25 -10 6 0 3 5 -5 10 -8 5 -19 10 -25 10 -5 0
-3 -5 5 -10z"/>
<path d="M1175 140 c-3 -5 -1 -10 4 -10 6 0 11 5 11 10 0 6 -2 10 -4 10 -3 0
-8 -4 -11 -10z"/>
<path d="M1719 130 c-13 -10 -19 -19 -13 -20 6 0 17 6 24 14 6 8 21 17 33 19
l22 4 -21 2 c-12 0 -32 -8 -45 -19z"/>
<path d="M2015 140 c3 -5 11 -10 16 -10 6 0 7 5 4 10 -3 6 -11 10 -16 10 -6 0
-7 -4 -4 -10z"/>
<path d="M125 130 c-3 -6 1 -7 9 -4 18 7 21 14 7 14 -6 0 -13 -4 -16 -10z"/>
<path d="M887 125 c-4 -8 -3 -16 1 -19 4 -3 9 4 9 15 2 23 -3 25 -10 4z"/>
<path d="M1960 130 c0 -5 7 -10 16 -10 8 0 12 5 9 10 -3 6 -10 10 -16 10 -5 0
-9 -4 -9 -10z"/>
<path d="M2381 124 c0 -11 3 -14 6 -6 3 7 2 16 -1 19 -3 4 -6 -2 -5 -13z"/>
<path d="M204 106 c1 -20 26 -36 26 -16 0 6 -4 9 -9 5 -5 -3 -11 3 -14 12 -3
15 -4 15 -3 -1z"/>
<path d="M325 120 c3 -5 13 -10 21 -10 8 0 12 5 9 10 -3 6 -13 10 -21 10 -8 0
-12 -4 -9 -10z"/>
<path d="M1605 119 c-4 -6 -5 -12 -2 -15 2 -3 7 2 10 11 7 17 1 20 -8 4z"/>
<path d="M1896 122 c-3 -5 8 -6 25 -4 16 2 29 6 29 8 0 8 -49 4 -54 -4z"/>
<path d="M90 101 c5 -11 15 -23 21 -27 6 -3 3 5 -6 20 -20 30 -30 35 -15 7z"/>
<path d="M256 112 c-3 -5 1 -9 9 -9 8 0 12 4 9 9 -3 4 -7 8 -9 8 -2 0 -6 -4
-9 -8z"/>
<path d="M1160 110 c0 -5 5 -10 10 -10 6 0 10 5 10 10 0 6 -4 10 -10 10 -5 0
-10 -4 -10 -10z"/>
<path d="M1310 105 c0 -8 2 -15 4 -15 2 0 6 7 10 15 3 8 1 15 -4 15 -6 0 -10
-7 -10 -15z"/>
<path d="M1672 104 c-10 -11 -10 -18 -2 -32 9 -14 11 -14 7 -1 -3 9 0 22 6 28
6 6 9 13 6 15 -2 2 -10 -2 -17 -10z"/>
<path d="M1750 110 c-8 -5 -10 -10 -5 -10 6 0 17 5 25 10 8 5 11 10 5 10 -5 0
-17 -5 -25 -10z"/>
<path d="M1825 111 c-16 -4 -43 -15 -60 -25 -16 -9 -21 -14 -10 -10 11 3 34
11 50 17 74 25 83 33 20 18z"/>
<path d="M301 103 c-1 -6 -4 -20 -7 -30 -5 -17 -5 -17 6 0 6 10 9 23 6 30 -3
9 -5 9 -5 0z"/>
<path d="M388 103 c6 -2 18 -2 25 0 6 3 1 5 -13 5 -14 0 -19 -2 -12 -5z"/>
<path d="M710 64 c-7 -24 -17 -44 -22 -44 -5 0 -6 -5 -3 -10 9 -15 25 -2 25
20 0 28 23 30 55 4 17 -13 41 -24 55 -24 20 0 17 4 -20 21 -48 21 -61 35 -54
54 3 7 -1 15 -9 18 -11 4 -18 -7 -27 -39z"/>
<path d="M786 102 c-6 -9 50 -35 65 -30 6 2 -5 11 -25 20 -19 10 -37 14 -40
10z"/>
<path d="M1925 100 c-3 -5 1 -10 9 -10 8 0 18 5 21 10 3 6 -1 10 -9 10 -8 0
-18 -4 -21 -10z"/>
<path d="M1970 100 c0 -5 10 -10 23 -10 18 0 19 2 7 10 -19 13 -30 13 -30 0z"/>
<path d="M1016 85 c-3 -8 -1 -15 3 -15 5 0 11 7 15 15 3 8 1 15 -3 15 -5 0
-11 -7 -15 -15z"/>
<path d="M1700 90 c-8 -5 -10 -10 -5 -10 6 0 17 5 25 10 8 5 11 10 5 10 -5 0
-17 -5 -25 -10z"/>
<path d="M1860 90 c-12 -8 -11 -10 8 -10 12 0 22 5 22 10 0 13 -11 13 -30 0z"/>
<path d="M70 80 c0 -5 5 -10 11 -10 5 0 7 5 4 10 -3 6 -8 10 -11 10 -2 0 -4
-4 -4 -10z"/>
<path d="M1050 70 c-6 -11 -8 -20 -6 -20 3 0 10 9 16 20 6 11 8 20 6 20 -3 0
-10 -9 -16 -20z"/>
<path d="M1530 82 c0 -6 -8 -13 -17 -15 -16 -4 -16 -5 -1 -6 18 -1 34 16 24
26 -3 4 -6 1 -6 -5z"/>
<path d="M1600 78 c6 -7 17 -22 25 -33 13 -19 14 -19 8 5 -6 24 -20 40 -36 40
-4 0 -3 -6 3 -12z"/>
<path d="M2201 74 c0 -11 3 -14 6 -6 3 7 2 16 -1 19 -3 4 -6 -2 -5 -13z"/>
<path d="M2276 74 c-8 -21 -8 -24 3 -24 12 0 22 28 12 35 -5 3 -12 -2 -15 -11z"/>
<path d="M143 73 c-15 -5 -17 -23 -4 -23 5 0 11 7 15 15 3 8 4 15 3 14 -1 0
-8 -3 -14 -6z"/>
<path d="M432 60 c0 -14 2 -19 5 -12 2 6 2 18 0 25 -3 6 -5 1 -5 -13z"/>
<path d="M641 64 c0 -11 3 -14 6 -6 3 7 2 16 -1 19 -3 4 -6 -2 -5 -13z"/>
<path d="M760 75 c0 -7 72 -41 103 -49 18 -4 26 -3 22 3 -3 6 -21 13 -40 17
-19 3 -35 10 -35 16 0 5 -4 6 -10 3 -5 -3 -10 -1 -10 4 0 6 -7 11 -15 11 -8 0
-15 -2 -15 -5z"/>
<path d="M1768 59 c-21 -11 -38 -21 -38 -24 0 -4 91 34 99 41 13 12 -30 0 -61
-17z"/>
<path d="M1942 55 c6 -14 13 -24 14 -22 6 6 -9 47 -17 47 -5 0 -3 -11 3 -25z"/>
<path d="M2511 64 c0 -11 3 -14 6 -6 3 7 2 16 -1 19 -3 4 -6 -2 -5 -13z"/>
<path d="M265 60 c3 -5 8 -10 11 -10 2 0 4 5 4 10 0 6 -5 10 -11 10 -5 0 -7
-4 -4 -10z"/>
<path d="M920 41 c30 -16 66 -31 80 -35 14 -3 -6 10 -45 29 -38 19 -74 34 -80
34 -5 0 15 -13 45 -28z"/>
<path d="M1367 63 c-4 -3 -7 -20 -7 -36 0 -38 13 -27 16 13 2 32 1 34 -9 23z"/>
<path d="M1651 54 c0 -11 3 -14 6 -6 3 7 2 16 -1 19 -3 4 -6 -2 -5 -13z"/>
<path d="M1689 57 c-16 -12 -15 -37 2 -37 6 0 7 5 3 11 -3 6 0 15 7 20 7 4 11
10 9 13 -3 2 -12 -1 -21 -7z"/>
<path d="M235 49 c-4 -6 -5 -12 -2 -15 2 -3 7 2 10 11 7 17 1 20 -8 4z"/>
<path d="M1920 51 c0 -6 4 -13 10 -16 6 -3 7 1 4 9 -7 18 -14 21 -14 7z"/>
<path d="M176 35 c-9 -26 -7 -32 5 -12 6 10 9 21 6 23 -2 3 -7 -2 -11 -11z"/>
<path d="M1422 25 c0 -17 2 -22 5 -12 2 9 2 23 0 30 -3 6 -5 -1 -5 -18z"/>
<path d="M2802 25 c0 -17 2 -22 5 -12 2 9 2 23 0 30 -3 6 -5 -1 -5 -18z"/>
<path d="M100 29 c-12 -9 -12 -10 4 -5 11 4 23 1 28 -6 7 -10 9 -10 6 1 -6 20
-20 23 -38 10z"/>
<path d="M201 24 c0 -11 3 -14 6 -6 3 7 2 16 -1 19 -3 4 -6 -2 -5 -13z"/>
<path d="M627 20 c-3 -11 -1 -20 4 -20 5 0 9 9 9 20 0 11 -2 20 -4 20 -2 0 -6
-9 -9 -20z"/>
<path d="M720 35 c0 -16 22 -35 40 -35 11 1 10 4 -5 12 -11 6 -23 16 -27 22
-5 7 -8 8 -8 1z"/>
<path d="M1869 30 c-6 -4 0 -9 15 -12 16 -3 26 -1 26 7 0 13 -23 16 -41 5z"/>
<path d="M2006 27 c3 -10 9 -15 12 -12 3 3 0 11 -7 18 -10 9 -11 8 -5 -6z"/>
<path d="M2060 21 c0 -6 4 -12 8 -15 5 -3 9 1 9 9 0 8 -4 15 -9 15 -4 0 -8 -4
-8 -9z"/>
<path d="M2160 16 c0 -9 5 -16 10 -16 6 0 10 4 10 9 0 6 -4 13 -10 16 -5 3
-10 -1 -10 -9z"/>
<path d="M910 10 c8 -5 20 -10 25 -10 6 0 3 5 -5 10 -8 5 -19 10 -25 10 -5 0
-3 -5 5 -10z"/>
<path d="M1210 9 c0 -5 5 -7 10 -4 6 3 10 8 10 11 0 2 -4 4 -10 4 -5 0 -10 -5
-10 -11z"/>
<path d="M1635 10 c-3 -5 -1 -10 4 -10 6 0 11 5 11 10 0 6 -2 10 -4 10 -3 0
-8 -4 -11 -10z"/>
</g>
</svg>
